solid OpenSCAD_Model
  facet normal -1 0 0
    outer loop
      vertex -6.6 2 0
      vertex -6.6 21 23
      vertex -6.6 21 0
    endloop
  endfacet
  facet normal -1 -0 0
    outer loop
      vertex -6.6 21 23
      vertex -6.6 2 0
      vertex -6.6 2 23
    endloop
  endfacet
  facet normal -0.998027 0.0627798 0
    outer loop
      vertex -6.6 21 0
      vertex -6.58423 21.2507 23
      vertex -6.58423 21.2507 0
    endloop
  endfacet
  facet normal -0.998027 0.0627798 0
    outer loop
      vertex -6.58423 21.2507 23
      vertex -6.6 21 0
      vertex -6.6 21 23
    endloop
  endfacet
  facet normal 0 0 1
    outer loop
      vertex 18.5256 22.9961 23
      vertex 20.4 21 23
      vertex 20.3842 21.2507 23
    endloop
  endfacet
  facet normal 0 0 1
    outer loop
      vertex 20.4 21 23
      vertex -0.5 11.5 23
      vertex 20.4 2 23
    endloop
  endfacet
  facet normal 0 0 1
    outer loop
      vertex 18.5256 22.9961 23
      vertex 20.3842 21.2507 23
      vertex 20.3372 21.4974 23
    endloop
  endfacet
  facet normal -0 0 1
    outer loop
      vertex -0.51577 11.2493 23
      vertex 20.4 2 23
      vertex -0.5 11.5 23
    endloop
  endfacet
  facet normal 0 0 1
    outer loop
      vertex 18.5256 22.9961 23
      vertex 20.3372 21.4974 23
      vertex 20.2596 21.7362 23
    endloop
  endfacet
  facet normal 0 -0 1
    outer loop
      vertex 18.5256 0.0039463 23
      vertex 20.4 2 23
      vertex -0.51577 11.2493 23
    endloop
  endfacet
  facet normal 0 0 1
    outer loop
      vertex 18.5256 22.9961 23
      vertex 20.2596 21.7362 23
      vertex 20.1526 21.9635 23
    endloop
  endfacet
  facet normal 0 0 1
    outer loop
      vertex 20.4 21 23
      vertex 18.5256 22.9961 23
      vertex -0.51577 11.7507 23
    endloop
  endfacet
  facet normal 0 0 1
    outer loop
      vertex 18.5256 22.9961 23
      vertex 20.1526 21.9635 23
      vertex 20.018 22.1756 23
    endloop
  endfacet
  facet normal 0 0 1
    outer loop
      vertex 20.4 2 23
      vertex 18.5256 0.0039463 23
      vertex 20.3842 1.74933 23
    endloop
  endfacet
  facet normal 0 0 1
    outer loop
      vertex 18.5256 22.9961 23
      vertex 20.018 22.1756 23
      vertex 19.8579 22.3691 23
    endloop
  endfacet
  facet normal 0 0 1
    outer loop
      vertex 20.2596 1.26375 23
      vertex 18.5256 0.0039463 23
      vertex 20.1526 1.03649 23
    endloop
  endfacet
  facet normal 0 0 1
    outer loop
      vertex 18.5256 22.9961 23
      vertex 19.8579 22.3691 23
      vertex 19.6748 22.541 23
    endloop
  endfacet
  facet normal 0 0 1
    outer loop
      vertex 20.1526 1.03649 23
      vertex 18.5256 0.0039463 23
      vertex 20.018 0.824429 23
    endloop
  endfacet
  facet normal 0 0 1
    outer loop
      vertex 18.5256 22.9961 23
      vertex 19.6748 22.541 23
      vertex 19.4717 22.6887 23
    endloop
  endfacet
  facet normal 0 0 1
    outer loop
      vertex 20.018 0.824429 23
      vertex 18.5256 0.0039463 23
      vertex 19.8579 0.630905 23
    endloop
  endfacet
  facet normal 0 0 1
    outer loop
      vertex 18.5256 22.9961 23
      vertex 19.4717 22.6887 23
      vertex 19.2516 22.8097 23
    endloop
  endfacet
  facet normal 0 0 1
    outer loop
      vertex 19.8579 0.630905 23
      vertex 18.5256 0.0039463 23
      vertex 19.6748 0.458973 23
    endloop
  endfacet
  facet normal 0 0 1
    outer loop
      vertex 18.5256 22.9961 23
      vertex 19.2516 22.8097 23
      vertex 19.018 22.9021 23
    endloop
  endfacet
  facet normal 0 0 1
    outer loop
      vertex 19.6748 0.458973 23
      vertex 18.5256 0.0039463 23
      vertex 19.4717 0.311344 23
    endloop
  endfacet
  facet normal 0 0 1
    outer loop
      vertex 18.5256 22.9961 23
      vertex 19.018 22.9021 23
      vertex 18.7748 22.9646 23
    endloop
  endfacet
  facet normal 0 0 1
    outer loop
      vertex 19.4717 0.311344 23
      vertex 18.5256 0.0039463 23
      vertex 19.2516 0.190346 23
    endloop
  endfacet
  facet normal 0 0 1
    outer loop
      vertex 19.2516 0.190346 23
      vertex 18.5256 0.0039463 23
      vertex 19.018 0.0978861 23
    endloop
  endfacet
  facet normal 0 0 1
    outer loop
      vertex 19.018 0.0978861 23
      vertex 18.5256 0.0039463 23
      vertex 18.7748 0.0354252 23
    endloop
  endfacet
  facet normal 0 0 1
    outer loop
      vertex 20.3372 1.50262 23
      vertex 18.5256 0.0039463 23
      vertex 20.2596 1.26375 23
    endloop
  endfacet
  facet normal 0 0 1
    outer loop
      vertex 20.4 21 23
      vertex -0.51577 11.7507 23
      vertex -0.5 11.5 23
    endloop
  endfacet
  facet normal 0 0 1
    outer loop
      vertex 18.5256 22.9961 23
      vertex -0.562833 11.9974 23
      vertex -0.51577 11.7507 23
    endloop
  endfacet
  facet normal 0 0 1
    outer loop
      vertex 18.5256 22.9961 23
      vertex -0.640447 12.2362 23
      vertex -0.562833 11.9974 23
    endloop
  endfacet
  facet normal 0 0 1
    outer loop
      vertex 18.5256 22.9961 23
      vertex -0.747386 12.4635 23
      vertex -0.640447 12.2362 23
    endloop
  endfacet
  facet normal 0 0 1
    outer loop
      vertex 18.5256 22.9961 23
      vertex -0.881966 12.6756 23
      vertex -0.747386 12.4635 23
    endloop
  endfacet
  facet normal 0 0 1
    outer loop
      vertex 18.5256 22.9961 23
      vertex -1.04206 12.8691 23
      vertex -0.881966 12.6756 23
    endloop
  endfacet
  facet normal 0 0 1
    outer loop
      vertex 18.5256 22.9961 23
      vertex -1.22515 13.041 23
      vertex -1.04206 12.8691 23
    endloop
  endfacet
  facet normal -0 0 1
    outer loop
      vertex -4.72558 22.9961 23
      vertex -1.22515 13.041 23
      vertex 18.5256 22.9961 23
    endloop
  endfacet
  facet normal 0 0 1
    outer loop
      vertex -1.22515 13.041 23
      vertex -4.72558 22.9961 23
      vertex -1.42835 13.1887 23
    endloop
  endfacet
  facet normal 0 0 1
    outer loop
      vertex -1.42835 13.1887 23
      vertex -4.72558 22.9961 23
      vertex -1.64844 13.3097 23
    endloop
  endfacet
  facet normal 0 0 1
    outer loop
      vertex -1.64844 13.3097 23
      vertex -4.72558 22.9961 23
      vertex -1.88197 13.4021 23
    endloop
  endfacet
  facet normal 0 0 1
    outer loop
      vertex -1.88197 13.4021 23
      vertex -4.72558 22.9961 23
      vertex -2.12524 13.4646 23
    endloop
  endfacet
  facet normal 0 0 1
    outer loop
      vertex -2.12524 13.4646 23
      vertex -4.72558 22.9961 23
      vertex -2.37442 13.4961 23
    endloop
  endfacet
  facet normal -0 0 1
    outer loop
      vertex -6.6 21 23
      vertex -2.37442 13.4961 23
      vertex -4.72558 22.9961 23
    endloop
  endfacet
  facet normal 0 0 1
    outer loop
      vertex -2.37442 13.4961 23
      vertex -6.6 21 23
      vertex -2.62558 13.4961 23
    endloop
  endfacet
  facet normal 0 0 1
    outer loop
      vertex -2.62558 13.4961 23
      vertex -6.6 21 23
      vertex -2.87476 13.4646 23
    endloop
  endfacet
  facet normal 0 0 1
    outer loop
      vertex -4.43717 11.9974 23
      vertex -6.6 21 23
      vertex -4.48423 11.7507 23
    endloop
  endfacet
  facet normal 0 0 1
    outer loop
      vertex -4.35955 12.2362 23
      vertex -6.6 21 23
      vertex -4.43717 11.9974 23
    endloop
  endfacet
  facet normal 0 0 1
    outer loop
      vertex -4.25261 12.4635 23
      vertex -6.6 21 23
      vertex -4.35955 12.2362 23
    endloop
  endfacet
  facet normal 0 0 1
    outer loop
      vertex -4.11803 12.6756 23
      vertex -6.6 21 23
      vertex -4.25261 12.4635 23
    endloop
  endfacet
  facet normal 0 0 1
    outer loop
      vertex -3.95794 12.8691 23
      vertex -6.6 21 23
      vertex -4.11803 12.6756 23
    endloop
  endfacet
  facet normal 0 0 1
    outer loop
      vertex -3.77485 13.041 23
      vertex -6.6 21 23
      vertex -3.95794 12.8691 23
    endloop
  endfacet
  facet normal 0 0 1
    outer loop
      vertex -3.57165 13.1887 23
      vertex -6.6 21 23
      vertex -3.77485 13.041 23
    endloop
  endfacet
  facet normal 0 0 1
    outer loop
      vertex -3.35156 13.3097 23
      vertex -6.6 21 23
      vertex -3.57165 13.1887 23
    endloop
  endfacet
  facet normal 0 0 1
    outer loop
      vertex -3.11803 13.4021 23
      vertex -6.6 21 23
      vertex -3.35156 13.3097 23
    endloop
  endfacet
  facet normal 0 0 1
    outer loop
      vertex -2.87476 13.4646 23
      vertex -6.6 21 23
      vertex -3.11803 13.4021 23
    endloop
  endfacet
  facet normal 0 0 1
    outer loop
      vertex 20.3842 1.74933 23
      vertex 18.5256 0.0039463 23
      vertex 20.3372 1.50262 23
    endloop
  endfacet
  facet normal -0 0 1
    outer loop
      vertex -0.562833 11.0026 23
      vertex 18.5256 0.0039463 23
      vertex -0.51577 11.2493 23
    endloop
  endfacet
  facet normal -0 0 1
    outer loop
      vertex -0.640447 10.7638 23
      vertex 18.5256 0.0039463 23
      vertex -0.562833 11.0026 23
    endloop
  endfacet
  facet normal -0 0 1
    outer loop
      vertex -0.747386 10.5365 23
      vertex 18.5256 0.0039463 23
      vertex -0.640447 10.7638 23
    endloop
  endfacet
  facet normal -0 0 1
    outer loop
      vertex -0.881966 10.3244 23
      vertex 18.5256 0.0039463 23
      vertex -0.747386 10.5365 23
    endloop
  endfacet
  facet normal -0 0 1
    outer loop
      vertex -1.04206 10.1309 23
      vertex 18.5256 0.0039463 23
      vertex -0.881966 10.3244 23
    endloop
  endfacet
  facet normal -0 0 1
    outer loop
      vertex -1.22515 9.95897 23
      vertex 18.5256 0.0039463 23
      vertex -1.04206 10.1309 23
    endloop
  endfacet
  facet normal 0 0 1
    outer loop
      vertex -4.72558 0.0039463 23
      vertex -1.22515 9.95897 23
      vertex -1.42835 9.81134 23
    endloop
  endfacet
  facet normal 0 0 1
    outer loop
      vertex -4.72558 0.0039463 23
      vertex -1.42835 9.81134 23
      vertex -1.64844 9.69035 23
    endloop
  endfacet
  facet normal 0 0 1
    outer loop
      vertex -4.72558 0.0039463 23
      vertex -1.64844 9.69035 23
      vertex -1.88197 9.59789 23
    endloop
  endfacet
  facet normal 0 0 1
    outer loop
      vertex -4.72558 0.0039463 23
      vertex -1.88197 9.59789 23
      vertex -2.12524 9.53543 23
    endloop
  endfacet
  facet normal 0 0 1
    outer loop
      vertex -4.72558 0.0039463 23
      vertex -2.12524 9.53543 23
      vertex -2.37442 9.50395 23
    endloop
  endfacet
  facet normal 0 0 1
    outer loop
      vertex -6.6 2 23
      vertex -2.37442 9.50395 23
      vertex -2.62558 9.50395 23
    endloop
  endfacet
  facet normal 0 0 1
    outer loop
      vertex -6.6 2 23
      vertex -2.62558 9.50395 23
      vertex -2.87476 9.53543 23
    endloop
  endfacet
  facet normal 0 0 1
    outer loop
      vertex -6.6 2 23
      vertex -2.87476 9.53543 23
      vertex -3.11803 9.59789 23
    endloop
  endfacet
  facet normal 0 0 1
    outer loop
      vertex -6.6 2 23
      vertex -3.11803 9.59789 23
      vertex -3.35156 9.69035 23
    endloop
  endfacet
  facet normal 0 0 1
    outer loop
      vertex -1.22515 9.95897 23
      vertex -4.72558 0.0039463 23
      vertex 18.5256 0.0039463 23
    endloop
  endfacet
  facet normal 0 0 1
    outer loop
      vertex -6.6 2 23
      vertex -3.35156 9.69035 23
      vertex -3.57165 9.81134 23
    endloop
  endfacet
  facet normal 0 0 1
    outer loop
      vertex -6.6 2 23
      vertex -3.57165 9.81134 23
      vertex -3.77485 9.95897 23
    endloop
  endfacet
  facet normal 0 0 1
    outer loop
      vertex -6.6 2 23
      vertex -3.77485 9.95897 23
      vertex -3.95794 10.1309 23
    endloop
  endfacet
  facet normal 0 0 1
    outer loop
      vertex -6.6 2 23
      vertex -3.95794 10.1309 23
      vertex -4.11803 10.3244 23
    endloop
  endfacet
  facet normal 0 0 1
    outer loop
      vertex -6.6 2 23
      vertex -4.11803 10.3244 23
      vertex -4.25261 10.5365 23
    endloop
  endfacet
  facet normal 0 0 1
    outer loop
      vertex -6.6 2 23
      vertex -4.25261 10.5365 23
      vertex -4.35955 10.7638 23
    endloop
  endfacet
  facet normal 0 0 1
    outer loop
      vertex -6.6 2 23
      vertex -4.35955 10.7638 23
      vertex -4.43717 11.0026 23
    endloop
  endfacet
  facet normal 0 0 1
    outer loop
      vertex -6.6 2 23
      vertex -4.43717 11.0026 23
      vertex -4.48423 11.2493 23
    endloop
  endfacet
  facet normal 0 0 1
    outer loop
      vertex -6.6 2 23
      vertex -4.48423 11.2493 23
      vertex -4.5 11.5 23
    endloop
  endfacet
  facet normal 0 0 1
    outer loop
      vertex -4.48423 11.7507 23
      vertex -6.6 21 23
      vertex -4.5 11.5 23
    endloop
  endfacet
  facet normal 0 0 1
    outer loop
      vertex -6.6 21 23
      vertex -4.72558 22.9961 23
      vertex -4.97476 22.9646 23
    endloop
  endfacet
  facet normal 0 0 1
    outer loop
      vertex -6.6 2 23
      vertex -4.5 11.5 23
      vertex -6.6 21 23
    endloop
  endfacet
  facet normal 0 0 1
    outer loop
      vertex -6.6 21 23
      vertex -4.97476 22.9646 23
      vertex -5.21803 22.9021 23
    endloop
  endfacet
  facet normal 0 0 1
    outer loop
      vertex -2.37442 9.50395 23
      vertex -6.6 2 23
      vertex -4.72558 0.0039463 23
    endloop
  endfacet
  facet normal 0 0 1
    outer loop
      vertex -6.6 21 23
      vertex -5.21803 22.9021 23
      vertex -5.45156 22.8097 23
    endloop
  endfacet
  facet normal 0 0 1
    outer loop
      vertex -4.72558 0.0039463 23
      vertex -6.6 2 23
      vertex -4.97476 0.0354252 23
    endloop
  endfacet
  facet normal 0 0 1
    outer loop
      vertex -6.6 21 23
      vertex -5.45156 22.8097 23
      vertex -5.67165 22.6887 23
    endloop
  endfacet
  facet normal 0 0 1
    outer loop
      vertex -4.97476 0.0354252 23
      vertex -6.6 2 23
      vertex -5.21803 0.0978861 23
    endloop
  endfacet
  facet normal 0 0 1
    outer loop
      vertex -6.6 21 23
      vertex -5.67165 22.6887 23
      vertex -5.87485 22.541 23
    endloop
  endfacet
  facet normal 0 0 1
    outer loop
      vertex -5.21803 0.0978861 23
      vertex -6.6 2 23
      vertex -5.45156 0.190346 23
    endloop
  endfacet
  facet normal 0 0 1
    outer loop
      vertex -6.6 21 23
      vertex -5.87485 22.541 23
      vertex -6.05794 22.3691 23
    endloop
  endfacet
  facet normal 0 0 1
    outer loop
      vertex -5.45156 0.190346 23
      vertex -6.6 2 23
      vertex -5.67165 0.311344 23
    endloop
  endfacet
  facet normal 0 0 1
    outer loop
      vertex -6.6 21 23
      vertex -6.05794 22.3691 23
      vertex -6.21803 22.1756 23
    endloop
  endfacet
  facet normal 0 0 1
    outer loop
      vertex -5.67165 0.311344 23
      vertex -6.6 2 23
      vertex -5.87485 0.458973 23
    endloop
  endfacet
  facet normal 0 0 1
    outer loop
      vertex -6.6 21 23
      vertex -6.21803 22.1756 23
      vertex -6.35261 21.9635 23
    endloop
  endfacet
  facet normal 0 0 1
    outer loop
      vertex -5.87485 0.458973 23
      vertex -6.6 2 23
      vertex -6.05794 0.630905 23
    endloop
  endfacet
  facet normal 0 0 1
    outer loop
      vertex -6.6 21 23
      vertex -6.35261 21.9635 23
      vertex -6.45955 21.7362 23
    endloop
  endfacet
  facet normal 0 0 1
    outer loop
      vertex -6.05794 0.630905 23
      vertex -6.6 2 23
      vertex -6.21803 0.824429 23
    endloop
  endfacet
  facet normal 0 0 1
    outer loop
      vertex -6.6 21 23
      vertex -6.45955 21.7362 23
      vertex -6.53717 21.4974 23
    endloop
  endfacet
  facet normal 0 0 1
    outer loop
      vertex -6.21803 0.824429 23
      vertex -6.6 2 23
      vertex -6.35261 1.03649 23
    endloop
  endfacet
  facet normal 0 0 1
    outer loop
      vertex -6.6 21 23
      vertex -6.53717 21.4974 23
      vertex -6.58423 21.2507 23
    endloop
  endfacet
  facet normal 0 0 1
    outer loop
      vertex -6.35261 1.03649 23
      vertex -6.6 2 23
      vertex -6.45955 1.26375 23
    endloop
  endfacet
  facet normal 0 0 1
    outer loop
      vertex -6.45955 1.26375 23
      vertex -6.6 2 23
      vertex -6.53717 1.50262 23
    endloop
  endfacet
  facet normal 0 0 1
    outer loop
      vertex -6.53717 1.50262 23
      vertex -6.6 2 23
      vertex -6.58423 1.74933 23
    endloop
  endfacet
  facet normal 0.684525 -0.728989 0
    outer loop
      vertex 19.6748 0.458973 0
      vertex 19.8579 0.630905 23
      vertex 19.6748 0.458973 23
    endloop
  endfacet
  facet normal 0.684525 -0.728989 0
    outer loop
      vertex 19.8579 0.630905 23
      vertex 19.6748 0.458973 0
      vertex 19.8579 0.630905 0
    endloop
  endfacet
  facet normal -0.904857 0.425717 0
    outer loop
      vertex -6.45955 21.7362 0
      vertex -6.35261 21.9635 23
      vertex -6.35261 21.9635 0
    endloop
  endfacet
  facet normal -0.904857 0.425717 0
    outer loop
      vertex -6.35261 21.9635 23
      vertex -6.45955 21.7362 0
      vertex -6.45955 21.7362 23
    endloop
  endfacet
  facet normal -0.367914 0.92986 0
    outer loop
      vertex -5.21803 22.9021 0
      vertex -5.45156 22.8097 23
      vertex -5.21803 22.9021 23
    endloop
  endfacet
  facet normal -0.367914 0.92986 0
    outer loop
      vertex -5.45156 22.8097 23
      vertex -5.21803 22.9021 0
      vertex -5.45156 22.8097 0
    endloop
  endfacet
  facet normal 0 1 -0
    outer loop
      vertex 18.5256 22.9961 0
      vertex -4.72558 22.9961 23
      vertex 18.5256 22.9961 23
    endloop
  endfacet
  facet normal 0 1 0
    outer loop
      vertex -4.72558 22.9961 23
      vertex 18.5256 22.9961 0
      vertex -4.72558 22.9961 0
    endloop
  endfacet
  facet normal 1 -0 0
    outer loop
      vertex 20.4 2 23
      vertex 20.4 21 0
      vertex 20.4 21 23
    endloop
  endfacet
  facet normal 1 0 0
    outer loop
      vertex 20.4 21 0
      vertex 20.4 2 23
      vertex 20.4 2 0
    endloop
  endfacet
  facet normal -0.248689 -0.968583 0
    outer loop
      vertex -5.21803 0.0978861 0
      vertex -4.97476 0.0354252 23
      vertex -5.21803 0.0978861 23
    endloop
  endfacet
  facet normal -0.248689 -0.968583 -0
    outer loop
      vertex -4.97476 0.0354252 23
      vertex -5.21803 0.0978861 0
      vertex -4.97476 0.0354252 0
    endloop
  endfacet
  facet normal -0.982288 0.187379 0
    outer loop
      vertex -6.58423 21.2507 0
      vertex -6.53717 21.4974 23
      vertex -6.53717 21.4974 0
    endloop
  endfacet
  facet normal -0.982288 0.187379 0
    outer loop
      vertex -6.53717 21.4974 23
      vertex -6.58423 21.2507 0
      vertex -6.58423 21.2507 23
    endloop
  endfacet
  facet normal -0.770488 0.637454 0
    outer loop
      vertex -6.21803 22.1756 0
      vertex -6.05794 22.3691 23
      vertex -6.05794 22.3691 0
    endloop
  endfacet
  facet normal -0.770488 0.637454 0
    outer loop
      vertex -6.05794 22.3691 23
      vertex -6.21803 22.1756 0
      vertex -6.21803 22.1756 23
    endloop
  endfacet
  facet normal -0.684477 0.729034 0
    outer loop
      vertex -5.87485 22.541 0
      vertex -6.05794 22.3691 23
      vertex -5.87485 22.541 23
    endloop
  endfacet
  facet normal -0.684477 0.729034 0
    outer loop
      vertex -6.05794 22.3691 23
      vertex -5.87485 22.541 0
      vertex -6.05794 22.3691 0
    endloop
  endfacet
  facet normal -0.125416 0.992104 0
    outer loop
      vertex -4.72558 22.9961 0
      vertex -4.97476 22.9646 23
      vertex -4.72558 22.9961 23
    endloop
  endfacet
  facet normal -0.125416 0.992104 0
    outer loop
      vertex -4.97476 22.9646 23
      vertex -4.72558 22.9961 0
      vertex -4.97476 22.9646 0
    endloop
  endfacet
  facet normal 0 -1 0
    outer loop
      vertex -4.72558 0.0039463 0
      vertex 18.5256 0.0039463 23
      vertex -4.72558 0.0039463 23
    endloop
  endfacet
  facet normal 0 -1 -0
    outer loop
      vertex 18.5256 0.0039463 23
      vertex -4.72558 0.0039463 0
      vertex 18.5256 0.0039463 0
    endloop
  endfacet
  facet normal 0 0 -1
    outer loop
      vertex 18.5256 0.0039463 0
      vertex 20.4 2 0
      vertex 20.3842 1.74933 0
    endloop
  endfacet
  facet normal 0 0 -1
    outer loop
      vertex 20.4 2 0
      vertex -0.5 11.5 0
      vertex 20.4 21 0
    endloop
  endfacet
  facet normal 0 0 -1
    outer loop
      vertex 18.5256 0.0039463 0
      vertex 20.3842 1.74933 0
      vertex 20.3372 1.50262 0
    endloop
  endfacet
  facet normal 0 0 -1
    outer loop
      vertex -0.51577 11.7507 0
      vertex 20.4 21 0
      vertex -0.5 11.5 0
    endloop
  endfacet
  facet normal 0 0 -1
    outer loop
      vertex 18.5256 0.0039463 0
      vertex 20.3372 1.50262 0
      vertex 20.2596 1.26375 0
    endloop
  endfacet
  facet normal 0 -0 -1
    outer loop
      vertex 18.5256 22.9961 0
      vertex 20.4 21 0
      vertex -0.51577 11.7507 0
    endloop
  endfacet
  facet normal 0 0 -1
    outer loop
      vertex 18.5256 0.0039463 0
      vertex 20.2596 1.26375 0
      vertex 20.1526 1.03649 0
    endloop
  endfacet
  facet normal -0 0 -1
    outer loop
      vertex 20.4 2 0
      vertex 18.5256 0.0039463 0
      vertex -0.51577 11.2493 0
    endloop
  endfacet
  facet normal 0 0 -1
    outer loop
      vertex 18.5256 0.0039463 0
      vertex 20.1526 1.03649 0
      vertex 20.018 0.824429 0
    endloop
  endfacet
  facet normal 0 0 -1
    outer loop
      vertex 20.4 21 0
      vertex 18.5256 22.9961 0
      vertex 20.3842 21.2507 0
    endloop
  endfacet
  facet normal 0 0 -1
    outer loop
      vertex 18.5256 0.0039463 0
      vertex 20.018 0.824429 0
      vertex 19.8579 0.630905 0
    endloop
  endfacet
  facet normal 0 0 -1
    outer loop
      vertex 20.2596 21.7362 0
      vertex 18.5256 22.9961 0
      vertex 20.1526 21.9635 0
    endloop
  endfacet
  facet normal 0 0 -1
    outer loop
      vertex 18.5256 0.0039463 0
      vertex 19.8579 0.630905 0
      vertex 19.6748 0.458973 0
    endloop
  endfacet
  facet normal 0 0 -1
    outer loop
      vertex 20.1526 21.9635 0
      vertex 18.5256 22.9961 0
      vertex 20.018 22.1756 0
    endloop
  endfacet
  facet normal 0 0 -1
    outer loop
      vertex 18.5256 0.0039463 0
      vertex 19.6748 0.458973 0
      vertex 19.4717 0.311344 0
    endloop
  endfacet
  facet normal 0 0 -1
    outer loop
      vertex 20.018 22.1756 0
      vertex 18.5256 22.9961 0
      vertex 19.8579 22.3691 0
    endloop
  endfacet
  facet normal 0 0 -1
    outer loop
      vertex 18.5256 0.0039463 0
      vertex 19.4717 0.311344 0
      vertex 19.2516 0.190346 0
    endloop
  endfacet
  facet normal 0 0 -1
    outer loop
      vertex 19.8579 22.3691 0
      vertex 18.5256 22.9961 0
      vertex 19.6748 22.541 0
    endloop
  endfacet
  facet normal 0 0 -1
    outer loop
      vertex 18.5256 0.0039463 0
      vertex 19.2516 0.190346 0
      vertex 19.018 0.0978861 0
    endloop
  endfacet
  facet normal 0 0 -1
    outer loop
      vertex 19.6748 22.541 0
      vertex 18.5256 22.9961 0
      vertex 19.4717 22.6887 0
    endloop
  endfacet
  facet normal 0 0 -1
    outer loop
      vertex 18.5256 0.0039463 0
      vertex 19.018 0.0978861 0
      vertex 18.7748 0.0354252 0
    endloop
  endfacet
  facet normal 0 0 -1
    outer loop
      vertex 19.4717 22.6887 0
      vertex 18.5256 22.9961 0
      vertex 19.2516 22.8097 0
    endloop
  endfacet
  facet normal 0 0 -1
    outer loop
      vertex 19.2516 22.8097 0
      vertex 18.5256 22.9961 0
      vertex 19.018 22.9021 0
    endloop
  endfacet
  facet normal 0 0 -1
    outer loop
      vertex 19.018 22.9021 0
      vertex 18.5256 22.9961 0
      vertex 18.7748 22.9646 0
    endloop
  endfacet
  facet normal 0 0 -1
    outer loop
      vertex 20.3372 21.4974 0
      vertex 18.5256 22.9961 0
      vertex 20.2596 21.7362 0
    endloop
  endfacet
  facet normal 0 0 -1
    outer loop
      vertex 20.4 2 0
      vertex -0.51577 11.2493 0
      vertex -0.5 11.5 0
    endloop
  endfacet
  facet normal 0 0 -1
    outer loop
      vertex 18.5256 0.0039463 0
      vertex -0.562833 11.0026 0
      vertex -0.51577 11.2493 0
    endloop
  endfacet
  facet normal 0 0 -1
    outer loop
      vertex 18.5256 0.0039463 0
      vertex -0.640447 10.7638 0
      vertex -0.562833 11.0026 0
    endloop
  endfacet
  facet normal 0 0 -1
    outer loop
      vertex 18.5256 0.0039463 0
      vertex -0.747386 10.5365 0
      vertex -0.640447 10.7638 0
    endloop
  endfacet
  facet normal 0 0 -1
    outer loop
      vertex 18.5256 0.0039463 0
      vertex -0.881966 10.3244 0
      vertex -0.747386 10.5365 0
    endloop
  endfacet
  facet normal 0 0 -1
    outer loop
      vertex 18.5256 0.0039463 0
      vertex -1.04206 10.1309 0
      vertex -0.881966 10.3244 0
    endloop
  endfacet
  facet normal 0 0 -1
    outer loop
      vertex 18.5256 0.0039463 0
      vertex -1.22515 9.95897 0
      vertex -1.04206 10.1309 0
    endloop
  endfacet
  facet normal 0 0 -1
    outer loop
      vertex -4.72558 0.0039463 0
      vertex -1.22515 9.95897 0
      vertex 18.5256 0.0039463 0
    endloop
  endfacet
  facet normal 0 0 -1
    outer loop
      vertex -1.22515 9.95897 0
      vertex -4.72558 0.0039463 0
      vertex -1.42835 9.81134 0
    endloop
  endfacet
  facet normal 0 0 -1
    outer loop
      vertex -1.42835 9.81134 0
      vertex -4.72558 0.0039463 0
      vertex -1.64844 9.69035 0
    endloop
  endfacet
  facet normal 0 0 -1
    outer loop
      vertex -1.64844 9.69035 0
      vertex -4.72558 0.0039463 0
      vertex -1.88197 9.59789 0
    endloop
  endfacet
  facet normal 0 0 -1
    outer loop
      vertex -1.88197 9.59789 0
      vertex -4.72558 0.0039463 0
      vertex -2.12524 9.53543 0
    endloop
  endfacet
  facet normal 0 0 -1
    outer loop
      vertex -2.12524 9.53543 0
      vertex -4.72558 0.0039463 0
      vertex -2.37442 9.50395 0
    endloop
  endfacet
  facet normal 0 0 -1
    outer loop
      vertex -6.6 2 0
      vertex -2.37442 9.50395 0
      vertex -4.72558 0.0039463 0
    endloop
  endfacet
  facet normal -0 0 -1
    outer loop
      vertex -2.37442 9.50395 0
      vertex -6.6 2 0
      vertex -2.62558 9.50395 0
    endloop
  endfacet
  facet normal -0 0 -1
    outer loop
      vertex -2.62558 9.50395 0
      vertex -6.6 2 0
      vertex -2.87476 9.53543 0
    endloop
  endfacet
  facet normal -0 0 -1
    outer loop
      vertex -4.43717 11.0026 0
      vertex -6.6 2 0
      vertex -4.48423 11.2493 0
    endloop
  endfacet
  facet normal -0 0 -1
    outer loop
      vertex -4.35955 10.7638 0
      vertex -6.6 2 0
      vertex -4.43717 11.0026 0
    endloop
  endfacet
  facet normal -0 0 -1
    outer loop
      vertex -4.25261 10.5365 0
      vertex -6.6 2 0
      vertex -4.35955 10.7638 0
    endloop
  endfacet
  facet normal -0 0 -1
    outer loop
      vertex -4.11803 10.3244 0
      vertex -6.6 2 0
      vertex -4.25261 10.5365 0
    endloop
  endfacet
  facet normal -0 0 -1
    outer loop
      vertex -3.95794 10.1309 0
      vertex -6.6 2 0
      vertex -4.11803 10.3244 0
    endloop
  endfacet
  facet normal -0 0 -1
    outer loop
      vertex -3.77485 9.95897 0
      vertex -6.6 2 0
      vertex -3.95794 10.1309 0
    endloop
  endfacet
  facet normal -0 0 -1
    outer loop
      vertex -3.57165 9.81134 0
      vertex -6.6 2 0
      vertex -3.77485 9.95897 0
    endloop
  endfacet
  facet normal -0 0 -1
    outer loop
      vertex -3.35156 9.69035 0
      vertex -6.6 2 0
      vertex -3.57165 9.81134 0
    endloop
  endfacet
  facet normal -0 0 -1
    outer loop
      vertex -3.11803 9.59789 0
      vertex -6.6 2 0
      vertex -3.35156 9.69035 0
    endloop
  endfacet
  facet normal -0 0 -1
    outer loop
      vertex -2.87476 9.53543 0
      vertex -6.6 2 0
      vertex -3.11803 9.59789 0
    endloop
  endfacet
  facet normal 0 0 -1
    outer loop
      vertex 20.3842 21.2507 0
      vertex 18.5256 22.9961 0
      vertex 20.3372 21.4974 0
    endloop
  endfacet
  facet normal 0 0 -1
    outer loop
      vertex -0.562833 11.9974 0
      vertex 18.5256 22.9961 0
      vertex -0.51577 11.7507 0
    endloop
  endfacet
  facet normal 0 0 -1
    outer loop
      vertex -0.640447 12.2362 0
      vertex 18.5256 22.9961 0
      vertex -0.562833 11.9974 0
    endloop
  endfacet
  facet normal 0 0 -1
    outer loop
      vertex -0.747386 12.4635 0
      vertex 18.5256 22.9961 0
      vertex -0.640447 12.2362 0
    endloop
  endfacet
  facet normal 0 0 -1
    outer loop
      vertex -0.881966 12.6756 0
      vertex 18.5256 22.9961 0
      vertex -0.747386 12.4635 0
    endloop
  endfacet
  facet normal 0 0 -1
    outer loop
      vertex -1.04206 12.8691 0
      vertex 18.5256 22.9961 0
      vertex -0.881966 12.6756 0
    endloop
  endfacet
  facet normal 0 0 -1
    outer loop
      vertex -1.22515 13.041 0
      vertex 18.5256 22.9961 0
      vertex -1.04206 12.8691 0
    endloop
  endfacet
  facet normal 0 0 -1
    outer loop
      vertex -4.72558 22.9961 0
      vertex -1.22515 13.041 0
      vertex -1.42835 13.1887 0
    endloop
  endfacet
  facet normal 0 0 -1
    outer loop
      vertex -4.72558 22.9961 0
      vertex -1.42835 13.1887 0
      vertex -1.64844 13.3097 0
    endloop
  endfacet
  facet normal 0 0 -1
    outer loop
      vertex -4.72558 22.9961 0
      vertex -1.64844 13.3097 0
      vertex -1.88197 13.4021 0
    endloop
  endfacet
  facet normal 0 0 -1
    outer loop
      vertex -4.72558 22.9961 0
      vertex -1.88197 13.4021 0
      vertex -2.12524 13.4646 0
    endloop
  endfacet
  facet normal 0 0 -1
    outer loop
      vertex -4.72558 22.9961 0
      vertex -2.12524 13.4646 0
      vertex -2.37442 13.4961 0
    endloop
  endfacet
  facet normal 0 0 -1
    outer loop
      vertex -6.6 21 0
      vertex -2.37442 13.4961 0
      vertex -2.62558 13.4961 0
    endloop
  endfacet
  facet normal 0 0 -1
    outer loop
      vertex -6.6 21 0
      vertex -2.62558 13.4961 0
      vertex -2.87476 13.4646 0
    endloop
  endfacet
  facet normal 0 0 -1
    outer loop
      vertex -6.6 21 0
      vertex -2.87476 13.4646 0
      vertex -3.11803 13.4021 0
    endloop
  endfacet
  facet normal 0 0 -1
    outer loop
      vertex -6.6 21 0
      vertex -3.11803 13.4021 0
      vertex -3.35156 13.3097 0
    endloop
  endfacet
  facet normal 0 0 -1
    outer loop
      vertex -1.22515 13.041 0
      vertex -4.72558 22.9961 0
      vertex 18.5256 22.9961 0
    endloop
  endfacet
  facet normal 0 0 -1
    outer loop
      vertex -6.6 21 0
      vertex -3.35156 13.3097 0
      vertex -3.57165 13.1887 0
    endloop
  endfacet
  facet normal 0 0 -1
    outer loop
      vertex -6.6 21 0
      vertex -3.57165 13.1887 0
      vertex -3.77485 13.041 0
    endloop
  endfacet
  facet normal 0 0 -1
    outer loop
      vertex -6.6 21 0
      vertex -3.77485 13.041 0
      vertex -3.95794 12.8691 0
    endloop
  endfacet
  facet normal 0 0 -1
    outer loop
      vertex -6.6 21 0
      vertex -3.95794 12.8691 0
      vertex -4.11803 12.6756 0
    endloop
  endfacet
  facet normal 0 0 -1
    outer loop
      vertex -6.6 21 0
      vertex -4.11803 12.6756 0
      vertex -4.25261 12.4635 0
    endloop
  endfacet
  facet normal 0 0 -1
    outer loop
      vertex -6.6 21 0
      vertex -4.25261 12.4635 0
      vertex -4.35955 12.2362 0
    endloop
  endfacet
  facet normal 0 0 -1
    outer loop
      vertex -6.6 21 0
      vertex -4.35955 12.2362 0
      vertex -4.43717 11.9974 0
    endloop
  endfacet
  facet normal 0 0 -1
    outer loop
      vertex -6.6 21 0
      vertex -4.43717 11.9974 0
      vertex -4.48423 11.7507 0
    endloop
  endfacet
  facet normal 0 0 -1
    outer loop
      vertex -6.6 21 0
      vertex -4.48423 11.7507 0
      vertex -4.5 11.5 0
    endloop
  endfacet
  facet normal -0 0 -1
    outer loop
      vertex -4.48423 11.2493 0
      vertex -6.6 2 0
      vertex -4.5 11.5 0
    endloop
  endfacet
  facet normal 0 0 -1
    outer loop
      vertex -6.6 2 0
      vertex -4.72558 0.0039463 0
      vertex -4.97476 0.0354252 0
    endloop
  endfacet
  facet normal 0 0 -1
    outer loop
      vertex -6.6 21 0
      vertex -4.5 11.5 0
      vertex -6.6 2 0
    endloop
  endfacet
  facet normal 0 0 -1
    outer loop
      vertex -6.6 2 0
      vertex -4.97476 0.0354252 0
      vertex -5.21803 0.0978861 0
    endloop
  endfacet
  facet normal 0 0 -1
    outer loop
      vertex -2.37442 13.4961 0
      vertex -6.6 21 0
      vertex -4.72558 22.9961 0
    endloop
  endfacet
  facet normal 0 0 -1
    outer loop
      vertex -6.6 2 0
      vertex -5.21803 0.0978861 0
      vertex -5.45156 0.190346 0
    endloop
  endfacet
  facet normal 0 0 -1
    outer loop
      vertex -4.72558 22.9961 0
      vertex -6.6 21 0
      vertex -4.97476 22.9646 0
    endloop
  endfacet
  facet normal 0 0 -1
    outer loop
      vertex -6.6 2 0
      vertex -5.45156 0.190346 0
      vertex -5.67165 0.311344 0
    endloop
  endfacet
  facet normal 0 0 -1
    outer loop
      vertex -4.97476 22.9646 0
      vertex -6.6 21 0
      vertex -5.21803 22.9021 0
    endloop
  endfacet
  facet normal 0 0 -1
    outer loop
      vertex -6.6 2 0
      vertex -5.67165 0.311344 0
      vertex -5.87485 0.458973 0
    endloop
  endfacet
  facet normal 0 0 -1
    outer loop
      vertex -5.21803 22.9021 0
      vertex -6.6 21 0
      vertex -5.45156 22.8097 0
    endloop
  endfacet
  facet normal 0 0 -1
    outer loop
      vertex -6.6 2 0
      vertex -5.87485 0.458973 0
      vertex -6.05794 0.630905 0
    endloop
  endfacet
  facet normal 0 0 -1
    outer loop
      vertex -5.45156 22.8097 0
      vertex -6.6 21 0
      vertex -5.67165 22.6887 0
    endloop
  endfacet
  facet normal 0 0 -1
    outer loop
      vertex -6.6 2 0
      vertex -6.05794 0.630905 0
      vertex -6.21803 0.824429 0
    endloop
  endfacet
  facet normal 0 0 -1
    outer loop
      vertex -5.67165 22.6887 0
      vertex -6.6 21 0
      vertex -5.87485 22.541 0
    endloop
  endfacet
  facet normal 0 0 -1
    outer loop
      vertex -6.6 2 0
      vertex -6.21803 0.824429 0
      vertex -6.35261 1.03649 0
    endloop
  endfacet
  facet normal 0 0 -1
    outer loop
      vertex -5.87485 22.541 0
      vertex -6.6 21 0
      vertex -6.05794 22.3691 0
    endloop
  endfacet
  facet normal 0 0 -1
    outer loop
      vertex -6.6 2 0
      vertex -6.35261 1.03649 0
      vertex -6.45955 1.26375 0
    endloop
  endfacet
  facet normal 0 0 -1
    outer loop
      vertex -6.05794 22.3691 0
      vertex -6.6 21 0
      vertex -6.21803 22.1756 0
    endloop
  endfacet
  facet normal 0 0 -1
    outer loop
      vertex -6.6 2 0
      vertex -6.45955 1.26375 0
      vertex -6.53717 1.50262 0
    endloop
  endfacet
  facet normal 0 0 -1
    outer loop
      vertex -6.21803 22.1756 0
      vertex -6.6 21 0
      vertex -6.35261 21.9635 0
    endloop
  endfacet
  facet normal 0 0 -1
    outer loop
      vertex -6.6 2 0
      vertex -6.53717 1.50262 0
      vertex -6.58423 1.74933 0
    endloop
  endfacet
  facet normal 0 0 -1
    outer loop
      vertex -6.35261 21.9635 0
      vertex -6.6 21 0
      vertex -6.45955 21.7362 0
    endloop
  endfacet
  facet normal 0 0 -1
    outer loop
      vertex -6.45955 21.7362 0
      vertex -6.6 21 0
      vertex -6.53717 21.4974 0
    endloop
  endfacet
  facet normal 0 0 -1
    outer loop
      vertex -6.53717 21.4974 0
      vertex -6.6 21 0
      vertex -6.58423 21.2507 0
    endloop
  endfacet
  facet normal -0.951022 0.309122 0
    outer loop
      vertex -6.53717 21.4974 0
      vertex -6.45955 21.7362 23
      vertex -6.45955 21.7362 0
    endloop
  endfacet
  facet normal -0.951022 0.309122 0
    outer loop
      vertex -6.45955 21.7362 23
      vertex -6.53717 21.4974 0
      vertex -6.53717 21.4974 23
    endloop
  endfacet
  facet normal -0.844369 0.535762 0
    outer loop
      vertex -6.35261 21.9635 0
      vertex -6.21803 22.1756 23
      vertex -6.21803 22.1756 0
    endloop
  endfacet
  facet normal -0.844369 0.535762 0
    outer loop
      vertex -6.21803 22.1756 23
      vertex -6.35261 21.9635 0
      vertex -6.35261 21.9635 23
    endloop
  endfacet
  facet normal -0.248835 0.968546 0
    outer loop
      vertex -4.97476 22.9646 0
      vertex -5.21803 22.9021 23
      vertex -4.97476 22.9646 23
    endloop
  endfacet
  facet normal -0.248835 0.968546 0
    outer loop
      vertex -5.21803 22.9021 23
      vertex -4.97476 22.9646 0
      vertex -5.21803 22.9021 0
    endloop
  endfacet
  facet normal 0.770468 0.637478 0
    outer loop
      vertex 20.018 22.1756 23
      vertex 19.8579 22.3691 0
      vertex 19.8579 22.3691 23
    endloop
  endfacet
  facet normal 0.770468 0.637478 0
    outer loop
      vertex 19.8579 22.3691 0
      vertex 20.018 22.1756 23
      vertex 20.018 22.1756 0
    endloop
  endfacet
  facet normal 0.125407 0.992105 -0
    outer loop
      vertex 18.7748 22.9646 0
      vertex 18.5256 22.9961 23
      vertex 18.7748 22.9646 23
    endloop
  endfacet
  facet normal 0.125407 0.992105 0
    outer loop
      vertex 18.5256 22.9961 23
      vertex 18.7748 22.9646 0
      vertex 18.5256 22.9961 0
    endloop
  endfacet
  facet normal 0.125324 -0.992116 0
    outer loop
      vertex 18.5256 0.0039463 0
      vertex 18.7748 0.0354252 23
      vertex 18.5256 0.0039463 23
    endloop
  endfacet
  facet normal 0.125324 -0.992116 0
    outer loop
      vertex 18.7748 0.0354252 23
      vertex 18.5256 0.0039463 0
      vertex 18.7748 0.0354252 0
    endloop
  endfacet
  facet normal 0.368025 -0.929816 0
    outer loop
      vertex 19.018 0.0978861 0
      vertex 19.2516 0.190346 23
      vertex 19.018 0.0978861 23
    endloop
  endfacet
  facet normal 0.368025 -0.929816 0
    outer loop
      vertex 19.2516 0.190346 23
      vertex 19.018 0.0978861 0
      vertex 19.2516 0.190346 0
    endloop
  endfacet
  facet normal 0.248756 -0.968566 0
    outer loop
      vertex 18.7748 0.0354252 0
      vertex 19.018 0.0978861 23
      vertex 18.7748 0.0354252 23
    endloop
  endfacet
  facet normal 0.248756 -0.968566 0
    outer loop
      vertex 19.018 0.0978861 23
      vertex 18.7748 0.0354252 0
      vertex 19.018 0.0978861 0
    endloop
  endfacet
  facet normal 0.951072 -0.308968 0
    outer loop
      vertex 20.2596 1.26375 23
      vertex 20.3372 1.50262 0
      vertex 20.3372 1.50262 23
    endloop
  endfacet
  facet normal 0.951072 -0.308968 0
    outer loop
      vertex 20.3372 1.50262 0
      vertex 20.2596 1.26375 23
      vertex 20.2596 1.26375 0
    endloop
  endfacet
  facet normal 0.998019 -0.0629062 0
    outer loop
      vertex 20.3842 1.74933 23
      vertex 20.4 2 0
      vertex 20.4 2 23
    endloop
  endfacet
  facet normal 0.998019 -0.0629062 0
    outer loop
      vertex 20.4 2 0
      vertex 20.3842 1.74933 23
      vertex 20.3842 1.74933 0
    endloop
  endfacet
  facet normal 0.99802 0.0628987 0
    outer loop
      vertex 20.4 21 23
      vertex 20.3842 21.2507 0
      vertex 20.3842 21.2507 23
    endloop
  endfacet
  facet normal 0.99802 0.0628987 0
    outer loop
      vertex 20.3842 21.2507 0
      vertex 20.4 21 23
      vertex 20.4 21 0
    endloop
  endfacet
  facet normal -0.904828 -0.425778 0
    outer loop
      vertex -6.35261 1.03649 0
      vertex -6.45955 1.26375 23
      vertex -6.45955 1.26375 0
    endloop
  endfacet
  facet normal -0.904828 -0.425778 0
    outer loop
      vertex -6.45955 1.26375 23
      vertex -6.35261 1.03649 0
      vertex -6.35261 1.03649 23
    endloop
  endfacet
  facet normal -0.770527 -0.637407 0
    outer loop
      vertex -6.05794 0.630905 0
      vertex -6.21803 0.824429 23
      vertex -6.21803 0.824429 0
    endloop
  endfacet
  facet normal -0.770527 -0.637407 0
    outer loop
      vertex -6.21803 0.824429 23
      vertex -6.05794 0.630905 0
      vertex -6.05794 0.630905 23
    endloop
  endfacet
  facet normal -0.951049 -0.30904 0
    outer loop
      vertex -6.45955 1.26375 0
      vertex -6.53717 1.50262 23
      vertex -6.53717 1.50262 0
    endloop
  endfacet
  facet normal -0.951049 -0.30904 0
    outer loop
      vertex -6.53717 1.50262 23
      vertex -6.45955 1.26375 0
      vertex -6.45955 1.26375 23
    endloop
  endfacet
  facet normal -0.998027 -0.0627873 0
    outer loop
      vertex -6.58423 1.74933 0
      vertex -6.6 2 23
      vertex -6.6 2 0
    endloop
  endfacet
  facet normal -0.998027 -0.0627873 0
    outer loop
      vertex -6.6 2 23
      vertex -6.58423 1.74933 0
      vertex -6.58423 1.74933 23
    endloop
  endfacet
  facet normal -0.481767 0.876299 0
    outer loop
      vertex -5.45156 22.8097 0
      vertex -5.67165 22.6887 23
      vertex -5.45156 22.8097 23
    endloop
  endfacet
  facet normal -0.481767 0.876299 0
    outer loop
      vertex -5.67165 22.6887 23
      vertex -5.45156 22.8097 0
      vertex -5.67165 22.6887 0
    endloop
  endfacet
  facet normal -0.587959 0.808891 0
    outer loop
      vertex -5.67165 22.6887 0
      vertex -5.87485 22.541 23
      vertex -5.67165 22.6887 23
    endloop
  endfacet
  facet normal -0.587959 0.808891 0
    outer loop
      vertex -5.87485 22.541 23
      vertex -5.67165 22.6887 0
      vertex -5.87485 22.541 0
    endloop
  endfacet
  facet normal 0.951046 0.30905 0
    outer loop
      vertex 20.3372 21.4974 23
      vertex 20.2596 21.7362 0
      vertex 20.2596 21.7362 23
    endloop
  endfacet
  facet normal 0.951046 0.30905 0
    outer loop
      vertex 20.2596 21.7362 0
      vertex 20.3372 21.4974 23
      vertex 20.3372 21.4974 0
    endloop
  endfacet
  facet normal 0.982332 0.187149 0
    outer loop
      vertex 20.3842 21.2507 23
      vertex 20.3372 21.4974 0
      vertex 20.3372 21.4974 23
    endloop
  endfacet
  facet normal 0.982332 0.187149 0
    outer loop
      vertex 20.3372 21.4974 0
      vertex 20.3842 21.2507 23
      vertex 20.3842 21.2507 0
    endloop
  endfacet
  facet normal 0.481751 0.876308 -0
    outer loop
      vertex 19.4717 22.6887 0
      vertex 19.2516 22.8097 23
      vertex 19.4717 22.6887 23
    endloop
  endfacet
  facet normal 0.481751 0.876308 0
    outer loop
      vertex 19.2516 22.8097 23
      vertex 19.4717 22.6887 0
      vertex 19.2516 22.8097 0
    endloop
  endfacet
  facet normal 0.684458 0.729053 -0
    outer loop
      vertex 19.8579 22.3691 0
      vertex 19.6748 22.541 23
      vertex 19.8579 22.3691 23
    endloop
  endfacet
  facet normal 0.684458 0.729053 0
    outer loop
      vertex 19.6748 22.541 23
      vertex 19.8579 22.3691 0
      vertex 19.6748 22.541 0
    endloop
  endfacet
  facet normal 0.367819 0.929897 -0
    outer loop
      vertex 19.2516 22.8097 0
      vertex 19.018 22.9021 23
      vertex 19.2516 22.8097 23
    endloop
  endfacet
  facet normal 0.367819 0.929897 0
    outer loop
      vertex 19.018 22.9021 23
      vertex 19.2516 22.8097 0
      vertex 19.018 22.9021 0
    endloop
  endfacet
  facet normal 0.481745 -0.876312 0
    outer loop
      vertex 19.2516 0.190346 0
      vertex 19.4717 0.311344 23
      vertex 19.2516 0.190346 23
    endloop
  endfacet
  facet normal 0.481745 -0.876312 0
    outer loop
      vertex 19.4717 0.311344 23
      vertex 19.2516 0.190346 0
      vertex 19.4717 0.311344 0
    endloop
  endfacet
  facet normal 0.587963 -0.808888 0
    outer loop
      vertex 19.4717 0.311344 0
      vertex 19.6748 0.458973 23
      vertex 19.4717 0.311344 23
    endloop
  endfacet
  facet normal 0.587963 -0.808888 0
    outer loop
      vertex 19.6748 0.458973 23
      vertex 19.4717 0.311344 0
      vertex 19.6748 0.458973 0
    endloop
  endfacet
  facet normal 0.844288 -0.535889 0
    outer loop
      vertex 20.018 0.824429 23
      vertex 20.1526 1.03649 0
      vertex 20.1526 1.03649 23
    endloop
  endfacet
  facet normal 0.844288 -0.535889 0
    outer loop
      vertex 20.1526 1.03649 0
      vertex 20.018 0.824429 23
      vertex 20.018 0.824429 0
    endloop
  endfacet
  facet normal 0.982333 -0.187141 0
    outer loop
      vertex 20.3372 1.50262 23
      vertex 20.3842 1.74933 0
      vertex 20.3842 1.74933 23
    endloop
  endfacet
  facet normal 0.982333 -0.187141 0
    outer loop
      vertex 20.3842 1.74933 0
      vertex 20.3372 1.50262 23
      vertex 20.3372 1.50262 0
    endloop
  endfacet
  facet normal 0.904736 -0.425973 0
    outer loop
      vertex 20.1526 1.03649 23
      vertex 20.2596 1.26375 0
      vertex 20.2596 1.26375 23
    endloop
  endfacet
  facet normal 0.904736 -0.425973 0
    outer loop
      vertex 20.2596 1.26375 0
      vertex 20.1526 1.03649 23
      vertex 20.1526 1.03649 0
    endloop
  endfacet
  facet normal -0.481761 -0.876302 0
    outer loop
      vertex -5.67165 0.311344 0
      vertex -5.45156 0.190346 23
      vertex -5.67165 0.311344 23
    endloop
  endfacet
  facet normal -0.481761 -0.876302 -0
    outer loop
      vertex -5.45156 0.190346 23
      vertex -5.67165 0.311344 0
      vertex -5.45156 0.190346 0
    endloop
  endfacet
  facet normal -0.125334 -0.992115 0
    outer loop
      vertex -4.97476 0.0354252 0
      vertex -4.72558 0.0039463 23
      vertex -4.97476 0.0354252 23
    endloop
  endfacet
  facet normal -0.125334 -0.992115 -0
    outer loop
      vertex -4.72558 0.0039463 23
      vertex -4.97476 0.0354252 0
      vertex -4.72558 0.0039463 0
    endloop
  endfacet
  facet normal -0.587774 -0.809025 0
    outer loop
      vertex -5.87485 0.458973 0
      vertex -5.67165 0.311344 23
      vertex -5.87485 0.458973 23
    endloop
  endfacet
  facet normal -0.587774 -0.809025 -0
    outer loop
      vertex -5.67165 0.311344 23
      vertex -5.87485 0.458973 0
      vertex -5.67165 0.311344 0
    endloop
  endfacet
  facet normal -0.684545 -0.728971 0
    outer loop
      vertex -6.05794 0.630905 0
      vertex -5.87485 0.458973 23
      vertex -6.05794 0.630905 23
    endloop
  endfacet
  facet normal -0.684545 -0.728971 -0
    outer loop
      vertex -5.87485 0.458973 23
      vertex -6.05794 0.630905 0
      vertex -5.87485 0.458973 0
    endloop
  endfacet
  facet normal -0.844324 -0.535832 0
    outer loop
      vertex -6.21803 0.824429 0
      vertex -6.35261 1.03649 23
      vertex -6.35261 1.03649 0
    endloop
  endfacet
  facet normal -0.844324 -0.535832 0
    outer loop
      vertex -6.35261 1.03649 23
      vertex -6.21803 0.824429 0
      vertex -6.21803 0.824429 23
    endloop
  endfacet
  facet normal -0.982289 -0.187372 0
    outer loop
      vertex -6.53717 1.50262 0
      vertex -6.58423 1.74933 23
      vertex -6.58423 1.74933 0
    endloop
  endfacet
  facet normal -0.982289 -0.187372 0
    outer loop
      vertex -6.58423 1.74933 23
      vertex -6.53717 1.50262 0
      vertex -6.53717 1.50262 23
    endloop
  endfacet
  facet normal 0.844333 0.535819 0
    outer loop
      vertex 20.1526 21.9635 23
      vertex 20.018 22.1756 0
      vertex 20.018 22.1756 23
    endloop
  endfacet
  facet normal 0.844333 0.535819 0
    outer loop
      vertex 20.018 22.1756 0
      vertex 20.1526 21.9635 23
      vertex 20.1526 21.9635 0
    endloop
  endfacet
  facet normal 0.904765 0.425912 0
    outer loop
      vertex 20.2596 21.7362 23
      vertex 20.1526 21.9635 0
      vertex 20.1526 21.9635 23
    endloop
  endfacet
  facet normal 0.904765 0.425912 0
    outer loop
      vertex 20.1526 21.9635 0
      vertex 20.2596 21.7362 23
      vertex 20.2596 21.7362 0
    endloop
  endfacet
  facet normal 0.588148 0.808753 -0
    outer loop
      vertex 19.6748 22.541 0
      vertex 19.4717 22.6887 23
      vertex 19.6748 22.541 23
    endloop
  endfacet
  facet normal 0.588148 0.808753 0
    outer loop
      vertex 19.4717 22.6887 23
      vertex 19.6748 22.541 0
      vertex 19.4717 22.6887 0
    endloop
  endfacet
  facet normal 0.248902 0.968529 -0
    outer loop
      vertex 19.018 22.9021 0
      vertex 18.7748 22.9646 23
      vertex 19.018 22.9021 23
    endloop
  endfacet
  facet normal 0.248902 0.968529 0
    outer loop
      vertex 18.7748 22.9646 23
      vertex 19.018 22.9021 0
      vertex 18.7748 22.9646 0
    endloop
  endfacet
  facet normal 0.770507 -0.637431 0
    outer loop
      vertex 19.8579 0.630905 23
      vertex 20.018 0.824429 0
      vertex 20.018 0.824429 23
    endloop
  endfacet
  facet normal 0.770507 -0.637431 0
    outer loop
      vertex 20.018 0.824429 0
      vertex 19.8579 0.630905 23
      vertex 19.8579 0.630905 0
    endloop
  endfacet
  facet normal -0.368121 -0.929778 0
    outer loop
      vertex -5.45156 0.190346 0
      vertex -5.21803 0.0978861 23
      vertex -5.45156 0.190346 23
    endloop
  endfacet
  facet normal -0.368121 -0.929778 -0
    outer loop
      vertex -5.21803 0.0978861 23
      vertex -5.45156 0.190346 0
      vertex -5.21803 0.0978861 0
    endloop
  endfacet
  facet normal -0.998027 -0.0627798 0
    outer loop
      vertex -0.5 11.5 0
      vertex -0.51577 11.7507 23
      vertex -0.51577 11.7507 0
    endloop
  endfacet
  facet normal -0.998027 -0.0627798 0
    outer loop
      vertex -0.51577 11.7507 23
      vertex -0.5 11.5 0
      vertex -0.5 11.5 23
    endloop
  endfacet
  facet normal 0.998027 -0.0627798 0
    outer loop
      vertex -4.5 11.5 23
      vertex -4.48423 11.7507 0
      vertex -4.48423 11.7507 23
    endloop
  endfacet
  facet normal 0.998027 -0.0627798 0
    outer loop
      vertex -4.48423 11.7507 0
      vertex -4.5 11.5 23
      vertex -4.5 11.5 0
    endloop
  endfacet
  facet normal 0 -1 0
    outer loop
      vertex -2.62558 13.4961 0
      vertex -2.37442 13.4961 23
      vertex -2.62558 13.4961 23
    endloop
  endfacet
  facet normal 0 -1 -0
    outer loop
      vertex -2.37442 13.4961 23
      vertex -2.62558 13.4961 0
      vertex -2.37442 13.4961 0
    endloop
  endfacet
  facet normal 0 1 -0
    outer loop
      vertex -2.37442 9.50395 0
      vertex -2.62558 9.50395 23
      vertex -2.37442 9.50395 23
    endloop
  endfacet
  facet normal 0 1 0
    outer loop
      vertex -2.62558 9.50395 23
      vertex -2.37442 9.50395 0
      vertex -2.62558 9.50395 0
    endloop
  endfacet
  facet normal -0.684541 0.728974 0
    outer loop
      vertex -1.04206 10.1309 0
      vertex -1.22515 9.95897 23
      vertex -1.04206 10.1309 23
    endloop
  endfacet
  facet normal -0.684541 0.728974 0
    outer loop
      vertex -1.22515 9.95897 23
      vertex -1.04206 10.1309 0
      vertex -1.22515 9.95897 0
    endloop
  endfacet
  facet normal -0.684477 -0.729034 0
    outer loop
      vertex -1.22515 13.041 0
      vertex -1.04206 12.8691 23
      vertex -1.22515 13.041 23
    endloop
  endfacet
  facet normal -0.684477 -0.729034 -0
    outer loop
      vertex -1.04206 12.8691 23
      vertex -1.22515 13.041 0
      vertex -1.04206 12.8691 0
    endloop
  endfacet
  facet normal 0.684477 -0.729034 0
    outer loop
      vertex -3.95794 12.8691 0
      vertex -3.77485 13.041 23
      vertex -3.95794 12.8691 23
    endloop
  endfacet
  facet normal 0.684477 -0.729034 0
    outer loop
      vertex -3.77485 13.041 23
      vertex -3.95794 12.8691 0
      vertex -3.77485 13.041 0
    endloop
  endfacet
  facet normal 0.367914 -0.92986 0
    outer loop
      vertex -3.35156 13.3097 0
      vertex -3.11803 13.4021 23
      vertex -3.35156 13.3097 23
    endloop
  endfacet
  facet normal 0.367914 -0.92986 0
    outer loop
      vertex -3.11803 13.4021 23
      vertex -3.35156 13.3097 0
      vertex -3.11803 13.4021 0
    endloop
  endfacet
  facet normal -0.904858 -0.425713 0
    outer loop
      vertex -0.640447 12.2362 0
      vertex -0.747386 12.4635 23
      vertex -0.747386 12.4635 0
    endloop
  endfacet
  facet normal -0.904858 -0.425713 0
    outer loop
      vertex -0.747386 12.4635 23
      vertex -0.640447 12.2362 0
      vertex -0.640447 12.2362 23
    endloop
  endfacet
  facet normal -0.982285 -0.187391 0
    outer loop
      vertex -0.51577 11.7507 0
      vertex -0.562833 11.9974 23
      vertex -0.562833 11.9974 0
    endloop
  endfacet
  facet normal -0.982285 -0.187391 0
    outer loop
      vertex -0.562833 11.9974 23
      vertex -0.51577 11.7507 0
      vertex -0.51577 11.7507 23
    endloop
  endfacet
  facet normal -0.367914 -0.92986 0
    outer loop
      vertex -1.88197 13.4021 0
      vertex -1.64844 13.3097 23
      vertex -1.88197 13.4021 23
    endloop
  endfacet
  facet normal -0.367914 -0.92986 -0
    outer loop
      vertex -1.64844 13.3097 23
      vertex -1.88197 13.4021 0
      vertex -1.64844 13.3097 0
    endloop
  endfacet
  facet normal -0.587959 -0.808891 0
    outer loop
      vertex -1.42835 13.1887 0
      vertex -1.22515 13.041 23
      vertex -1.42835 13.1887 23
    endloop
  endfacet
  facet normal -0.587959 -0.808891 -0
    outer loop
      vertex -1.22515 13.041 23
      vertex -1.42835 13.1887 0
      vertex -1.22515 13.041 0
    endloop
  endfacet
  facet normal 0.904857 -0.425717 0
    outer loop
      vertex -4.35955 12.2362 23
      vertex -4.25261 12.4635 0
      vertex -4.25261 12.4635 23
    endloop
  endfacet
  facet normal 0.904857 -0.425717 0
    outer loop
      vertex -4.25261 12.4635 0
      vertex -4.35955 12.2362 23
      vertex -4.35955 12.2362 0
    endloop
  endfacet
  facet normal 0.951022 -0.309122 0
    outer loop
      vertex -4.43717 11.9974 23
      vertex -4.35955 12.2362 0
      vertex -4.35955 12.2362 23
    endloop
  endfacet
  facet normal 0.951022 -0.309122 0
    outer loop
      vertex -4.35955 12.2362 0
      vertex -4.43717 11.9974 23
      vertex -4.43717 11.9974 0
    endloop
  endfacet
  facet normal 0.481767 -0.876299 0
    outer loop
      vertex -3.57165 13.1887 0
      vertex -3.35156 13.3097 23
      vertex -3.57165 13.1887 23
    endloop
  endfacet
  facet normal 0.481767 -0.876299 0
    outer loop
      vertex -3.35156 13.3097 23
      vertex -3.57165 13.1887 0
      vertex -3.35156 13.3097 0
    endloop
  endfacet
  facet normal 0.248835 -0.968546 0
    outer loop
      vertex -3.11803 13.4021 0
      vertex -2.87476 13.4646 23
      vertex -3.11803 13.4021 23
    endloop
  endfacet
  facet normal 0.248835 -0.968546 0
    outer loop
      vertex -2.87476 13.4646 23
      vertex -3.11803 13.4021 0
      vertex -2.87476 13.4646 0
    endloop
  endfacet
  facet normal -0.982285 0.187391 0
    outer loop
      vertex -0.562833 11.0026 0
      vertex -0.51577 11.2493 23
      vertex -0.51577 11.2493 0
    endloop
  endfacet
  facet normal -0.982285 0.187391 0
    outer loop
      vertex -0.51577 11.2493 23
      vertex -0.562833 11.0026 0
      vertex -0.562833 11.0026 23
    endloop
  endfacet
  facet normal -0.125338 0.992114 0
    outer loop
      vertex -2.12524 9.53543 0
      vertex -2.37442 9.50395 23
      vertex -2.12524 9.53543 23
    endloop
  endfacet
  facet normal -0.125338 0.992114 0
    outer loop
      vertex -2.37442 9.50395 23
      vertex -2.12524 9.53543 0
      vertex -2.37442 9.50395 0
    endloop
  endfacet
  facet normal -0.368121 0.929778 0
    outer loop
      vertex -1.64844 9.69035 0
      vertex -1.88197 9.59789 23
      vertex -1.64844 9.69035 23
    endloop
  endfacet
  facet normal -0.368121 0.929778 0
    outer loop
      vertex -1.88197 9.59789 23
      vertex -1.64844 9.69035 0
      vertex -1.88197 9.59789 0
    endloop
  endfacet
  facet normal -0.951029 -0.3091 0
    outer loop
      vertex -0.562833 11.9974 0
      vertex -0.640447 12.2362 23
      vertex -0.640447 12.2362 0
    endloop
  endfacet
  facet normal -0.951029 -0.3091 0
    outer loop
      vertex -0.640447 12.2362 23
      vertex -0.562833 11.9974 0
      vertex -0.562833 11.9974 23
    endloop
  endfacet
  facet normal -0.77048 -0.637464 0
    outer loop
      vertex -0.881966 12.6756 0
      vertex -1.04206 12.8691 23
      vertex -1.04206 12.8691 0
    endloop
  endfacet
  facet normal -0.77048 -0.637464 0
    outer loop
      vertex -1.04206 12.8691 23
      vertex -0.881966 12.6756 0
      vertex -0.881966 12.6756 23
    endloop
  endfacet
  facet normal -0.844369 -0.535762 0
    outer loop
      vertex -0.747386 12.4635 0
      vertex -0.881966 12.6756 23
      vertex -0.881966 12.6756 0
    endloop
  endfacet
  facet normal -0.844369 -0.535762 0
    outer loop
      vertex -0.881966 12.6756 23
      vertex -0.747386 12.4635 0
      vertex -0.747386 12.4635 23
    endloop
  endfacet
  facet normal -0.248835 -0.968546 0
    outer loop
      vertex -2.12524 13.4646 0
      vertex -1.88197 13.4021 23
      vertex -2.12524 13.4646 23
    endloop
  endfacet
  facet normal -0.248835 -0.968546 -0
    outer loop
      vertex -1.88197 13.4021 23
      vertex -2.12524 13.4646 0
      vertex -1.88197 13.4021 0
    endloop
  endfacet
  facet normal -0.125416 -0.992104 0
    outer loop
      vertex -2.37442 13.4961 0
      vertex -2.12524 13.4646 23
      vertex -2.37442 13.4961 23
    endloop
  endfacet
  facet normal -0.125416 -0.992104 -0
    outer loop
      vertex -2.12524 13.4646 23
      vertex -2.37442 13.4961 0
      vertex -2.12524 13.4646 0
    endloop
  endfacet
  facet normal -0.481767 -0.876299 0
    outer loop
      vertex -1.64844 13.3097 0
      vertex -1.42835 13.1887 23
      vertex -1.64844 13.3097 23
    endloop
  endfacet
  facet normal -0.481767 -0.876299 -0
    outer loop
      vertex -1.42835 13.1887 23
      vertex -1.64844 13.3097 0
      vertex -1.42835 13.1887 0
    endloop
  endfacet
  facet normal 0.844369 -0.535762 0
    outer loop
      vertex -4.25261 12.4635 23
      vertex -4.11803 12.6756 0
      vertex -4.11803 12.6756 23
    endloop
  endfacet
  facet normal 0.844369 -0.535762 0
    outer loop
      vertex -4.11803 12.6756 0
      vertex -4.25261 12.4635 23
      vertex -4.25261 12.4635 0
    endloop
  endfacet
  facet normal 0.770488 -0.637454 0
    outer loop
      vertex -4.11803 12.6756 23
      vertex -3.95794 12.8691 0
      vertex -3.95794 12.8691 23
    endloop
  endfacet
  facet normal 0.770488 -0.637454 0
    outer loop
      vertex -3.95794 12.8691 0
      vertex -4.11803 12.6756 23
      vertex -4.11803 12.6756 0
    endloop
  endfacet
  facet normal 0.982288 -0.187379 0
    outer loop
      vertex -4.48423 11.7507 23
      vertex -4.43717 11.9974 0
      vertex -4.43717 11.9974 23
    endloop
  endfacet
  facet normal 0.982288 -0.187379 0
    outer loop
      vertex -4.43717 11.9974 0
      vertex -4.48423 11.7507 23
      vertex -4.48423 11.7507 0
    endloop
  endfacet
  facet normal 0.587959 -0.808891 0
    outer loop
      vertex -3.77485 13.041 0
      vertex -3.57165 13.1887 23
      vertex -3.77485 13.041 23
    endloop
  endfacet
  facet normal 0.587959 -0.808891 0
    outer loop
      vertex -3.57165 13.1887 23
      vertex -3.77485 13.041 0
      vertex -3.57165 13.1887 0
    endloop
  endfacet
  facet normal 0.125416 -0.992104 0
    outer loop
      vertex -2.87476 13.4646 0
      vertex -2.62558 13.4961 23
      vertex -2.87476 13.4646 23
    endloop
  endfacet
  facet normal 0.125416 -0.992104 0
    outer loop
      vertex -2.62558 13.4961 23
      vertex -2.87476 13.4646 0
      vertex -2.62558 13.4961 0
    endloop
  endfacet
  facet normal -0.998027 0.0627798 0
    outer loop
      vertex -0.51577 11.2493 0
      vertex -0.5 11.5 23
      vertex -0.5 11.5 0
    endloop
  endfacet
  facet normal -0.998027 0.0627798 0
    outer loop
      vertex -0.5 11.5 23
      vertex -0.51577 11.2493 0
      vertex -0.51577 11.2493 23
    endloop
  endfacet
  facet normal 0.684541 0.728974 -0
    outer loop
      vertex -3.77485 9.95897 0
      vertex -3.95794 10.1309 23
      vertex -3.77485 9.95897 23
    endloop
  endfacet
  facet normal 0.684541 0.728974 0
    outer loop
      vertex -3.95794 10.1309 23
      vertex -3.77485 9.95897 0
      vertex -3.95794 10.1309 0
    endloop
  endfacet
  facet normal 0.904857 0.425717 0
    outer loop
      vertex -4.25261 10.5365 23
      vertex -4.35955 10.7638 0
      vertex -4.35955 10.7638 23
    endloop
  endfacet
  facet normal 0.904857 0.425717 0
    outer loop
      vertex -4.35955 10.7638 0
      vertex -4.25261 10.5365 23
      vertex -4.25261 10.5365 0
    endloop
  endfacet
  facet normal 0.844369 0.535762 0
    outer loop
      vertex -4.11803 10.3244 23
      vertex -4.25261 10.5365 0
      vertex -4.25261 10.5365 23
    endloop
  endfacet
  facet normal 0.844369 0.535762 0
    outer loop
      vertex -4.25261 10.5365 0
      vertex -4.11803 10.3244 23
      vertex -4.11803 10.3244 0
    endloop
  endfacet
  facet normal -0.481737 0.876316 0
    outer loop
      vertex -1.42835 9.81134 0
      vertex -1.64844 9.69035 23
      vertex -1.42835 9.81134 23
    endloop
  endfacet
  facet normal -0.481737 0.876316 0
    outer loop
      vertex -1.64844 9.69035 23
      vertex -1.42835 9.81134 0
      vertex -1.64844 9.69035 0
    endloop
  endfacet
  facet normal -0.77048 0.637464 0
    outer loop
      vertex -1.04206 10.1309 0
      vertex -0.881966 10.3244 23
      vertex -0.881966 10.3244 0
    endloop
  endfacet
  facet normal -0.77048 0.637464 0
    outer loop
      vertex -0.881966 10.3244 23
      vertex -1.04206 10.1309 0
      vertex -1.04206 10.1309 23
    endloop
  endfacet
  facet normal -0.904858 0.425713 0
    outer loop
      vertex -0.747386 10.5365 0
      vertex -0.640447 10.7638 23
      vertex -0.640447 10.7638 0
    endloop
  endfacet
  facet normal -0.904858 0.425713 0
    outer loop
      vertex -0.640447 10.7638 23
      vertex -0.747386 10.5365 0
      vertex -0.747386 10.5365 23
    endloop
  endfacet
  facet normal 0.770488 0.637454 0
    outer loop
      vertex -3.95794 10.1309 23
      vertex -4.11803 10.3244 0
      vertex -4.11803 10.3244 23
    endloop
  endfacet
  facet normal 0.770488 0.637454 0
    outer loop
      vertex -4.11803 10.3244 0
      vertex -3.95794 10.1309 23
      vertex -3.95794 10.1309 0
    endloop
  endfacet
  facet normal 0.951022 0.309122 0
    outer loop
      vertex -4.35955 10.7638 23
      vertex -4.43717 11.0026 0
      vertex -4.43717 11.0026 23
    endloop
  endfacet
  facet normal 0.951022 0.309122 0
    outer loop
      vertex -4.43717 11.0026 0
      vertex -4.35955 10.7638 23
      vertex -4.35955 10.7638 0
    endloop
  endfacet
  facet normal -0.587776 0.809024 0
    outer loop
      vertex -1.22515 9.95897 0
      vertex -1.42835 9.81134 23
      vertex -1.22515 9.95897 23
    endloop
  endfacet
  facet normal -0.587776 0.809024 0
    outer loop
      vertex -1.42835 9.81134 23
      vertex -1.22515 9.95897 0
      vertex -1.42835 9.81134 0
    endloop
  endfacet
  facet normal -0.248686 0.968584 0
    outer loop
      vertex -1.88197 9.59789 0
      vertex -2.12524 9.53543 23
      vertex -1.88197 9.59789 23
    endloop
  endfacet
  facet normal -0.248686 0.968584 0
    outer loop
      vertex -2.12524 9.53543 23
      vertex -1.88197 9.59789 0
      vertex -2.12524 9.53543 0
    endloop
  endfacet
  facet normal -0.844369 0.535762 0
    outer loop
      vertex -0.881966 10.3244 0
      vertex -0.747386 10.5365 23
      vertex -0.747386 10.5365 0
    endloop
  endfacet
  facet normal -0.844369 0.535762 0
    outer loop
      vertex -0.747386 10.5365 23
      vertex -0.881966 10.3244 0
      vertex -0.881966 10.3244 23
    endloop
  endfacet
  facet normal -0.951029 0.3091 0
    outer loop
      vertex -0.640447 10.7638 0
      vertex -0.562833 11.0026 23
      vertex -0.562833 11.0026 0
    endloop
  endfacet
  facet normal -0.951029 0.3091 0
    outer loop
      vertex -0.562833 11.0026 23
      vertex -0.640447 10.7638 0
      vertex -0.640447 10.7638 23
    endloop
  endfacet
  facet normal 0.368121 0.929778 -0
    outer loop
      vertex -3.11803 9.59789 0
      vertex -3.35156 9.69035 23
      vertex -3.11803 9.59789 23
    endloop
  endfacet
  facet normal 0.368121 0.929778 0
    outer loop
      vertex -3.35156 9.69035 23
      vertex -3.11803 9.59789 0
      vertex -3.35156 9.69035 0
    endloop
  endfacet
  facet normal 0.248686 0.968584 -0
    outer loop
      vertex -2.87476 9.53543 0
      vertex -3.11803 9.59789 23
      vertex -2.87476 9.53543 23
    endloop
  endfacet
  facet normal 0.248686 0.968584 0
    outer loop
      vertex -3.11803 9.59789 23
      vertex -2.87476 9.53543 0
      vertex -3.11803 9.59789 0
    endloop
  endfacet
  facet normal 0.982288 0.187379 0
    outer loop
      vertex -4.43717 11.0026 23
      vertex -4.48423 11.2493 0
      vertex -4.48423 11.2493 23
    endloop
  endfacet
  facet normal 0.982288 0.187379 0
    outer loop
      vertex -4.48423 11.2493 0
      vertex -4.43717 11.0026 23
      vertex -4.43717 11.0026 0
    endloop
  endfacet
  facet normal 0.998027 0.0627798 0
    outer loop
      vertex -4.48423 11.2493 23
      vertex -4.5 11.5 0
      vertex -4.5 11.5 23
    endloop
  endfacet
  facet normal 0.998027 0.0627798 0
    outer loop
      vertex -4.5 11.5 0
      vertex -4.48423 11.2493 23
      vertex -4.48423 11.2493 0
    endloop
  endfacet
  facet normal 0.481737 0.876316 -0
    outer loop
      vertex -3.35156 9.69035 0
      vertex -3.57165 9.81134 23
      vertex -3.35156 9.69035 23
    endloop
  endfacet
  facet normal 0.481737 0.876316 0
    outer loop
      vertex -3.57165 9.81134 23
      vertex -3.35156 9.69035 0
      vertex -3.57165 9.81134 0
    endloop
  endfacet
  facet normal 0.125338 0.992114 -0
    outer loop
      vertex -2.62558 9.50395 0
      vertex -2.87476 9.53543 23
      vertex -2.62558 9.50395 23
    endloop
  endfacet
  facet normal 0.125338 0.992114 0
    outer loop
      vertex -2.87476 9.53543 23
      vertex -2.62558 9.50395 0
      vertex -2.87476 9.53543 0
    endloop
  endfacet
  facet normal 0.587776 0.809024 -0
    outer loop
      vertex -3.57165 9.81134 0
      vertex -3.77485 9.95897 23
      vertex -3.57165 9.81134 23
    endloop
  endfacet
  facet normal 0.587776 0.809024 0
    outer loop
      vertex -3.77485 9.95897 23
      vertex -3.57165 9.81134 0
      vertex -3.77485 9.95897 0
    endloop
  endfacet
endsolid OpenSCAD_Model
