solid OpenSCAD_Model
  facet normal 0.9919 0.127021 0
    outer loop
      vertex 5.98559 11.3392 3
      vertex 5.94246 11.676 0
      vertex 5.94246 11.676 3
    endloop
  endfacet
  facet normal 0.9919 0.127021 0
    outer loop
      vertex 5.94246 11.676 0
      vertex 5.98559 11.3392 3
      vertex 5.98559 11.3392 0
    endloop
  endfacet
  facet normal 0 1 -0
    outer loop
      vertex 2.16976 14.9964 0
      vertex -3.16976 14.9964 3
      vertex 2.16976 14.9964 3
    endloop
  endfacet
  facet normal 0 1 0
    outer loop
      vertex -3.16976 14.9964 3
      vertex 2.16976 14.9964 0
      vertex -3.16976 14.9964 0
    endloop
  endfacet
  facet normal 0.750676 -0.66067 0
    outer loop
      vertex 4.88782 8.23224 3
      vertex 5.11214 8.48712 0
      vertex 5.11214 8.48712 3
    endloop
  endfacet
  facet normal 0.750676 -0.66067 0
    outer loop
      vertex 5.11214 8.48712 0
      vertex 4.88782 8.23224 3
      vertex 4.88782 8.23224 0
    endloop
  endfacet
  facet normal 0.412027 0.911172 -0
    outer loop
      vertex 3.80081 14.5717 0
      vertex 3.49143 14.7116 3
      vertex 3.80081 14.5717 3
    endloop
  endfacet
  facet normal 0.412027 0.911172 0
    outer loop
      vertex 3.49143 14.7116 3
      vertex 3.80081 14.5717 0
      vertex 3.49143 14.7116 0
    endloop
  endfacet
  facet normal -0.750702 0.660641 0
    outer loop
      vertex -6.11214 13.5129 0
      vertex -5.88782 13.7678 3
      vertex -5.88782 13.7678 0
    endloop
  endfacet
  facet normal -0.750702 0.660641 0
    outer loop
      vertex -5.88782 13.7678 3
      vertex -6.11214 13.5129 0
      vertex -6.11214 13.5129 3
    endloop
  endfacet
  facet normal 0 -1 0
    outer loop
      vertex -3.16976 7.0036 0
      vertex 2.16976 7.0036 3
      vertex -3.16976 7.0036 3
    endloop
  endfacet
  facet normal 0 -1 -0
    outer loop
      vertex 2.16976 7.0036 3
      vertex -3.16976 7.0036 0
      vertex 2.16976 7.0036 0
    endloop
  endfacet
  facet normal 0.851511 0.524337 0
    outer loop
      vertex 5.49206 12.9508 3
      vertex 5.31404 13.2399 0
      vertex 5.31404 13.2399 3
    endloop
  endfacet
  facet normal 0.851511 0.524337 0
    outer loop
      vertex 5.31404 13.2399 0
      vertex 5.49206 12.9508 3
      vertex 5.49206 12.9508 0
    endloop
  endfacet
  facet normal -0.956182 0.292774 0
    outer loop
      vertex -6.87093 12.0079 0
      vertex -6.77151 12.3326 3
      vertex -6.77151 12.3326 0
    endloop
  endfacet
  facet normal -0.956182 0.292774 0
    outer loop
      vertex -6.77151 12.3326 3
      vertex -6.87093 12.0079 0
      vertex -6.87093 12.0079 3
    endloop
  endfacet
  facet normal 0.0848222 0.996396 -0
    outer loop
      vertex 2.50807 14.9676 0
      vertex 2.16976 14.9964 3
      vertex 2.50807 14.9676 3
    endloop
  endfacet
  facet normal 0.0848222 0.996396 0
    outer loop
      vertex 2.16976 14.9964 3
      vertex 2.50807 14.9676 0
      vertex 2.16976 14.9964 0
    endloop
  endfacet
  facet normal 0.251832 0.967771 -0
    outer loop
      vertex 3.17129 14.8247 0
      vertex 2.84272 14.9102 3
      vertex 3.17129 14.8247 3
    endloop
  endfacet
  facet normal 0.251832 0.967771 0
    outer loop
      vertex 2.84272 14.9102 3
      vertex 3.17129 14.8247 0
      vertex 2.84272 14.9102 0
    endloop
  endfacet
  facet normal -0.412027 0.911172 0
    outer loop
      vertex -4.49143 14.7116 0
      vertex -4.80081 14.5717 3
      vertex -4.49143 14.7116 3
    endloop
  endfacet
  facet normal -0.412027 0.911172 0
    outer loop
      vertex -4.80081 14.5717 3
      vertex -4.49143 14.7116 0
      vertex -4.80081 14.5717 0
    endloop
  endfacet
  facet normal -0.333133 -0.94288 0
    outer loop
      vertex -4.49143 7.28844 0
      vertex -4.17129 7.17533 3
      vertex -4.49143 7.28844 3
    endloop
  endfacet
  facet normal -0.333133 -0.94288 -0
    outer loop
      vertex -4.17129 7.17533 3
      vertex -4.49143 7.28844 0
      vertex -4.17129 7.17533 0
    endloop
  endfacet
  facet normal -0.168997 -0.985617 0
    outer loop
      vertex -3.84272 7.08978 0
      vertex -3.50807 7.0324 3
      vertex -3.84272 7.08978 3
    endloop
  endfacet
  facet normal -0.168997 -0.985617 -0
    outer loop
      vertex -3.50807 7.0324 3
      vertex -3.84272 7.08978 0
      vertex -3.50807 7.0324 0
    endloop
  endfacet
  facet normal -0.559984 -0.828504 0
    outer loop
      vertex -5.37853 7.78401 0
      vertex -5.09723 7.59388 3
      vertex -5.37853 7.78401 3
    endloop
  endfacet
  facet normal -0.559984 -0.828504 -0
    outer loop
      vertex -5.09723 7.59388 3
      vertex -5.37853 7.78401 0
      vertex -5.09723 7.59388 0
    endloop
  endfacet
  facet normal -0.927886 -0.372863 0
    outer loop
      vertex -6.64491 9.35239 0
      vertex -6.77151 9.66744 3
      vertex -6.77151 9.66744 0
    endloop
  endfacet
  facet normal -0.927886 -0.372863 0
    outer loop
      vertex -6.77151 9.66744 3
      vertex -6.64491 9.35239 0
      vertex -6.64491 9.35239 3
    endloop
  endfacet
  facet normal 0.80399 -0.594643 0
    outer loop
      vertex 5.11214 8.48712 3
      vertex 5.31404 8.7601 0
      vertex 5.31404 8.7601 3
    endloop
  endfacet
  facet normal 0.80399 -0.594643 0
    outer loop
      vertex 5.31404 8.7601 0
      vertex 5.11214 8.48712 3
      vertex 5.11214 8.48712 0
    endloop
  endfacet
  facet normal 0.999099 0.042444 0
    outer loop
      vertex 6 11 3
      vertex 5.98559 11.3392 0
      vertex 5.98559 11.3392 3
    endloop
  endfacet
  facet normal 0.999099 0.042444 0
    outer loop
      vertex 5.98559 11.3392 0
      vertex 6 11 3
      vertex 6 11 0
    endloop
  endfacet
  facet normal 0.956182 0.292774 0
    outer loop
      vertex 5.87093 12.0079 3
      vertex 5.77151 12.3326 0
      vertex 5.77151 12.3326 3
    endloop
  endfacet
  facet normal 0.956182 0.292774 0
    outer loop
      vertex 5.77151 12.3326 0
      vertex 5.87093 12.0079 3
      vertex 5.87093 12.0079 0
    endloop
  endfacet
  facet normal -0.9919 0.127021 0
    outer loop
      vertex -6.98559 11.3392 0
      vertex -6.94246 11.676 3
      vertex -6.94246 11.676 0
    endloop
  endfacet
  facet normal -0.9919 0.127021 0
    outer loop
      vertex -6.94246 11.676 3
      vertex -6.98559 11.3392 0
      vertex -6.98559 11.3392 3
    endloop
  endfacet
  facet normal 0 0 -1
    outer loop
      vertex -1 11 0
      vertex 6 11 0
      vertex 5.98559 10.6608 0
    endloop
  endfacet
  facet normal 0 0 -1
    outer loop
      vertex -1 11 0
      vertex 5.98559 10.6608 0
      vertex 5.94246 10.324 0
    endloop
  endfacet
  facet normal 0 0 -1
    outer loop
      vertex 6 11 0
      vertex -1 11 0
      vertex 5.98559 11.3392 0
    endloop
  endfacet
  facet normal 0 0 -1
    outer loop
      vertex -1 11 0
      vertex 5.94246 10.324 0
      vertex 5.87093 9.99209 0
    endloop
  endfacet
  facet normal -0 0 -1
    outer loop
      vertex 5.98559 11.3392 0
      vertex -1 11 0
      vertex 5.94246 11.676 0
    endloop
  endfacet
  facet normal 0 0 -1
    outer loop
      vertex -1 11 0
      vertex 5.87093 9.99209 0
      vertex 5.77151 9.66744 0
    endloop
  endfacet
  facet normal -0 0 -1
    outer loop
      vertex 5.94246 11.676 0
      vertex -1 11 0
      vertex 5.87093 12.0079 0
    endloop
  endfacet
  facet normal 0 0 -1
    outer loop
      vertex -1 11 0
      vertex 5.77151 9.66744 0
      vertex 5.64491 9.35239 0
    endloop
  endfacet
  facet normal -0 0 -1
    outer loop
      vertex 5.87093 12.0079 0
      vertex -1 11 0
      vertex 5.77151 12.3326 0
    endloop
  endfacet
  facet normal 0 0 -1
    outer loop
      vertex -1 11 0
      vertex 5.64491 9.35239 0
      vertex 5.49206 9.04922 0
    endloop
  endfacet
  facet normal -0 0 -1
    outer loop
      vertex 5.77151 12.3326 0
      vertex -1 11 0
      vertex 5.64491 12.6476 0
    endloop
  endfacet
  facet normal 0 0 -1
    outer loop
      vertex -1.00721 10.8304 0
      vertex 5.49206 9.04922 0
      vertex 5.31404 8.7601 0
    endloop
  endfacet
  facet normal -0 0 -1
    outer loop
      vertex 5.64491 12.6476 0
      vertex -1 11 0
      vertex 5.49206 12.9508 0
    endloop
  endfacet
  facet normal 0 0 -1
    outer loop
      vertex -1.00721 10.8304 0
      vertex 5.31404 8.7601 0
      vertex 5.11214 8.48712 0
    endloop
  endfacet
  facet normal 0 0 -1
    outer loop
      vertex -1.00721 11.1696 0
      vertex 5.49206 12.9508 0
      vertex -1 11 0
    endloop
  endfacet
  facet normal 0 0 -1
    outer loop
      vertex -1.00721 10.8304 0
      vertex 5.11214 8.48712 0
      vertex 4.88782 8.23224 0
    endloop
  endfacet
  facet normal -0 0 -1
    outer loop
      vertex 5.49206 12.9508 0
      vertex -1.00721 11.1696 0
      vertex 5.31404 13.2399 0
    endloop
  endfacet
  facet normal 0 0 -1
    outer loop
      vertex -1.00721 10.8304 0
      vertex 4.88782 8.23224 0
      vertex 4.6427 7.99731 0
    endloop
  endfacet
  facet normal -0 0 -1
    outer loop
      vertex 5.31404 13.2399 0
      vertex -1.00721 11.1696 0
      vertex 5.11214 13.5129 0
    endloop
  endfacet
  facet normal 0 0 -1
    outer loop
      vertex -1.00721 10.8304 0
      vertex 4.6427 7.99731 0
      vertex 4.37853 7.78401 0
    endloop
  endfacet
  facet normal -0 0 -1
    outer loop
      vertex 5.11214 13.5129 0
      vertex -1.00721 11.1696 0
      vertex 4.88782 13.7678 0
    endloop
  endfacet
  facet normal 0 0 -1
    outer loop
      vertex -1.00721 10.8304 0
      vertex 4.37853 7.78401 0
      vertex 4.09723 7.59388 0
    endloop
  endfacet
  facet normal -0 0 -1
    outer loop
      vertex 4.88782 13.7678 0
      vertex -1.00721 11.1696 0
      vertex 4.6427 14.0027 0
    endloop
  endfacet
  facet normal 0 0 -1
    outer loop
      vertex -1.00721 10.8304 0
      vertex 4.09723 7.59388 0
      vertex 3.80081 7.4283 0
    endloop
  endfacet
  facet normal -0 0 -1
    outer loop
      vertex 4.6427 14.0027 0
      vertex -1.00721 11.1696 0
      vertex 4.37853 14.216 0
    endloop
  endfacet
  facet normal 0 0 -1
    outer loop
      vertex -1.00721 10.8304 0
      vertex 3.80081 7.4283 0
      vertex 3.49143 7.28844 0
    endloop
  endfacet
  facet normal -0 0 -1
    outer loop
      vertex 4.37853 14.216 0
      vertex -1.00721 11.1696 0
      vertex 4.09723 14.4061 0
    endloop
  endfacet
  facet normal 0 0 -1
    outer loop
      vertex -1.00721 10.8304 0
      vertex 3.49143 7.28844 0
      vertex 3.17129 7.17533 0
    endloop
  endfacet
  facet normal -0 0 -1
    outer loop
      vertex 4.09723 14.4061 0
      vertex -1.00721 11.1696 0
      vertex 3.80081 14.5717 0
    endloop
  endfacet
  facet normal 0 0 -1
    outer loop
      vertex -1.02877 10.662 0
      vertex 3.17129 7.17533 0
      vertex 2.84272 7.08978 0
    endloop
  endfacet
  facet normal -0 0 -1
    outer loop
      vertex 3.80081 14.5717 0
      vertex -1.00721 11.1696 0
      vertex 3.49143 14.7116 0
    endloop
  endfacet
  facet normal 0 0 -1
    outer loop
      vertex -1.02877 10.662 0
      vertex 2.84272 7.08978 0
      vertex 2.50807 7.0324 0
    endloop
  endfacet
  facet normal -0 0 -1
    outer loop
      vertex 3.49143 14.7116 0
      vertex -1.00721 11.1696 0
      vertex 3.17129 14.8247 0
    endloop
  endfacet
  facet normal 0 0 -1
    outer loop
      vertex -1.02877 10.662 0
      vertex 2.50807 7.0324 0
      vertex 2.16976 7.0036 0
    endloop
  endfacet
  facet normal 0 0 -1
    outer loop
      vertex -1.02877 11.338 0
      vertex 3.17129 14.8247 0
      vertex -1.00721 11.1696 0
    endloop
  endfacet
  facet normal -0 0 -1
    outer loop
      vertex 3.17129 14.8247 0
      vertex -1.02877 11.338 0
      vertex 2.84272 14.9102 0
    endloop
  endfacet
  facet normal 0 0 -1
    outer loop
      vertex 5.49206 9.04922 0
      vertex -1.00721 10.8304 0
      vertex -1 11 0
    endloop
  endfacet
  facet normal 0 0 -1
    outer loop
      vertex 3.17129 7.17533 0
      vertex -1.02877 10.662 0
      vertex -1.00721 10.8304 0
    endloop
  endfacet
  facet normal 0 0 -1
    outer loop
      vertex 2.16976 7.0036 0
      vertex -1.06453 10.496 0
      vertex -1.02877 10.662 0
    endloop
  endfacet
  facet normal 0 0 -1
    outer loop
      vertex 2.16976 7.0036 0
      vertex -1.11424 10.3337 0
      vertex -1.06453 10.496 0
    endloop
  endfacet
  facet normal 0 0 -1
    outer loop
      vertex 2.16976 7.0036 0
      vertex -1.17754 10.1762 0
      vertex -1.11424 10.3337 0
    endloop
  endfacet
  facet normal 0 0 -1
    outer loop
      vertex 2.16976 7.0036 0
      vertex -1.25397 10.0246 0
      vertex -1.17754 10.1762 0
    endloop
  endfacet
  facet normal 0 0 -1
    outer loop
      vertex 2.16976 7.0036 0
      vertex -1.34298 9.88005 0
      vertex -1.25397 10.0246 0
    endloop
  endfacet
  facet normal 0 0 -1
    outer loop
      vertex 2.16976 7.0036 0
      vertex -1.44393 9.74356 0
      vertex -1.34298 9.88005 0
    endloop
  endfacet
  facet normal 0 0 -1
    outer loop
      vertex 2.16976 7.0036 0
      vertex -1.55609 9.61612 0
      vertex -1.44393 9.74356 0
    endloop
  endfacet
  facet normal 0 0 -1
    outer loop
      vertex 2.16976 7.0036 0
      vertex -1.67865 9.49866 0
      vertex -1.55609 9.61612 0
    endloop
  endfacet
  facet normal 0 0 -1
    outer loop
      vertex 2.16976 7.0036 0
      vertex -1.81073 9.392 0
      vertex -1.67865 9.49866 0
    endloop
  endfacet
  facet normal 0 0 -1
    outer loop
      vertex 2.16976 7.0036 0
      vertex -1.95138 9.29694 0
      vertex -1.81073 9.392 0
    endloop
  endfacet
  facet normal 0 0 -1
    outer loop
      vertex -3.16976 7.0036 0
      vertex -1.95138 9.29694 0
      vertex 2.16976 7.0036 0
    endloop
  endfacet
  facet normal 0 0 -1
    outer loop
      vertex -1.95138 9.29694 0
      vertex -3.16976 7.0036 0
      vertex -2.09959 9.21415 0
    endloop
  endfacet
  facet normal 0 0 -1
    outer loop
      vertex -2.09959 9.21415 0
      vertex -3.16976 7.0036 0
      vertex -2.25429 9.14422 0
    endloop
  endfacet
  facet normal 0 0 -1
    outer loop
      vertex -2.25429 9.14422 0
      vertex -3.16976 7.0036 0
      vertex -2.41435 9.08767 0
    endloop
  endfacet
  facet normal 0 0 -1
    outer loop
      vertex -2.41435 9.08767 0
      vertex -3.16976 7.0036 0
      vertex -2.57864 9.04489 0
    endloop
  endfacet
  facet normal 0 0 -1
    outer loop
      vertex -2.57864 9.04489 0
      vertex -3.16976 7.0036 0
      vertex -2.74596 9.0162 0
    endloop
  endfacet
  facet normal 0 0 -1
    outer loop
      vertex -2.74596 9.0162 0
      vertex -3.16976 7.0036 0
      vertex -2.91512 9.0018 0
    endloop
  endfacet
  facet normal -0 0 -1
    outer loop
      vertex -2.91512 9.0018 0
      vertex -3.16976 7.0036 0
      vertex -3.08488 9.0018 0
    endloop
  endfacet
  facet normal 0 0 -1
    outer loop
      vertex -3.16976 7.0036 0
      vertex -3.25403 9.0162 0
      vertex -3.08488 9.0018 0
    endloop
  endfacet
  facet normal 0 0 -1
    outer loop
      vertex -3.50807 7.0324 0
      vertex -3.25403 9.0162 0
      vertex -3.16976 7.0036 0
    endloop
  endfacet
  facet normal -0 0 -1
    outer loop
      vertex -3.25403 9.0162 0
      vertex -3.50807 7.0324 0
      vertex -3.42136 9.04489 0
    endloop
  endfacet
  facet normal 0 0 -1
    outer loop
      vertex -3.84272 7.08978 0
      vertex -3.42136 9.04489 0
      vertex -3.50807 7.0324 0
    endloop
  endfacet
  facet normal -0 0 -1
    outer loop
      vertex -3.42136 9.04489 0
      vertex -3.84272 7.08978 0
      vertex -3.58564 9.08767 0
    endloop
  endfacet
  facet normal 0 0 -1
    outer loop
      vertex -4.17129 7.17533 0
      vertex -3.58564 9.08767 0
      vertex -3.84272 7.08978 0
    endloop
  endfacet
  facet normal -0 0 -1
    outer loop
      vertex -3.58564 9.08767 0
      vertex -4.17129 7.17533 0
      vertex -3.74571 9.14422 0
    endloop
  endfacet
  facet normal 0 0 -1
    outer loop
      vertex -4.49143 7.28844 0
      vertex -3.74571 9.14422 0
      vertex -4.17129 7.17533 0
    endloop
  endfacet
  facet normal -0 0 -1
    outer loop
      vertex -3.74571 9.14422 0
      vertex -4.49143 7.28844 0
      vertex -3.90041 9.21415 0
    endloop
  endfacet
  facet normal 0 0 -1
    outer loop
      vertex -4.80081 7.4283 0
      vertex -3.90041 9.21415 0
      vertex -4.49143 7.28844 0
    endloop
  endfacet
  facet normal -0 0 -1
    outer loop
      vertex -3.90041 9.21415 0
      vertex -4.80081 7.4283 0
      vertex -4.04861 9.29694 0
    endloop
  endfacet
  facet normal 0 0 -1
    outer loop
      vertex -5.09723 7.59388 0
      vertex -4.04861 9.29694 0
      vertex -4.80081 7.4283 0
    endloop
  endfacet
  facet normal -0 0 -1
    outer loop
      vertex -4.04861 9.29694 0
      vertex -5.09723 7.59388 0
      vertex -4.18927 9.392 0
    endloop
  endfacet
  facet normal 0 0 -1
    outer loop
      vertex -5.37853 7.78401 0
      vertex -4.18927 9.392 0
      vertex -5.09723 7.59388 0
    endloop
  endfacet
  facet normal -0 0 -1
    outer loop
      vertex -4.18927 9.392 0
      vertex -5.37853 7.78401 0
      vertex -4.32135 9.49866 0
    endloop
  endfacet
  facet normal 0 0 -1
    outer loop
      vertex -5.6427 7.99731 0
      vertex -4.32135 9.49866 0
      vertex -5.37853 7.78401 0
    endloop
  endfacet
  facet normal -0 0 -1
    outer loop
      vertex -4.32135 9.49866 0
      vertex -5.6427 7.99731 0
      vertex -4.44391 9.61612 0
    endloop
  endfacet
  facet normal 0 0 -1
    outer loop
      vertex -5.88782 8.23224 0
      vertex -4.44391 9.61612 0
      vertex -5.6427 7.99731 0
    endloop
  endfacet
  facet normal -0 0 -1
    outer loop
      vertex -4.44391 9.61612 0
      vertex -5.88782 8.23224 0
      vertex -4.55607 9.74356 0
    endloop
  endfacet
  facet normal 0 0 -1
    outer loop
      vertex -6.11214 8.48712 0
      vertex -4.55607 9.74356 0
      vertex -5.88782 8.23224 0
    endloop
  endfacet
  facet normal -0 0 -1
    outer loop
      vertex -4.55607 9.74356 0
      vertex -6.11214 8.48712 0
      vertex -4.65702 9.88005 0
    endloop
  endfacet
  facet normal 0 0 -1
    outer loop
      vertex -6.31404 8.7601 0
      vertex -4.65702 9.88005 0
      vertex -6.11214 8.48712 0
    endloop
  endfacet
  facet normal 0 0 -1
    outer loop
      vertex -6.49206 9.04922 0
      vertex -4.74603 10.0246 0
      vertex -6.31404 8.7601 0
    endloop
  endfacet
  facet normal -0 0 -1
    outer loop
      vertex -4.65702 9.88005 0
      vertex -6.31404 8.7601 0
      vertex -4.74603 10.0246 0
    endloop
  endfacet
  facet normal -0 0 -1
    outer loop
      vertex 2.84272 14.9102 0
      vertex -1.02877 11.338 0
      vertex 2.50807 14.9676 0
    endloop
  endfacet
  facet normal -0 0 -1
    outer loop
      vertex 2.50807 14.9676 0
      vertex -1.02877 11.338 0
      vertex 2.16976 14.9964 0
    endloop
  endfacet
  facet normal 0 0 -1
    outer loop
      vertex -1.06453 11.504 0
      vertex 2.16976 14.9964 0
      vertex -1.02877 11.338 0
    endloop
  endfacet
  facet normal 0 0 -1
    outer loop
      vertex -1.11424 11.6663 0
      vertex 2.16976 14.9964 0
      vertex -1.06453 11.504 0
    endloop
  endfacet
  facet normal 0 0 -1
    outer loop
      vertex -1.17754 11.8238 0
      vertex 2.16976 14.9964 0
      vertex -1.11424 11.6663 0
    endloop
  endfacet
  facet normal 0 0 -1
    outer loop
      vertex -1.25397 11.9754 0
      vertex 2.16976 14.9964 0
      vertex -1.17754 11.8238 0
    endloop
  endfacet
  facet normal 0 0 -1
    outer loop
      vertex -1.34298 12.1199 0
      vertex 2.16976 14.9964 0
      vertex -1.25397 11.9754 0
    endloop
  endfacet
  facet normal 0 0 -1
    outer loop
      vertex -1.44393 12.2564 0
      vertex 2.16976 14.9964 0
      vertex -1.34298 12.1199 0
    endloop
  endfacet
  facet normal 0 0 -1
    outer loop
      vertex -1.55609 12.3839 0
      vertex 2.16976 14.9964 0
      vertex -1.44393 12.2564 0
    endloop
  endfacet
  facet normal 0 0 -1
    outer loop
      vertex -1.67865 12.5013 0
      vertex 2.16976 14.9964 0
      vertex -1.55609 12.3839 0
    endloop
  endfacet
  facet normal 0 0 -1
    outer loop
      vertex -1.81073 12.608 0
      vertex 2.16976 14.9964 0
      vertex -1.67865 12.5013 0
    endloop
  endfacet
  facet normal 0 0 -1
    outer loop
      vertex -1.95138 12.7031 0
      vertex 2.16976 14.9964 0
      vertex -1.81073 12.608 0
    endloop
  endfacet
  facet normal 0 0 -1
    outer loop
      vertex -3.16976 14.9964 0
      vertex -1.95138 12.7031 0
      vertex -2.09959 12.7859 0
    endloop
  endfacet
  facet normal 0 0 -1
    outer loop
      vertex -3.16976 14.9964 0
      vertex -2.09959 12.7859 0
      vertex -2.25429 12.8558 0
    endloop
  endfacet
  facet normal 0 0 -1
    outer loop
      vertex -3.16976 14.9964 0
      vertex -2.25429 12.8558 0
      vertex -2.41435 12.9123 0
    endloop
  endfacet
  facet normal 0 0 -1
    outer loop
      vertex -3.16976 14.9964 0
      vertex -2.41435 12.9123 0
      vertex -2.57864 12.9551 0
    endloop
  endfacet
  facet normal 0 0 -1
    outer loop
      vertex -3.16976 14.9964 0
      vertex -2.57864 12.9551 0
      vertex -2.74596 12.9838 0
    endloop
  endfacet
  facet normal 0 0 -1
    outer loop
      vertex -3.16976 14.9964 0
      vertex -2.74596 12.9838 0
      vertex -2.91512 12.9982 0
    endloop
  endfacet
  facet normal 0 0 -1
    outer loop
      vertex -3.16976 14.9964 0
      vertex -2.91512 12.9982 0
      vertex -3.08488 12.9982 0
    endloop
  endfacet
  facet normal 0 0 -1
    outer loop
      vertex -1.95138 12.7031 0
      vertex -3.16976 14.9964 0
      vertex 2.16976 14.9964 0
    endloop
  endfacet
  facet normal 0 0 -1
    outer loop
      vertex -3.25403 12.9838 0
      vertex -3.16976 14.9964 0
      vertex -3.08488 12.9982 0
    endloop
  endfacet
  facet normal 0 0 -1
    outer loop
      vertex -3.50807 14.9676 0
      vertex -3.25403 12.9838 0
      vertex -3.42136 12.9551 0
    endloop
  endfacet
  facet normal 0 0 -1
    outer loop
      vertex -3.25403 12.9838 0
      vertex -3.50807 14.9676 0
      vertex -3.16976 14.9964 0
    endloop
  endfacet
  facet normal 0 0 -1
    outer loop
      vertex -3.84272 14.9102 0
      vertex -3.42136 12.9551 0
      vertex -3.58564 12.9123 0
    endloop
  endfacet
  facet normal 0 0 -1
    outer loop
      vertex -4.17129 14.8247 0
      vertex -3.58564 12.9123 0
      vertex -3.74571 12.8558 0
    endloop
  endfacet
  facet normal 0 0 -1
    outer loop
      vertex -3.42136 12.9551 0
      vertex -3.84272 14.9102 0
      vertex -3.50807 14.9676 0
    endloop
  endfacet
  facet normal 0 0 -1
    outer loop
      vertex -4.49143 14.7116 0
      vertex -3.74571 12.8558 0
      vertex -3.90041 12.7859 0
    endloop
  endfacet
  facet normal 0 0 -1
    outer loop
      vertex -4.80081 14.5717 0
      vertex -3.90041 12.7859 0
      vertex -4.04861 12.7031 0
    endloop
  endfacet
  facet normal 0 0 -1
    outer loop
      vertex -3.58564 12.9123 0
      vertex -4.17129 14.8247 0
      vertex -3.84272 14.9102 0
    endloop
  endfacet
  facet normal 0 0 -1
    outer loop
      vertex -5.09723 14.4061 0
      vertex -4.04861 12.7031 0
      vertex -4.18927 12.608 0
    endloop
  endfacet
  facet normal 0 0 -1
    outer loop
      vertex -5.37853 14.216 0
      vertex -4.18927 12.608 0
      vertex -4.32135 12.5013 0
    endloop
  endfacet
  facet normal 0 0 -1
    outer loop
      vertex -5.6427 14.0027 0
      vertex -4.32135 12.5013 0
      vertex -4.44391 12.3839 0
    endloop
  endfacet
  facet normal 0 0 -1
    outer loop
      vertex -3.74571 12.8558 0
      vertex -4.49143 14.7116 0
      vertex -4.17129 14.8247 0
    endloop
  endfacet
  facet normal 0 0 -1
    outer loop
      vertex -5.88782 13.7678 0
      vertex -4.44391 12.3839 0
      vertex -4.55607 12.2564 0
    endloop
  endfacet
  facet normal 0 0 -1
    outer loop
      vertex -6.11214 13.5129 0
      vertex -4.55607 12.2564 0
      vertex -4.65702 12.1199 0
    endloop
  endfacet
  facet normal 0 0 -1
    outer loop
      vertex -6.31404 13.2399 0
      vertex -4.65702 12.1199 0
      vertex -4.74603 11.9754 0
    endloop
  endfacet
  facet normal 0 0 -1
    outer loop
      vertex -3.90041 12.7859 0
      vertex -4.80081 14.5717 0
      vertex -4.49143 14.7116 0
    endloop
  endfacet
  facet normal 0 0 -1
    outer loop
      vertex -6.49206 12.9508 0
      vertex -4.74603 11.9754 0
      vertex -4.82246 11.8238 0
    endloop
  endfacet
  facet normal 0 0 -1
    outer loop
      vertex -6.64491 12.6476 0
      vertex -4.82246 11.8238 0
      vertex -4.88575 11.6663 0
    endloop
  endfacet
  facet normal 0 0 -1
    outer loop
      vertex -6.77151 12.3326 0
      vertex -4.88575 11.6663 0
      vertex -4.93547 11.504 0
    endloop
  endfacet
  facet normal 0 0 -1
    outer loop
      vertex -6.87093 12.0079 0
      vertex -4.93547 11.504 0
      vertex -4.97123 11.338 0
    endloop
  endfacet
  facet normal 0 0 -1
    outer loop
      vertex -6.94246 11.676 0
      vertex -4.97123 11.338 0
      vertex -4.99279 11.1696 0
    endloop
  endfacet
  facet normal 0 0 -1
    outer loop
      vertex -4.04861 12.7031 0
      vertex -5.09723 14.4061 0
      vertex -4.80081 14.5717 0
    endloop
  endfacet
  facet normal 0 0 -1
    outer loop
      vertex -6.98559 11.3392 0
      vertex -4.99279 11.1696 0
      vertex -5 11 0
    endloop
  endfacet
  facet normal -0 0 -1
    outer loop
      vertex -4.74603 10.0246 0
      vertex -6.49206 9.04922 0
      vertex -4.82246 10.1762 0
    endloop
  endfacet
  facet normal 0 0 -1
    outer loop
      vertex -6.64491 9.35239 0
      vertex -4.82246 10.1762 0
      vertex -6.49206 9.04922 0
    endloop
  endfacet
  facet normal 0 0 -1
    outer loop
      vertex -4.18927 12.608 0
      vertex -5.37853 14.216 0
      vertex -5.09723 14.4061 0
    endloop
  endfacet
  facet normal -0 0 -1
    outer loop
      vertex -4.82246 10.1762 0
      vertex -6.64491 9.35239 0
      vertex -4.88575 10.3337 0
    endloop
  endfacet
  facet normal 0 0 -1
    outer loop
      vertex -4.32135 12.5013 0
      vertex -5.6427 14.0027 0
      vertex -5.37853 14.216 0
    endloop
  endfacet
  facet normal 0 0 -1
    outer loop
      vertex -6.77151 9.66744 0
      vertex -4.88575 10.3337 0
      vertex -6.64491 9.35239 0
    endloop
  endfacet
  facet normal 0 0 -1
    outer loop
      vertex -4.44391 12.3839 0
      vertex -5.88782 13.7678 0
      vertex -5.6427 14.0027 0
    endloop
  endfacet
  facet normal -0 0 -1
    outer loop
      vertex -4.88575 10.3337 0
      vertex -6.77151 9.66744 0
      vertex -4.93547 10.496 0
    endloop
  endfacet
  facet normal 0 0 -1
    outer loop
      vertex -4.55607 12.2564 0
      vertex -6.11214 13.5129 0
      vertex -5.88782 13.7678 0
    endloop
  endfacet
  facet normal 0 0 -1
    outer loop
      vertex -6.87093 9.99209 0
      vertex -4.93547 10.496 0
      vertex -6.77151 9.66744 0
    endloop
  endfacet
  facet normal 0 0 -1
    outer loop
      vertex -4.65702 12.1199 0
      vertex -6.31404 13.2399 0
      vertex -6.11214 13.5129 0
    endloop
  endfacet
  facet normal -0 0 -1
    outer loop
      vertex -4.93547 10.496 0
      vertex -6.87093 9.99209 0
      vertex -4.97123 10.662 0
    endloop
  endfacet
  facet normal 0 0 -1
    outer loop
      vertex -4.74603 11.9754 0
      vertex -6.49206 12.9508 0
      vertex -6.31404 13.2399 0
    endloop
  endfacet
  facet normal 0 0 -1
    outer loop
      vertex -6.94246 10.324 0
      vertex -4.97123 10.662 0
      vertex -6.87093 9.99209 0
    endloop
  endfacet
  facet normal 0 0 -1
    outer loop
      vertex -4.82246 11.8238 0
      vertex -6.64491 12.6476 0
      vertex -6.49206 12.9508 0
    endloop
  endfacet
  facet normal -0 0 -1
    outer loop
      vertex -4.97123 10.662 0
      vertex -6.94246 10.324 0
      vertex -4.99279 10.8304 0
    endloop
  endfacet
  facet normal 0 0 -1
    outer loop
      vertex -4.88575 11.6663 0
      vertex -6.77151 12.3326 0
      vertex -6.64491 12.6476 0
    endloop
  endfacet
  facet normal 0 0 -1
    outer loop
      vertex -6.98559 10.6608 0
      vertex -4.99279 10.8304 0
      vertex -6.94246 10.324 0
    endloop
  endfacet
  facet normal 0 0 -1
    outer loop
      vertex -4.93547 11.504 0
      vertex -6.87093 12.0079 0
      vertex -6.77151 12.3326 0
    endloop
  endfacet
  facet normal -0 0 -1
    outer loop
      vertex -4.99279 10.8304 0
      vertex -6.98559 10.6608 0
      vertex -5 11 0
    endloop
  endfacet
  facet normal 0 0 -1
    outer loop
      vertex -4.97123 11.338 0
      vertex -6.94246 11.676 0
      vertex -6.87093 12.0079 0
    endloop
  endfacet
  facet normal 0 0 -1
    outer loop
      vertex -7 11 0
      vertex -5 11 0
      vertex -6.98559 10.6608 0
    endloop
  endfacet
  facet normal 0 0 -1
    outer loop
      vertex -4.99279 11.1696 0
      vertex -6.98559 11.3392 0
      vertex -6.94246 11.676 0
    endloop
  endfacet
  facet normal 0 0 -1
    outer loop
      vertex -5 11 0
      vertex -7 11 0
      vertex -6.98559 11.3392 0
    endloop
  endfacet
  facet normal 0.927866 0.372914 0
    outer loop
      vertex 5.77151 12.3326 3
      vertex 5.64491 12.6476 0
      vertex 5.64491 12.6476 3
    endloop
  endfacet
  facet normal 0.927866 0.372914 0
    outer loop
      vertex 5.64491 12.6476 0
      vertex 5.77151 12.3326 3
      vertex 5.77151 12.3326 0
    endloop
  endfacet
  facet normal 0.628216 0.778039 -0
    outer loop
      vertex 4.6427 14.0027 0
      vertex 4.37853 14.216 3
      vertex 4.6427 14.0027 3
    endloop
  endfacet
  facet normal 0.628216 0.778039 0
    outer loop
      vertex 4.37853 14.216 3
      vertex 4.6427 14.0027 0
      vertex 4.37853 14.216 0
    endloop
  endfacet
  facet normal 0.559923 0.828545 -0
    outer loop
      vertex 4.37853 14.216 0
      vertex 4.09723 14.4061 3
      vertex 4.37853 14.216 3
    endloop
  endfacet
  facet normal 0.559923 0.828545 0
    outer loop
      vertex 4.09723 14.4061 3
      vertex 4.37853 14.216 0
      vertex 4.09723 14.4061 0
    endloop
  endfacet
  facet normal 0.750702 0.660641 0
    outer loop
      vertex 5.11214 13.5129 3
      vertex 4.88782 13.7678 0
      vertex 4.88782 13.7678 3
    endloop
  endfacet
  facet normal 0.750702 0.660641 0
    outer loop
      vertex 4.88782 13.7678 0
      vertex 5.11214 13.5129 3
      vertex 5.11214 13.5129 0
    endloop
  endfacet
  facet normal 0.169054 0.985607 -0
    outer loop
      vertex 2.84272 14.9102 0
      vertex 2.50807 14.9676 3
      vertex 2.84272 14.9102 3
    endloop
  endfacet
  facet normal 0.169054 0.985607 0
    outer loop
      vertex 2.50807 14.9676 3
      vertex 2.84272 14.9102 0
      vertex 2.50807 14.9676 0
    endloop
  endfacet
  facet normal 0.333107 0.942889 -0
    outer loop
      vertex 3.49143 14.7116 0
      vertex 3.17129 14.8247 3
      vertex 3.49143 14.7116 3
    endloop
  endfacet
  facet normal 0.333107 0.942889 0
    outer loop
      vertex 3.17129 14.8247 3
      vertex 3.49143 14.7116 0
      vertex 3.17129 14.8247 0
    endloop
  endfacet
  facet normal -0.169054 0.985607 0
    outer loop
      vertex -3.50807 14.9676 0
      vertex -3.84272 14.9102 3
      vertex -3.50807 14.9676 3
    endloop
  endfacet
  facet normal -0.169054 0.985607 0
    outer loop
      vertex -3.84272 14.9102 3
      vertex -3.50807 14.9676 0
      vertex -3.84272 14.9102 0
    endloop
  endfacet
  facet normal -0.0848222 0.996396 0
    outer loop
      vertex -3.16976 14.9964 0
      vertex -3.50807 14.9676 3
      vertex -3.16976 14.9964 3
    endloop
  endfacet
  facet normal -0.0848222 0.996396 0
    outer loop
      vertex -3.50807 14.9676 3
      vertex -3.16976 14.9964 0
      vertex -3.50807 14.9676 0
    endloop
  endfacet
  facet normal -0.559923 0.828545 0
    outer loop
      vertex -5.09723 14.4061 0
      vertex -5.37853 14.216 3
      vertex -5.09723 14.4061 3
    endloop
  endfacet
  facet normal -0.559923 0.828545 0
    outer loop
      vertex -5.37853 14.216 3
      vertex -5.09723 14.4061 0
      vertex -5.37853 14.216 0
    endloop
  endfacet
  facet normal -0.487717 0.873002 0
    outer loop
      vertex -4.80081 14.5717 0
      vertex -5.09723 14.4061 3
      vertex -4.80081 14.5717 3
    endloop
  endfacet
  facet normal -0.487717 0.873002 0
    outer loop
      vertex -5.09723 14.4061 3
      vertex -4.80081 14.5717 0
      vertex -5.09723 14.4061 0
    endloop
  endfacet
  facet normal -0.89295 0.450156 0
    outer loop
      vertex -6.64491 12.6476 0
      vertex -6.49206 12.9508 3
      vertex -6.49206 12.9508 0
    endloop
  endfacet
  facet normal -0.89295 0.450156 0
    outer loop
      vertex -6.49206 12.9508 3
      vertex -6.64491 12.6476 0
      vertex -6.64491 12.6476 3
    endloop
  endfacet
  facet normal -0.804011 0.594615 0
    outer loop
      vertex -6.31404 13.2399 0
      vertex -6.11214 13.5129 3
      vertex -6.11214 13.5129 0
    endloop
  endfacet
  facet normal -0.804011 0.594615 0
    outer loop
      vertex -6.11214 13.5129 3
      vertex -6.31404 13.2399 0
      vertex -6.31404 13.2399 3
    endloop
  endfacet
  facet normal -0.927866 0.372914 0
    outer loop
      vertex -6.77151 12.3326 0
      vertex -6.64491 12.6476 3
      vertex -6.64491 12.6476 0
    endloop
  endfacet
  facet normal -0.927866 0.372914 0
    outer loop
      vertex -6.64491 12.6476 3
      vertex -6.77151 12.3326 0
      vertex -6.77151 12.3326 3
    endloop
  endfacet
  facet normal -0.977555 0.210679 0
    outer loop
      vertex -6.94246 11.676 0
      vertex -6.87093 12.0079 3
      vertex -6.87093 12.0079 0
    endloop
  endfacet
  facet normal -0.977555 0.210679 0
    outer loop
      vertex -6.87093 12.0079 3
      vertex -6.94246 11.676 0
      vertex -6.94246 11.676 3
    endloop
  endfacet
  facet normal -0.999099 0.042444 0
    outer loop
      vertex -7 11 0
      vertex -6.98559 11.3392 3
      vertex -6.98559 11.3392 0
    endloop
  endfacet
  facet normal -0.999099 0.042444 0
    outer loop
      vertex -6.98559 11.3392 3
      vertex -7 11 0
      vertex -7 11 3
    endloop
  endfacet
  facet normal 0 0 1
    outer loop
      vertex -1 11 3
      vertex 6 11 3
      vertex 5.98559 11.3392 3
    endloop
  endfacet
  facet normal 0 0 1
    outer loop
      vertex -1 11 3
      vertex 5.98559 11.3392 3
      vertex 5.94246 11.676 3
    endloop
  endfacet
  facet normal 0 0 1
    outer loop
      vertex 6 11 3
      vertex -1 11 3
      vertex 5.98559 10.6608 3
    endloop
  endfacet
  facet normal 0 0 1
    outer loop
      vertex -1 11 3
      vertex 5.94246 11.676 3
      vertex 5.87093 12.0079 3
    endloop
  endfacet
  facet normal 0 0 1
    outer loop
      vertex 5.98559 10.6608 3
      vertex -1 11 3
      vertex 5.94246 10.324 3
    endloop
  endfacet
  facet normal 0 0 1
    outer loop
      vertex -1 11 3
      vertex 5.87093 12.0079 3
      vertex 5.77151 12.3326 3
    endloop
  endfacet
  facet normal 0 0 1
    outer loop
      vertex 5.94246 10.324 3
      vertex -1 11 3
      vertex 5.87093 9.99209 3
    endloop
  endfacet
  facet normal 0 0 1
    outer loop
      vertex -1 11 3
      vertex 5.77151 12.3326 3
      vertex 5.64491 12.6476 3
    endloop
  endfacet
  facet normal 0 0 1
    outer loop
      vertex 5.87093 9.99209 3
      vertex -1 11 3
      vertex 5.77151 9.66744 3
    endloop
  endfacet
  facet normal 0 0 1
    outer loop
      vertex -1 11 3
      vertex 5.64491 12.6476 3
      vertex 5.49206 12.9508 3
    endloop
  endfacet
  facet normal 0 0 1
    outer loop
      vertex 5.77151 9.66744 3
      vertex -1 11 3
      vertex 5.64491 9.35239 3
    endloop
  endfacet
  facet normal 0 0 1
    outer loop
      vertex -1.00721 11.1696 3
      vertex 5.49206 12.9508 3
      vertex 5.31404 13.2399 3
    endloop
  endfacet
  facet normal 0 0 1
    outer loop
      vertex 5.64491 9.35239 3
      vertex -1 11 3
      vertex 5.49206 9.04922 3
    endloop
  endfacet
  facet normal 0 0 1
    outer loop
      vertex -1.00721 11.1696 3
      vertex 5.31404 13.2399 3
      vertex 5.11214 13.5129 3
    endloop
  endfacet
  facet normal -0 0 1
    outer loop
      vertex -1.00721 10.8304 3
      vertex 5.49206 9.04922 3
      vertex -1 11 3
    endloop
  endfacet
  facet normal 0 0 1
    outer loop
      vertex -1.00721 11.1696 3
      vertex 5.11214 13.5129 3
      vertex 4.88782 13.7678 3
    endloop
  endfacet
  facet normal 0 0 1
    outer loop
      vertex 5.49206 9.04922 3
      vertex -1.00721 10.8304 3
      vertex 5.31404 8.7601 3
    endloop
  endfacet
  facet normal 0 0 1
    outer loop
      vertex -1.00721 11.1696 3
      vertex 4.88782 13.7678 3
      vertex 4.6427 14.0027 3
    endloop
  endfacet
  facet normal 0 0 1
    outer loop
      vertex 5.31404 8.7601 3
      vertex -1.00721 10.8304 3
      vertex 5.11214 8.48712 3
    endloop
  endfacet
  facet normal 0 0 1
    outer loop
      vertex -1.00721 11.1696 3
      vertex 4.6427 14.0027 3
      vertex 4.37853 14.216 3
    endloop
  endfacet
  facet normal 0 0 1
    outer loop
      vertex 5.11214 8.48712 3
      vertex -1.00721 10.8304 3
      vertex 4.88782 8.23224 3
    endloop
  endfacet
  facet normal 0 0 1
    outer loop
      vertex -1.00721 11.1696 3
      vertex 4.37853 14.216 3
      vertex 4.09723 14.4061 3
    endloop
  endfacet
  facet normal 0 0 1
    outer loop
      vertex 4.88782 8.23224 3
      vertex -1.00721 10.8304 3
      vertex 4.6427 7.99731 3
    endloop
  endfacet
  facet normal 0 0 1
    outer loop
      vertex -1.00721 11.1696 3
      vertex 4.09723 14.4061 3
      vertex 3.80081 14.5717 3
    endloop
  endfacet
  facet normal 0 0 1
    outer loop
      vertex 4.6427 7.99731 3
      vertex -1.00721 10.8304 3
      vertex 4.37853 7.78401 3
    endloop
  endfacet
  facet normal 0 0 1
    outer loop
      vertex -1.00721 11.1696 3
      vertex 3.80081 14.5717 3
      vertex 3.49143 14.7116 3
    endloop
  endfacet
  facet normal 0 0 1
    outer loop
      vertex 4.37853 7.78401 3
      vertex -1.00721 10.8304 3
      vertex 4.09723 7.59388 3
    endloop
  endfacet
  facet normal 0 0 1
    outer loop
      vertex -1.00721 11.1696 3
      vertex 3.49143 14.7116 3
      vertex 3.17129 14.8247 3
    endloop
  endfacet
  facet normal 0 0 1
    outer loop
      vertex 4.09723 7.59388 3
      vertex -1.00721 10.8304 3
      vertex 3.80081 7.4283 3
    endloop
  endfacet
  facet normal 0 0 1
    outer loop
      vertex -1.02877 11.338 3
      vertex 3.17129 14.8247 3
      vertex 2.84272 14.9102 3
    endloop
  endfacet
  facet normal 0 0 1
    outer loop
      vertex 3.80081 7.4283 3
      vertex -1.00721 10.8304 3
      vertex 3.49143 7.28844 3
    endloop
  endfacet
  facet normal 0 0 1
    outer loop
      vertex -1.02877 11.338 3
      vertex 2.84272 14.9102 3
      vertex 2.50807 14.9676 3
    endloop
  endfacet
  facet normal 0 0 1
    outer loop
      vertex 3.49143 7.28844 3
      vertex -1.00721 10.8304 3
      vertex 3.17129 7.17533 3
    endloop
  endfacet
  facet normal 0 0 1
    outer loop
      vertex -1.02877 11.338 3
      vertex 2.50807 14.9676 3
      vertex 2.16976 14.9964 3
    endloop
  endfacet
  facet normal -0 0 1
    outer loop
      vertex -1.02877 10.662 3
      vertex 3.17129 7.17533 3
      vertex -1.00721 10.8304 3
    endloop
  endfacet
  facet normal 0 0 1
    outer loop
      vertex 3.17129 7.17533 3
      vertex -1.02877 10.662 3
      vertex 2.84272 7.08978 3
    endloop
  endfacet
  facet normal 0 0 1
    outer loop
      vertex 5.49206 12.9508 3
      vertex -1.00721 11.1696 3
      vertex -1 11 3
    endloop
  endfacet
  facet normal 0 0 1
    outer loop
      vertex 3.17129 14.8247 3
      vertex -1.02877 11.338 3
      vertex -1.00721 11.1696 3
    endloop
  endfacet
  facet normal 0 0 1
    outer loop
      vertex 2.16976 14.9964 3
      vertex -1.06453 11.504 3
      vertex -1.02877 11.338 3
    endloop
  endfacet
  facet normal 0 0 1
    outer loop
      vertex 2.16976 14.9964 3
      vertex -1.11424 11.6663 3
      vertex -1.06453 11.504 3
    endloop
  endfacet
  facet normal 0 0 1
    outer loop
      vertex 2.16976 14.9964 3
      vertex -1.17754 11.8238 3
      vertex -1.11424 11.6663 3
    endloop
  endfacet
  facet normal 0 0 1
    outer loop
      vertex 2.16976 14.9964 3
      vertex -1.25397 11.9754 3
      vertex -1.17754 11.8238 3
    endloop
  endfacet
  facet normal 0 0 1
    outer loop
      vertex 2.16976 14.9964 3
      vertex -1.34298 12.1199 3
      vertex -1.25397 11.9754 3
    endloop
  endfacet
  facet normal 0 0 1
    outer loop
      vertex 2.16976 14.9964 3
      vertex -1.44393 12.2564 3
      vertex -1.34298 12.1199 3
    endloop
  endfacet
  facet normal 0 0 1
    outer loop
      vertex 2.16976 14.9964 3
      vertex -1.55609 12.3839 3
      vertex -1.44393 12.2564 3
    endloop
  endfacet
  facet normal 0 0 1
    outer loop
      vertex 2.16976 14.9964 3
      vertex -1.67865 12.5013 3
      vertex -1.55609 12.3839 3
    endloop
  endfacet
  facet normal 0 0 1
    outer loop
      vertex 2.16976 14.9964 3
      vertex -1.81073 12.608 3
      vertex -1.67865 12.5013 3
    endloop
  endfacet
  facet normal 0 0 1
    outer loop
      vertex 2.16976 14.9964 3
      vertex -1.95138 12.7031 3
      vertex -1.81073 12.608 3
    endloop
  endfacet
  facet normal -0 0 1
    outer loop
      vertex -3.16976 14.9964 3
      vertex -1.95138 12.7031 3
      vertex 2.16976 14.9964 3
    endloop
  endfacet
  facet normal 0 0 1
    outer loop
      vertex -1.95138 12.7031 3
      vertex -3.16976 14.9964 3
      vertex -2.09959 12.7859 3
    endloop
  endfacet
  facet normal 0 0 1
    outer loop
      vertex -2.09959 12.7859 3
      vertex -3.16976 14.9964 3
      vertex -2.25429 12.8558 3
    endloop
  endfacet
  facet normal 0 0 1
    outer loop
      vertex -2.25429 12.8558 3
      vertex -3.16976 14.9964 3
      vertex -2.41435 12.9123 3
    endloop
  endfacet
  facet normal 0 0 1
    outer loop
      vertex -2.41435 12.9123 3
      vertex -3.16976 14.9964 3
      vertex -2.57864 12.9551 3
    endloop
  endfacet
  facet normal 0 0 1
    outer loop
      vertex -2.57864 12.9551 3
      vertex -3.16976 14.9964 3
      vertex -2.74596 12.9838 3
    endloop
  endfacet
  facet normal 0 0 1
    outer loop
      vertex -2.74596 12.9838 3
      vertex -3.16976 14.9964 3
      vertex -2.91512 12.9982 3
    endloop
  endfacet
  facet normal 0 0 1
    outer loop
      vertex -2.91512 12.9982 3
      vertex -3.16976 14.9964 3
      vertex -3.08488 12.9982 3
    endloop
  endfacet
  facet normal 0 0 1
    outer loop
      vertex -3.16976 14.9964 3
      vertex -3.25403 12.9838 3
      vertex -3.08488 12.9982 3
    endloop
  endfacet
  facet normal -0 0 1
    outer loop
      vertex -3.50807 14.9676 3
      vertex -3.25403 12.9838 3
      vertex -3.16976 14.9964 3
    endloop
  endfacet
  facet normal 0 0 1
    outer loop
      vertex -3.25403 12.9838 3
      vertex -3.50807 14.9676 3
      vertex -3.42136 12.9551 3
    endloop
  endfacet
  facet normal -0 0 1
    outer loop
      vertex -3.84272 14.9102 3
      vertex -3.42136 12.9551 3
      vertex -3.50807 14.9676 3
    endloop
  endfacet
  facet normal 0 0 1
    outer loop
      vertex -3.42136 12.9551 3
      vertex -3.84272 14.9102 3
      vertex -3.58564 12.9123 3
    endloop
  endfacet
  facet normal -0 0 1
    outer loop
      vertex -4.17129 14.8247 3
      vertex -3.58564 12.9123 3
      vertex -3.84272 14.9102 3
    endloop
  endfacet
  facet normal 0 0 1
    outer loop
      vertex -3.58564 12.9123 3
      vertex -4.17129 14.8247 3
      vertex -3.74571 12.8558 3
    endloop
  endfacet
  facet normal -0 0 1
    outer loop
      vertex -4.49143 14.7116 3
      vertex -3.74571 12.8558 3
      vertex -4.17129 14.8247 3
    endloop
  endfacet
  facet normal 0 0 1
    outer loop
      vertex -3.74571 12.8558 3
      vertex -4.49143 14.7116 3
      vertex -3.90041 12.7859 3
    endloop
  endfacet
  facet normal -0 0 1
    outer loop
      vertex -4.80081 14.5717 3
      vertex -3.90041 12.7859 3
      vertex -4.49143 14.7116 3
    endloop
  endfacet
  facet normal 0 0 1
    outer loop
      vertex -3.90041 12.7859 3
      vertex -4.80081 14.5717 3
      vertex -4.04861 12.7031 3
    endloop
  endfacet
  facet normal -0 0 1
    outer loop
      vertex -5.09723 14.4061 3
      vertex -4.04861 12.7031 3
      vertex -4.80081 14.5717 3
    endloop
  endfacet
  facet normal 0 0 1
    outer loop
      vertex -4.04861 12.7031 3
      vertex -5.09723 14.4061 3
      vertex -4.18927 12.608 3
    endloop
  endfacet
  facet normal -0 0 1
    outer loop
      vertex -5.37853 14.216 3
      vertex -4.18927 12.608 3
      vertex -5.09723 14.4061 3
    endloop
  endfacet
  facet normal 0 0 1
    outer loop
      vertex -4.18927 12.608 3
      vertex -5.37853 14.216 3
      vertex -4.32135 12.5013 3
    endloop
  endfacet
  facet normal -0 0 1
    outer loop
      vertex -5.6427 14.0027 3
      vertex -4.32135 12.5013 3
      vertex -5.37853 14.216 3
    endloop
  endfacet
  facet normal 0 0 1
    outer loop
      vertex -4.32135 12.5013 3
      vertex -5.6427 14.0027 3
      vertex -4.44391 12.3839 3
    endloop
  endfacet
  facet normal -0 0 1
    outer loop
      vertex -5.88782 13.7678 3
      vertex -4.44391 12.3839 3
      vertex -5.6427 14.0027 3
    endloop
  endfacet
  facet normal 0 0 1
    outer loop
      vertex -4.44391 12.3839 3
      vertex -5.88782 13.7678 3
      vertex -4.55607 12.2564 3
    endloop
  endfacet
  facet normal -0 0 1
    outer loop
      vertex -6.11214 13.5129 3
      vertex -4.55607 12.2564 3
      vertex -5.88782 13.7678 3
    endloop
  endfacet
  facet normal 0 0 1
    outer loop
      vertex -4.55607 12.2564 3
      vertex -6.11214 13.5129 3
      vertex -4.65702 12.1199 3
    endloop
  endfacet
  facet normal -0 0 1
    outer loop
      vertex -6.31404 13.2399 3
      vertex -4.65702 12.1199 3
      vertex -6.11214 13.5129 3
    endloop
  endfacet
  facet normal -0 0 1
    outer loop
      vertex -6.49206 12.9508 3
      vertex -4.74603 11.9754 3
      vertex -6.31404 13.2399 3
    endloop
  endfacet
  facet normal 0 0 1
    outer loop
      vertex -4.65702 12.1199 3
      vertex -6.31404 13.2399 3
      vertex -4.74603 11.9754 3
    endloop
  endfacet
  facet normal 0 0 1
    outer loop
      vertex 2.84272 7.08978 3
      vertex -1.02877 10.662 3
      vertex 2.50807 7.0324 3
    endloop
  endfacet
  facet normal 0 0 1
    outer loop
      vertex 2.50807 7.0324 3
      vertex -1.02877 10.662 3
      vertex 2.16976 7.0036 3
    endloop
  endfacet
  facet normal -0 0 1
    outer loop
      vertex -1.06453 10.496 3
      vertex 2.16976 7.0036 3
      vertex -1.02877 10.662 3
    endloop
  endfacet
  facet normal -0 0 1
    outer loop
      vertex -1.11424 10.3337 3
      vertex 2.16976 7.0036 3
      vertex -1.06453 10.496 3
    endloop
  endfacet
  facet normal -0 0 1
    outer loop
      vertex -1.17754 10.1762 3
      vertex 2.16976 7.0036 3
      vertex -1.11424 10.3337 3
    endloop
  endfacet
  facet normal -0 0 1
    outer loop
      vertex -1.25397 10.0246 3
      vertex 2.16976 7.0036 3
      vertex -1.17754 10.1762 3
    endloop
  endfacet
  facet normal -0 0 1
    outer loop
      vertex -1.34298 9.88005 3
      vertex 2.16976 7.0036 3
      vertex -1.25397 10.0246 3
    endloop
  endfacet
  facet normal -0 0 1
    outer loop
      vertex -1.44393 9.74356 3
      vertex 2.16976 7.0036 3
      vertex -1.34298 9.88005 3
    endloop
  endfacet
  facet normal -0 0 1
    outer loop
      vertex -1.55609 9.61612 3
      vertex 2.16976 7.0036 3
      vertex -1.44393 9.74356 3
    endloop
  endfacet
  facet normal -0 0 1
    outer loop
      vertex -1.67865 9.49866 3
      vertex 2.16976 7.0036 3
      vertex -1.55609 9.61612 3
    endloop
  endfacet
  facet normal -0 0 1
    outer loop
      vertex -1.81073 9.392 3
      vertex 2.16976 7.0036 3
      vertex -1.67865 9.49866 3
    endloop
  endfacet
  facet normal -0 0 1
    outer loop
      vertex -1.95138 9.29694 3
      vertex 2.16976 7.0036 3
      vertex -1.81073 9.392 3
    endloop
  endfacet
  facet normal 0 0 1
    outer loop
      vertex -3.16976 7.0036 3
      vertex -1.95138 9.29694 3
      vertex -2.09959 9.21415 3
    endloop
  endfacet
  facet normal 0 0 1
    outer loop
      vertex -3.16976 7.0036 3
      vertex -2.09959 9.21415 3
      vertex -2.25429 9.14422 3
    endloop
  endfacet
  facet normal 0 0 1
    outer loop
      vertex -3.16976 7.0036 3
      vertex -2.25429 9.14422 3
      vertex -2.41435 9.08767 3
    endloop
  endfacet
  facet normal 0 0 1
    outer loop
      vertex -3.16976 7.0036 3
      vertex -2.41435 9.08767 3
      vertex -2.57864 9.04489 3
    endloop
  endfacet
  facet normal 0 0 1
    outer loop
      vertex -3.16976 7.0036 3
      vertex -2.57864 9.04489 3
      vertex -2.74596 9.0162 3
    endloop
  endfacet
  facet normal 0 0 1
    outer loop
      vertex -3.16976 7.0036 3
      vertex -2.74596 9.0162 3
      vertex -2.91512 9.0018 3
    endloop
  endfacet
  facet normal 0 0 1
    outer loop
      vertex -3.16976 7.0036 3
      vertex -2.91512 9.0018 3
      vertex -3.08488 9.0018 3
    endloop
  endfacet
  facet normal 0 0 1
    outer loop
      vertex -1.95138 9.29694 3
      vertex -3.16976 7.0036 3
      vertex 2.16976 7.0036 3
    endloop
  endfacet
  facet normal 0 0 1
    outer loop
      vertex -3.25403 9.0162 3
      vertex -3.16976 7.0036 3
      vertex -3.08488 9.0018 3
    endloop
  endfacet
  facet normal 0 0 1
    outer loop
      vertex -3.50807 7.0324 3
      vertex -3.25403 9.0162 3
      vertex -3.42136 9.04489 3
    endloop
  endfacet
  facet normal 0 0 1
    outer loop
      vertex -3.25403 9.0162 3
      vertex -3.50807 7.0324 3
      vertex -3.16976 7.0036 3
    endloop
  endfacet
  facet normal 0 0 1
    outer loop
      vertex -3.84272 7.08978 3
      vertex -3.42136 9.04489 3
      vertex -3.58564 9.08767 3
    endloop
  endfacet
  facet normal 0 0 1
    outer loop
      vertex -4.17129 7.17533 3
      vertex -3.58564 9.08767 3
      vertex -3.74571 9.14422 3
    endloop
  endfacet
  facet normal 0 0 1
    outer loop
      vertex -3.42136 9.04489 3
      vertex -3.84272 7.08978 3
      vertex -3.50807 7.0324 3
    endloop
  endfacet
  facet normal 0 0 1
    outer loop
      vertex -4.49143 7.28844 3
      vertex -3.74571 9.14422 3
      vertex -3.90041 9.21415 3
    endloop
  endfacet
  facet normal 0 0 1
    outer loop
      vertex -4.80081 7.4283 3
      vertex -3.90041 9.21415 3
      vertex -4.04861 9.29694 3
    endloop
  endfacet
  facet normal 0 0 1
    outer loop
      vertex -3.58564 9.08767 3
      vertex -4.17129 7.17533 3
      vertex -3.84272 7.08978 3
    endloop
  endfacet
  facet normal 0 0 1
    outer loop
      vertex -5.09723 7.59388 3
      vertex -4.04861 9.29694 3
      vertex -4.18927 9.392 3
    endloop
  endfacet
  facet normal 0 0 1
    outer loop
      vertex -5.37853 7.78401 3
      vertex -4.18927 9.392 3
      vertex -4.32135 9.49866 3
    endloop
  endfacet
  facet normal 0 0 1
    outer loop
      vertex -5.6427 7.99731 3
      vertex -4.32135 9.49866 3
      vertex -4.44391 9.61612 3
    endloop
  endfacet
  facet normal 0 0 1
    outer loop
      vertex -3.74571 9.14422 3
      vertex -4.49143 7.28844 3
      vertex -4.17129 7.17533 3
    endloop
  endfacet
  facet normal 0 0 1
    outer loop
      vertex -5.88782 8.23224 3
      vertex -4.44391 9.61612 3
      vertex -4.55607 9.74356 3
    endloop
  endfacet
  facet normal 0 0 1
    outer loop
      vertex -6.11214 8.48712 3
      vertex -4.55607 9.74356 3
      vertex -4.65702 9.88005 3
    endloop
  endfacet
  facet normal 0 0 1
    outer loop
      vertex -6.31404 8.7601 3
      vertex -4.65702 9.88005 3
      vertex -4.74603 10.0246 3
    endloop
  endfacet
  facet normal 0 0 1
    outer loop
      vertex -3.90041 9.21415 3
      vertex -4.80081 7.4283 3
      vertex -4.49143 7.28844 3
    endloop
  endfacet
  facet normal 0 0 1
    outer loop
      vertex -6.49206 9.04922 3
      vertex -4.74603 10.0246 3
      vertex -4.82246 10.1762 3
    endloop
  endfacet
  facet normal 0 0 1
    outer loop
      vertex -6.64491 9.35239 3
      vertex -4.82246 10.1762 3
      vertex -4.88575 10.3337 3
    endloop
  endfacet
  facet normal 0 0 1
    outer loop
      vertex -6.77151 9.66744 3
      vertex -4.88575 10.3337 3
      vertex -4.93547 10.496 3
    endloop
  endfacet
  facet normal 0 0 1
    outer loop
      vertex -6.87093 9.99209 3
      vertex -4.93547 10.496 3
      vertex -4.97123 10.662 3
    endloop
  endfacet
  facet normal 0 0 1
    outer loop
      vertex -6.94246 10.324 3
      vertex -4.97123 10.662 3
      vertex -4.99279 10.8304 3
    endloop
  endfacet
  facet normal 0 0 1
    outer loop
      vertex -4.04861 9.29694 3
      vertex -5.09723 7.59388 3
      vertex -4.80081 7.4283 3
    endloop
  endfacet
  facet normal 0 0 1
    outer loop
      vertex -6.98559 10.6608 3
      vertex -4.99279 10.8304 3
      vertex -5 11 3
    endloop
  endfacet
  facet normal 0 0 1
    outer loop
      vertex -4.74603 11.9754 3
      vertex -6.49206 12.9508 3
      vertex -4.82246 11.8238 3
    endloop
  endfacet
  facet normal -0 0 1
    outer loop
      vertex -6.64491 12.6476 3
      vertex -4.82246 11.8238 3
      vertex -6.49206 12.9508 3
    endloop
  endfacet
  facet normal 0 0 1
    outer loop
      vertex -4.18927 9.392 3
      vertex -5.37853 7.78401 3
      vertex -5.09723 7.59388 3
    endloop
  endfacet
  facet normal 0 0 1
    outer loop
      vertex -4.82246 11.8238 3
      vertex -6.64491 12.6476 3
      vertex -4.88575 11.6663 3
    endloop
  endfacet
  facet normal 0 0 1
    outer loop
      vertex -4.32135 9.49866 3
      vertex -5.6427 7.99731 3
      vertex -5.37853 7.78401 3
    endloop
  endfacet
  facet normal -0 0 1
    outer loop
      vertex -6.77151 12.3326 3
      vertex -4.88575 11.6663 3
      vertex -6.64491 12.6476 3
    endloop
  endfacet
  facet normal 0 0 1
    outer loop
      vertex -4.44391 9.61612 3
      vertex -5.88782 8.23224 3
      vertex -5.6427 7.99731 3
    endloop
  endfacet
  facet normal 0 0 1
    outer loop
      vertex -4.88575 11.6663 3
      vertex -6.77151 12.3326 3
      vertex -4.93547 11.504 3
    endloop
  endfacet
  facet normal 0 0 1
    outer loop
      vertex -4.55607 9.74356 3
      vertex -6.11214 8.48712 3
      vertex -5.88782 8.23224 3
    endloop
  endfacet
  facet normal -0 0 1
    outer loop
      vertex -6.87093 12.0079 3
      vertex -4.93547 11.504 3
      vertex -6.77151 12.3326 3
    endloop
  endfacet
  facet normal 0 0 1
    outer loop
      vertex -4.65702 9.88005 3
      vertex -6.31404 8.7601 3
      vertex -6.11214 8.48712 3
    endloop
  endfacet
  facet normal 0 0 1
    outer loop
      vertex -4.93547 11.504 3
      vertex -6.87093 12.0079 3
      vertex -4.97123 11.338 3
    endloop
  endfacet
  facet normal 0 0 1
    outer loop
      vertex -4.74603 10.0246 3
      vertex -6.49206 9.04922 3
      vertex -6.31404 8.7601 3
    endloop
  endfacet
  facet normal -0 0 1
    outer loop
      vertex -6.94246 11.676 3
      vertex -4.97123 11.338 3
      vertex -6.87093 12.0079 3
    endloop
  endfacet
  facet normal 0 0 1
    outer loop
      vertex -4.82246 10.1762 3
      vertex -6.64491 9.35239 3
      vertex -6.49206 9.04922 3
    endloop
  endfacet
  facet normal 0 0 1
    outer loop
      vertex -4.97123 11.338 3
      vertex -6.94246 11.676 3
      vertex -4.99279 11.1696 3
    endloop
  endfacet
  facet normal 0 0 1
    outer loop
      vertex -4.88575 10.3337 3
      vertex -6.77151 9.66744 3
      vertex -6.64491 9.35239 3
    endloop
  endfacet
  facet normal -0 0 1
    outer loop
      vertex -6.98559 11.3392 3
      vertex -4.99279 11.1696 3
      vertex -6.94246 11.676 3
    endloop
  endfacet
  facet normal 0 0 1
    outer loop
      vertex -4.93547 10.496 3
      vertex -6.87093 9.99209 3
      vertex -6.77151 9.66744 3
    endloop
  endfacet
  facet normal 0 0 1
    outer loop
      vertex -4.99279 11.1696 3
      vertex -6.98559 11.3392 3
      vertex -5 11 3
    endloop
  endfacet
  facet normal 0 0 1
    outer loop
      vertex -4.97123 10.662 3
      vertex -6.94246 10.324 3
      vertex -6.87093 9.99209 3
    endloop
  endfacet
  facet normal 0 0 1
    outer loop
      vertex -7 11 3
      vertex -5 11 3
      vertex -6.98559 11.3392 3
    endloop
  endfacet
  facet normal 0 0 1
    outer loop
      vertex -4.99279 10.8304 3
      vertex -6.98559 10.6608 3
      vertex -6.94246 10.324 3
    endloop
  endfacet
  facet normal 0 0 1
    outer loop
      vertex -5 11 3
      vertex -7 11 3
      vertex -6.98559 10.6608 3
    endloop
  endfacet
  facet normal -0.25197 -0.967735 0
    outer loop
      vertex -4.17129 7.17533 0
      vertex -3.84272 7.08978 3
      vertex -4.17129 7.17533 3
    endloop
  endfacet
  facet normal -0.25197 -0.967735 -0
    outer loop
      vertex -3.84272 7.08978 3
      vertex -4.17129 7.17533 0
      vertex -3.84272 7.08978 0
    endloop
  endfacet
  facet normal -0.0848222 -0.996396 0
    outer loop
      vertex -3.50807 7.0324 0
      vertex -3.16976 7.0036 3
      vertex -3.50807 7.0324 3
    endloop
  endfacet
  facet normal -0.0848222 -0.996396 -0
    outer loop
      vertex -3.16976 7.0036 3
      vertex -3.50807 7.0324 0
      vertex -3.16976 7.0036 0
    endloop
  endfacet
  facet normal -0.80399 -0.594643 0
    outer loop
      vertex -6.11214 8.48712 0
      vertex -6.31404 8.7601 3
      vertex -6.31404 8.7601 0
    endloop
  endfacet
  facet normal -0.80399 -0.594643 0
    outer loop
      vertex -6.31404 8.7601 3
      vertex -6.11214 8.48712 0
      vertex -6.11214 8.48712 3
    endloop
  endfacet
  facet normal -0.691941 -0.721954 0
    outer loop
      vertex -5.88782 8.23224 0
      vertex -5.6427 7.99731 3
      vertex -5.88782 8.23224 3
    endloop
  endfacet
  facet normal -0.691941 -0.721954 -0
    outer loop
      vertex -5.6427 7.99731 3
      vertex -5.88782 8.23224 0
      vertex -5.6427 7.99731 0
    endloop
  endfacet
  facet normal -0.487672 -0.873027 0
    outer loop
      vertex -5.09723 7.59388 0
      vertex -4.80081 7.4283 3
      vertex -5.09723 7.59388 3
    endloop
  endfacet
  facet normal -0.487672 -0.873027 -0
    outer loop
      vertex -4.80081 7.4283 3
      vertex -5.09723 7.59388 0
      vertex -4.80081 7.4283 0
    endloop
  endfacet
  facet normal -0.892932 -0.450192 0
    outer loop
      vertex -6.49206 9.04922 0
      vertex -6.64491 9.35239 3
      vertex -6.64491 9.35239 0
    endloop
  endfacet
  facet normal -0.892932 -0.450192 0
    outer loop
      vertex -6.64491 9.35239 3
      vertex -6.49206 9.04922 0
      vertex -6.49206 9.04922 3
    endloop
  endfacet
  facet normal -0.956169 -0.292815 0
    outer loop
      vertex -6.77151 9.66744 0
      vertex -6.87093 9.99209 3
      vertex -6.87093 9.99209 0
    endloop
  endfacet
  facet normal -0.956169 -0.292815 0
    outer loop
      vertex -6.87093 9.99209 3
      vertex -6.77151 9.66744 0
      vertex -6.77151 9.66744 3
    endloop
  endfacet
  facet normal -0.9919 -0.127021 0
    outer loop
      vertex -6.94246 10.324 0
      vertex -6.98559 10.6608 3
      vertex -6.98559 10.6608 0
    endloop
  endfacet
  facet normal -0.9919 -0.127021 0
    outer loop
      vertex -6.98559 10.6608 3
      vertex -6.94246 10.324 0
      vertex -6.94246 10.324 3
    endloop
  endfacet
  facet normal 0.487672 -0.873027 0
    outer loop
      vertex 3.80081 7.4283 0
      vertex 4.09723 7.59388 3
      vertex 3.80081 7.4283 3
    endloop
  endfacet
  facet normal 0.487672 -0.873027 0
    outer loop
      vertex 4.09723 7.59388 3
      vertex 3.80081 7.4283 0
      vertex 4.09723 7.59388 0
    endloop
  endfacet
  facet normal 0.411929 -0.911216 0
    outer loop
      vertex 3.49143 7.28844 0
      vertex 3.80081 7.4283 3
      vertex 3.49143 7.28844 3
    endloop
  endfacet
  facet normal 0.411929 -0.911216 0
    outer loop
      vertex 3.80081 7.4283 3
      vertex 3.49143 7.28844 0
      vertex 3.80081 7.4283 0
    endloop
  endfacet
  facet normal 0.927886 -0.372863 0
    outer loop
      vertex 5.64491 9.35239 3
      vertex 5.77151 9.66744 0
      vertex 5.77151 9.66744 3
    endloop
  endfacet
  facet normal 0.927886 -0.372863 0
    outer loop
      vertex 5.77151 9.66744 0
      vertex 5.64491 9.35239 3
      vertex 5.64491 9.35239 0
    endloop
  endfacet
  facet normal 0.977555 0.210679 0
    outer loop
      vertex 5.94246 11.676 3
      vertex 5.87093 12.0079 0
      vertex 5.87093 12.0079 3
    endloop
  endfacet
  facet normal 0.977555 0.210679 0
    outer loop
      vertex 5.87093 12.0079 0
      vertex 5.94246 11.676 3
      vertex 5.94246 11.676 0
    endloop
  endfacet
  facet normal 0.89295 0.450156 0
    outer loop
      vertex 5.64491 12.6476 3
      vertex 5.49206 12.9508 0
      vertex 5.49206 12.9508 3
    endloop
  endfacet
  facet normal 0.89295 0.450156 0
    outer loop
      vertex 5.49206 12.9508 0
      vertex 5.64491 12.6476 3
      vertex 5.64491 12.6476 0
    endloop
  endfacet
  facet normal 0.487717 0.873002 -0
    outer loop
      vertex 4.09723 14.4061 0
      vertex 3.80081 14.5717 3
      vertex 4.09723 14.4061 3
    endloop
  endfacet
  facet normal 0.487717 0.873002 0
    outer loop
      vertex 3.80081 14.5717 3
      vertex 4.09723 14.4061 0
      vertex 3.80081 14.5717 0
    endloop
  endfacet
  facet normal 0.691895 0.721998 -0
    outer loop
      vertex 4.88782 13.7678 0
      vertex 4.6427 14.0027 3
      vertex 4.88782 13.7678 3
    endloop
  endfacet
  facet normal 0.691895 0.721998 0
    outer loop
      vertex 4.6427 14.0027 3
      vertex 4.88782 13.7678 0
      vertex 4.6427 14.0027 0
    endloop
  endfacet
  facet normal 0.804011 0.594615 0
    outer loop
      vertex 5.31404 13.2399 3
      vertex 5.11214 13.5129 0
      vertex 5.11214 13.5129 3
    endloop
  endfacet
  facet normal 0.804011 0.594615 0
    outer loop
      vertex 5.11214 13.5129 0
      vertex 5.31404 13.2399 3
      vertex 5.31404 13.2399 0
    endloop
  endfacet
  facet normal -0.333107 0.942889 0
    outer loop
      vertex -4.17129 14.8247 0
      vertex -4.49143 14.7116 3
      vertex -4.17129 14.8247 3
    endloop
  endfacet
  facet normal -0.333107 0.942889 0
    outer loop
      vertex -4.49143 14.7116 3
      vertex -4.17129 14.8247 0
      vertex -4.49143 14.7116 0
    endloop
  endfacet
  facet normal -0.251832 0.967771 0
    outer loop
      vertex -3.84272 14.9102 0
      vertex -4.17129 14.8247 3
      vertex -3.84272 14.9102 3
    endloop
  endfacet
  facet normal -0.251832 0.967771 0
    outer loop
      vertex -4.17129 14.8247 3
      vertex -3.84272 14.9102 0
      vertex -4.17129 14.8247 0
    endloop
  endfacet
  facet normal -0.628216 0.778039 0
    outer loop
      vertex -5.37853 14.216 0
      vertex -5.6427 14.0027 3
      vertex -5.37853 14.216 3
    endloop
  endfacet
  facet normal -0.628216 0.778039 0
    outer loop
      vertex -5.6427 14.0027 3
      vertex -5.37853 14.216 0
      vertex -5.6427 14.0027 0
    endloop
  endfacet
  facet normal -0.691895 0.721998 0
    outer loop
      vertex -5.6427 14.0027 0
      vertex -5.88782 13.7678 3
      vertex -5.6427 14.0027 3
    endloop
  endfacet
  facet normal -0.691895 0.721998 0
    outer loop
      vertex -5.88782 13.7678 3
      vertex -5.6427 14.0027 0
      vertex -5.88782 13.7678 0
    endloop
  endfacet
  facet normal -0.851511 0.524337 0
    outer loop
      vertex -6.49206 12.9508 0
      vertex -6.31404 13.2399 3
      vertex -6.31404 13.2399 0
    endloop
  endfacet
  facet normal -0.851511 0.524337 0
    outer loop
      vertex -6.31404 13.2399 3
      vertex -6.49206 12.9508 0
      vertex -6.49206 12.9508 3
    endloop
  endfacet
  facet normal -0.999099 -0.042444 0
    outer loop
      vertex -6.98559 10.6608 0
      vertex -7 11 3
      vertex -7 11 0
    endloop
  endfacet
  facet normal -0.999099 -0.042444 0
    outer loop
      vertex -7 11 3
      vertex -6.98559 10.6608 0
      vertex -6.98559 10.6608 3
    endloop
  endfacet
  facet normal -0.750676 -0.66067 0
    outer loop
      vertex -5.88782 8.23224 0
      vertex -6.11214 8.48712 3
      vertex -6.11214 8.48712 0
    endloop
  endfacet
  facet normal -0.750676 -0.66067 0
    outer loop
      vertex -6.11214 8.48712 3
      vertex -5.88782 8.23224 0
      vertex -5.88782 8.23224 3
    endloop
  endfacet
  facet normal -0.628216 -0.778039 0
    outer loop
      vertex -5.6427 7.99731 0
      vertex -5.37853 7.78401 3
      vertex -5.6427 7.99731 3
    endloop
  endfacet
  facet normal -0.628216 -0.778039 -0
    outer loop
      vertex -5.37853 7.78401 3
      vertex -5.6427 7.99731 0
      vertex -5.37853 7.78401 0
    endloop
  endfacet
  facet normal -0.411929 -0.911216 0
    outer loop
      vertex -4.80081 7.4283 0
      vertex -4.49143 7.28844 3
      vertex -4.80081 7.4283 3
    endloop
  endfacet
  facet normal -0.411929 -0.911216 -0
    outer loop
      vertex -4.49143 7.28844 3
      vertex -4.80081 7.4283 0
      vertex -4.49143 7.28844 0
    endloop
  endfacet
  facet normal -0.851527 -0.524311 0
    outer loop
      vertex -6.31404 8.7601 0
      vertex -6.49206 9.04922 3
      vertex -6.49206 9.04922 0
    endloop
  endfacet
  facet normal -0.851527 -0.524311 0
    outer loop
      vertex -6.49206 9.04922 3
      vertex -6.31404 8.7601 0
      vertex -6.31404 8.7601 3
    endloop
  endfacet
  facet normal -0.977556 -0.210673 0
    outer loop
      vertex -6.87093 9.99209 0
      vertex -6.94246 10.324 3
      vertex -6.94246 10.324 0
    endloop
  endfacet
  facet normal -0.977556 -0.210673 0
    outer loop
      vertex -6.94246 10.324 3
      vertex -6.87093 9.99209 0
      vertex -6.87093 9.99209 3
    endloop
  endfacet
  facet normal 0.628216 -0.778039 0
    outer loop
      vertex 4.37853 7.78401 0
      vertex 4.6427 7.99731 3
      vertex 4.37853 7.78401 3
    endloop
  endfacet
  facet normal 0.628216 -0.778039 0
    outer loop
      vertex 4.6427 7.99731 3
      vertex 4.37853 7.78401 0
      vertex 4.6427 7.99731 0
    endloop
  endfacet
  facet normal 0.168997 -0.985617 0
    outer loop
      vertex 2.50807 7.0324 0
      vertex 2.84272 7.08978 3
      vertex 2.50807 7.0324 3
    endloop
  endfacet
  facet normal 0.168997 -0.985617 0
    outer loop
      vertex 2.84272 7.08978 3
      vertex 2.50807 7.0324 0
      vertex 2.84272 7.08978 0
    endloop
  endfacet
  facet normal 0.0848222 -0.996396 0
    outer loop
      vertex 2.16976 7.0036 0
      vertex 2.50807 7.0324 3
      vertex 2.16976 7.0036 3
    endloop
  endfacet
  facet normal 0.0848222 -0.996396 0
    outer loop
      vertex 2.50807 7.0324 3
      vertex 2.16976 7.0036 0
      vertex 2.50807 7.0324 0
    endloop
  endfacet
  facet normal 0.956169 -0.292815 0
    outer loop
      vertex 5.77151 9.66744 3
      vertex 5.87093 9.99209 0
      vertex 5.87093 9.99209 3
    endloop
  endfacet
  facet normal 0.956169 -0.292815 0
    outer loop
      vertex 5.87093 9.99209 0
      vertex 5.77151 9.66744 3
      vertex 5.77151 9.66744 0
    endloop
  endfacet
  facet normal 0.892932 -0.450192 0
    outer loop
      vertex 5.49206 9.04922 3
      vertex 5.64491 9.35239 0
      vertex 5.64491 9.35239 3
    endloop
  endfacet
  facet normal 0.892932 -0.450192 0
    outer loop
      vertex 5.64491 9.35239 0
      vertex 5.49206 9.04922 3
      vertex 5.49206 9.04922 0
    endloop
  endfacet
  facet normal 0.851527 -0.524311 0
    outer loop
      vertex 5.31404 8.7601 3
      vertex 5.49206 9.04922 0
      vertex 5.49206 9.04922 3
    endloop
  endfacet
  facet normal 0.851527 -0.524311 0
    outer loop
      vertex 5.49206 9.04922 0
      vertex 5.31404 8.7601 3
      vertex 5.31404 8.7601 0
    endloop
  endfacet
  facet normal 0.9919 -0.127021 0
    outer loop
      vertex 5.94246 10.324 3
      vertex 5.98559 10.6608 0
      vertex 5.98559 10.6608 3
    endloop
  endfacet
  facet normal 0.9919 -0.127021 0
    outer loop
      vertex 5.98559 10.6608 0
      vertex 5.94246 10.324 3
      vertex 5.94246 10.324 0
    endloop
  endfacet
  facet normal 0.977556 -0.210673 0
    outer loop
      vertex 5.87093 9.99209 3
      vertex 5.94246 10.324 0
      vertex 5.94246 10.324 3
    endloop
  endfacet
  facet normal 0.977556 -0.210673 0
    outer loop
      vertex 5.94246 10.324 0
      vertex 5.87093 9.99209 3
      vertex 5.87093 9.99209 0
    endloop
  endfacet
  facet normal 0.999099 -0.042444 0
    outer loop
      vertex 5.98559 10.6608 3
      vertex 6 11 0
      vertex 6 11 3
    endloop
  endfacet
  facet normal 0.999099 -0.042444 0
    outer loop
      vertex 6 11 0
      vertex 5.98559 10.6608 3
      vertex 5.98559 10.6608 0
    endloop
  endfacet
  facet normal 0.691941 -0.721954 0
    outer loop
      vertex 4.6427 7.99731 0
      vertex 4.88782 8.23224 3
      vertex 4.6427 7.99731 3
    endloop
  endfacet
  facet normal 0.691941 -0.721954 0
    outer loop
      vertex 4.88782 8.23224 3
      vertex 4.6427 7.99731 0
      vertex 4.88782 8.23224 0
    endloop
  endfacet
  facet normal 0.559984 -0.828504 0
    outer loop
      vertex 4.09723 7.59388 0
      vertex 4.37853 7.78401 3
      vertex 4.09723 7.59388 3
    endloop
  endfacet
  facet normal 0.559984 -0.828504 0
    outer loop
      vertex 4.37853 7.78401 3
      vertex 4.09723 7.59388 0
      vertex 4.37853 7.78401 0
    endloop
  endfacet
  facet normal 0.333133 -0.94288 0
    outer loop
      vertex 3.17129 7.17533 0
      vertex 3.49143 7.28844 3
      vertex 3.17129 7.17533 3
    endloop
  endfacet
  facet normal 0.333133 -0.94288 0
    outer loop
      vertex 3.49143 7.28844 3
      vertex 3.17129 7.17533 0
      vertex 3.49143 7.28844 0
    endloop
  endfacet
  facet normal 0.25197 -0.967735 0
    outer loop
      vertex 2.84272 7.08978 0
      vertex 3.17129 7.17533 3
      vertex 2.84272 7.08978 3
    endloop
  endfacet
  facet normal 0.25197 -0.967735 0
    outer loop
      vertex 3.17129 7.17533 3
      vertex 2.84272 7.08978 0
      vertex 3.17129 7.17533 0
    endloop
  endfacet
  facet normal -0.999098 -0.0424734 0
    outer loop
      vertex -1 11 0
      vertex -1.00721 11.1696 3
      vertex -1.00721 11.1696 0
    endloop
  endfacet
  facet normal -0.999098 -0.0424734 0
    outer loop
      vertex -1.00721 11.1696 3
      vertex -1 11 0
      vertex -1 11 3
    endloop
  endfacet
  facet normal 0.999098 -0.0424734 0
    outer loop
      vertex -5 11 3
      vertex -4.99279 11.1696 0
      vertex -4.99279 11.1696 3
    endloop
  endfacet
  facet normal 0.999098 -0.0424734 0
    outer loop
      vertex -4.99279 11.1696 0
      vertex -5 11 3
      vertex -5 11 0
    endloop
  endfacet
  facet normal 0 -1 0
    outer loop
      vertex -3.08488 12.9982 0
      vertex -2.91512 12.9982 3
      vertex -3.08488 12.9982 3
    endloop
  endfacet
  facet normal 0 -1 -0
    outer loop
      vertex -2.91512 12.9982 3
      vertex -3.08488 12.9982 0
      vertex -2.91512 12.9982 0
    endloop
  endfacet
  facet normal 0 1 -0
    outer loop
      vertex -2.91512 9.0018 0
      vertex -3.08488 9.0018 3
      vertex -2.91512 9.0018 3
    endloop
  endfacet
  facet normal 0 1 0
    outer loop
      vertex -3.08488 9.0018 3
      vertex -2.91512 9.0018 0
      vertex -3.08488 9.0018 0
    endloop
  endfacet
  facet normal -0.691742 -0.722145 0
    outer loop
      vertex -1.67865 12.5013 0
      vertex -1.55609 12.3839 3
      vertex -1.67865 12.5013 3
    endloop
  endfacet
  facet normal -0.691742 -0.722145 -0
    outer loop
      vertex -1.55609 12.3839 3
      vertex -1.67865 12.5013 0
      vertex -1.55609 12.3839 0
    endloop
  endfacet
  facet normal 0.691742 -0.722145 0
    outer loop
      vertex -4.44391 12.3839 0
      vertex -4.32135 12.5013 3
      vertex -4.44391 12.3839 3
    endloop
  endfacet
  facet normal 0.691742 -0.722145 0
    outer loop
      vertex -4.32135 12.5013 3
      vertex -4.44391 12.3839 0
      vertex -4.32135 12.5013 0
    endloop
  endfacet
  facet normal 0.41176 -0.911292 0
    outer loop
      vertex -3.90041 12.7859 0
      vertex -3.74571 12.8558 3
      vertex -3.90041 12.7859 3
    endloop
  endfacet
  facet normal 0.41176 -0.911292 0
    outer loop
      vertex -3.74571 12.8558 3
      vertex -3.90041 12.7859 0
      vertex -3.74571 12.8558 0
    endloop
  endfacet
  facet normal -0.892938 -0.45018 0
    outer loop
      vertex -1.17754 11.8238 0
      vertex -1.25397 11.9754 3
      vertex -1.25397 11.9754 0
    endloop
  endfacet
  facet normal -0.892938 -0.45018 0
    outer loop
      vertex -1.25397 11.9754 3
      vertex -1.17754 11.8238 0
      vertex -1.17754 11.8238 3
    endloop
  endfacet
  facet normal -0.41176 -0.911292 0
    outer loop
      vertex -2.25429 12.8558 0
      vertex -2.09959 12.7859 3
      vertex -2.25429 12.8558 3
    endloop
  endfacet
  facet normal -0.41176 -0.911292 -0
    outer loop
      vertex -2.09959 12.7859 3
      vertex -2.25429 12.8558 0
      vertex -2.09959 12.7859 0
    endloop
  endfacet
  facet normal -0.560125 -0.828408 0
    outer loop
      vertex -1.95138 12.7031 0
      vertex -1.81073 12.608 3
      vertex -1.95138 12.7031 3
    endloop
  endfacet
  facet normal -0.560125 -0.828408 -0
    outer loop
      vertex -1.81073 12.608 3
      vertex -1.95138 12.7031 0
      vertex -1.81073 12.608 0
    endloop
  endfacet
  facet normal 0.892938 -0.45018 0
    outer loop
      vertex -4.82246 11.8238 3
      vertex -4.74603 11.9754 0
      vertex -4.74603 11.9754 3
    endloop
  endfacet
  facet normal 0.892938 -0.45018 0
    outer loop
      vertex -4.74603 11.9754 0
      vertex -4.82246 11.8238 3
      vertex -4.82246 11.8238 0
    endloop
  endfacet
  facet normal 0.169049 -0.985608 0
    outer loop
      vertex -3.42136 12.9551 0
      vertex -3.25403 12.9838 3
      vertex -3.42136 12.9551 3
    endloop
  endfacet
  facet normal 0.169049 -0.985608 0
    outer loop
      vertex -3.25403 12.9838 3
      vertex -3.42136 12.9551 0
      vertex -3.25403 12.9838 0
    endloop
  endfacet
  facet normal -0.977574 -0.210591 0
    outer loop
      vertex -1.02877 11.338 0
      vertex -1.06453 11.504 3
      vertex -1.06453 11.504 0
    endloop
  endfacet
  facet normal -0.977574 -0.210591 0
    outer loop
      vertex -1.06453 11.504 3
      vertex -1.02877 11.338 0
      vertex -1.02877 11.338 3
    endloop
  endfacet
  facet normal -0.991904 -0.126992 0
    outer loop
      vertex -1.00721 11.1696 0
      vertex -1.02877 11.338 3
      vertex -1.02877 11.338 0
    endloop
  endfacet
  facet normal -0.991904 -0.126992 0
    outer loop
      vertex -1.02877 11.338 3
      vertex -1.00721 11.1696 0
      vertex -1.00721 11.1696 3
    endloop
  endfacet
  facet normal -0.956157 -0.292856 0
    outer loop
      vertex -1.06453 11.504 0
      vertex -1.11424 11.6663 3
      vertex -1.11424 11.6663 0
    endloop
  endfacet
  facet normal -0.956157 -0.292856 0
    outer loop
      vertex -1.11424 11.6663 3
      vertex -1.06453 11.504 0
      vertex -1.06453 11.504 3
    endloop
  endfacet
  facet normal -0.804011 -0.594615 0
    outer loop
      vertex -1.34298 12.1199 0
      vertex -1.44393 12.2564 3
      vertex -1.44393 12.2564 0
    endloop
  endfacet
  facet normal -0.804011 -0.594615 0
    outer loop
      vertex -1.44393 12.2564 3
      vertex -1.34298 12.1199 0
      vertex -1.34298 12.1199 3
    endloop
  endfacet
  facet normal -0.75083 -0.660495 0
    outer loop
      vertex -1.44393 12.2564 0
      vertex -1.55609 12.3839 3
      vertex -1.55609 12.3839 0
    endloop
  endfacet
  facet normal -0.75083 -0.660495 0
    outer loop
      vertex -1.55609 12.3839 3
      vertex -1.44393 12.2564 0
      vertex -1.44393 12.2564 3
    endloop
  endfacet
  facet normal -0.85143 -0.524469 0
    outer loop
      vertex -1.25397 11.9754 0
      vertex -1.34298 12.1199 3
      vertex -1.34298 12.1199 0
    endloop
  endfacet
  facet normal -0.85143 -0.524469 0
    outer loop
      vertex -1.34298 12.1199 3
      vertex -1.25397 11.9754 0
      vertex -1.25397 11.9754 3
    endloop
  endfacet
  facet normal -0.252101 -0.967701 0
    outer loop
      vertex -2.57864 12.9551 0
      vertex -2.41435 12.9123 3
      vertex -2.57864 12.9551 3
    endloop
  endfacet
  facet normal -0.252101 -0.967701 -0
    outer loop
      vertex -2.41435 12.9123 3
      vertex -2.57864 12.9551 0
      vertex -2.41435 12.9123 0
    endloop
  endfacet
  facet normal -0.487717 -0.873002 0
    outer loop
      vertex -2.09959 12.7859 0
      vertex -1.95138 12.7031 3
      vertex -2.09959 12.7859 3
    endloop
  endfacet
  facet normal -0.487717 -0.873002 -0
    outer loop
      vertex -1.95138 12.7031 3
      vertex -2.09959 12.7859 0
      vertex -1.95138 12.7031 0
    endloop
  endfacet
  facet normal -0.628408 -0.777884 0
    outer loop
      vertex -1.81073 12.608 0
      vertex -1.67865 12.5013 3
      vertex -1.81073 12.608 3
    endloop
  endfacet
  facet normal -0.628408 -0.777884 -0
    outer loop
      vertex -1.67865 12.5013 3
      vertex -1.81073 12.608 0
      vertex -1.67865 12.5013 0
    endloop
  endfacet
  facet normal 0.977574 -0.210591 0
    outer loop
      vertex -4.97123 11.338 3
      vertex -4.93547 11.504 0
      vertex -4.93547 11.504 3
    endloop
  endfacet
  facet normal 0.977574 -0.210591 0
    outer loop
      vertex -4.93547 11.504 0
      vertex -4.97123 11.338 3
      vertex -4.97123 11.338 0
    endloop
  endfacet
  facet normal 0.75083 -0.660495 0
    outer loop
      vertex -4.55607 12.2564 3
      vertex -4.44391 12.3839 0
      vertex -4.44391 12.3839 3
    endloop
  endfacet
  facet normal 0.75083 -0.660495 0
    outer loop
      vertex -4.44391 12.3839 0
      vertex -4.55607 12.2564 3
      vertex -4.55607 12.2564 0
    endloop
  endfacet
  facet normal 0.927886 -0.372863 0
    outer loop
      vertex -4.88575 11.6663 3
      vertex -4.82246 11.8238 0
      vertex -4.82246 11.8238 3
    endloop
  endfacet
  facet normal 0.927886 -0.372863 0
    outer loop
      vertex -4.82246 11.8238 0
      vertex -4.88575 11.6663 3
      vertex -4.88575 11.6663 0
    endloop
  endfacet
  facet normal 0.991904 -0.126992 0
    outer loop
      vertex -4.99279 11.1696 3
      vertex -4.97123 11.338 0
      vertex -4.97123 11.338 3
    endloop
  endfacet
  facet normal 0.991904 -0.126992 0
    outer loop
      vertex -4.97123 11.338 0
      vertex -4.99279 11.1696 3
      vertex -4.99279 11.1696 0
    endloop
  endfacet
  facet normal 0.487742 -0.872988 0
    outer loop
      vertex -4.04861 12.7031 0
      vertex -3.90041 12.7859 3
      vertex -4.04861 12.7031 3
    endloop
  endfacet
  facet normal 0.487742 -0.872988 0
    outer loop
      vertex -3.90041 12.7859 3
      vertex -4.04861 12.7031 0
      vertex -3.90041 12.7859 0
    endloop
  endfacet
  facet normal 0.560098 -0.828426 0
    outer loop
      vertex -4.18927 12.608 0
      vertex -4.04861 12.7031 3
      vertex -4.18927 12.608 3
    endloop
  endfacet
  facet normal 0.560098 -0.828426 0
    outer loop
      vertex -4.04861 12.7031 3
      vertex -4.18927 12.608 0
      vertex -4.04861 12.7031 0
    endloop
  endfacet
  facet normal 0.0848247 -0.996396 0
    outer loop
      vertex -3.25403 12.9838 0
      vertex -3.08488 12.9982 3
      vertex -3.25403 12.9838 3
    endloop
  endfacet
  facet normal 0.0848247 -0.996396 0
    outer loop
      vertex -3.08488 12.9982 3
      vertex -3.25403 12.9838 0
      vertex -3.08488 12.9982 0
    endloop
  endfacet
  facet normal -0.999098 0.0424734 0
    outer loop
      vertex -1.00721 10.8304 0
      vertex -1 11 3
      vertex -1 11 0
    endloop
  endfacet
  facet normal -0.999098 0.0424734 0
    outer loop
      vertex -1 11 3
      vertex -1.00721 10.8304 0
      vertex -1.00721 10.8304 3
    endloop
  endfacet
  facet normal -0.956157 0.292856 0
    outer loop
      vertex -1.11424 10.3337 0
      vertex -1.06453 10.496 3
      vertex -1.06453 10.496 0
    endloop
  endfacet
  facet normal -0.956157 0.292856 0
    outer loop
      vertex -1.06453 10.496 3
      vertex -1.11424 10.3337 0
      vertex -1.11424 10.3337 3
    endloop
  endfacet
  facet normal 0.411907 0.911226 -0
    outer loop
      vertex -3.74571 9.14422 0
      vertex -3.90041 9.21415 3
      vertex -3.74571 9.14422 3
    endloop
  endfacet
  facet normal 0.411907 0.911226 0
    outer loop
      vertex -3.90041 9.21415 3
      vertex -3.74571 9.14422 0
      vertex -3.90041 9.21415 0
    endloop
  endfacet
  facet normal 0.927886 0.372863 0
    outer loop
      vertex -4.82246 10.1762 3
      vertex -4.88575 10.3337 0
      vertex -4.88575 10.3337 3
    endloop
  endfacet
  facet normal 0.927886 0.372863 0
    outer loop
      vertex -4.88575 10.3337 0
      vertex -4.82246 10.1762 3
      vertex -4.82246 10.1762 0
    endloop
  endfacet
  facet normal 0.977574 0.210591 0
    outer loop
      vertex -4.93547 10.496 3
      vertex -4.97123 10.662 0
      vertex -4.97123 10.662 3
    endloop
  endfacet
  facet normal 0.977574 0.210591 0
    outer loop
      vertex -4.97123 10.662 0
      vertex -4.93547 10.496 3
      vertex -4.93547 10.496 0
    endloop
  endfacet
  facet normal -0.411907 0.911226 0
    outer loop
      vertex -2.09959 9.21415 0
      vertex -2.25429 9.14422 3
      vertex -2.09959 9.21415 3
    endloop
  endfacet
  facet normal -0.411907 0.911226 0
    outer loop
      vertex -2.25429 9.14422 3
      vertex -2.09959 9.21415 0
      vertex -2.25429 9.14422 0
    endloop
  endfacet
  facet normal -0.927866 -0.372914 0
    outer loop
      vertex -1.11424 11.6663 0
      vertex -1.17754 11.8238 3
      vertex -1.17754 11.8238 0
    endloop
  endfacet
  facet normal -0.927866 -0.372914 0
    outer loop
      vertex -1.17754 11.8238 3
      vertex -1.11424 11.6663 0
      vertex -1.11424 11.6663 3
    endloop
  endfacet
  facet normal -0.332863 -0.942975 0
    outer loop
      vertex -2.41435 12.9123 0
      vertex -2.25429 12.8558 3
      vertex -2.41435 12.9123 3
    endloop
  endfacet
  facet normal -0.332863 -0.942975 -0
    outer loop
      vertex -2.25429 12.8558 3
      vertex -2.41435 12.9123 0
      vertex -2.25429 12.8558 0
    endloop
  endfacet
  facet normal -0.169059 -0.985606 0
    outer loop
      vertex -2.74596 12.9838 0
      vertex -2.57864 12.9551 3
      vertex -2.74596 12.9838 3
    endloop
  endfacet
  facet normal -0.169059 -0.985606 -0
    outer loop
      vertex -2.57864 12.9551 3
      vertex -2.74596 12.9838 0
      vertex -2.57864 12.9551 0
    endloop
  endfacet
  facet normal -0.0848197 -0.996396 0
    outer loop
      vertex -2.91512 12.9982 0
      vertex -2.74596 12.9838 3
      vertex -2.91512 12.9982 3
    endloop
  endfacet
  facet normal -0.0848197 -0.996396 -0
    outer loop
      vertex -2.74596 12.9838 3
      vertex -2.91512 12.9982 0
      vertex -2.74596 12.9838 0
    endloop
  endfacet
  facet normal 0.95614 -0.29291 0
    outer loop
      vertex -4.93547 11.504 3
      vertex -4.88575 11.6663 0
      vertex -4.88575 11.6663 3
    endloop
  endfacet
  facet normal 0.95614 -0.29291 0
    outer loop
      vertex -4.88575 11.6663 0
      vertex -4.93547 11.504 3
      vertex -4.93547 11.504 0
    endloop
  endfacet
  facet normal 0.628408 -0.777884 0
    outer loop
      vertex -4.32135 12.5013 0
      vertex -4.18927 12.608 3
      vertex -4.32135 12.5013 3
    endloop
  endfacet
  facet normal 0.628408 -0.777884 0
    outer loop
      vertex -4.18927 12.608 3
      vertex -4.32135 12.5013 0
      vertex -4.18927 12.608 0
    endloop
  endfacet
  facet normal 0.252115 -0.967697 0
    outer loop
      vertex -3.58564 12.9123 0
      vertex -3.42136 12.9551 3
      vertex -3.58564 12.9123 3
    endloop
  endfacet
  facet normal 0.252115 -0.967697 0
    outer loop
      vertex -3.42136 12.9551 3
      vertex -3.58564 12.9123 0
      vertex -3.42136 12.9551 0
    endloop
  endfacet
  facet normal 0.332845 -0.942982 0
    outer loop
      vertex -3.74571 12.8558 0
      vertex -3.58564 12.9123 3
      vertex -3.74571 12.8558 3
    endloop
  endfacet
  facet normal 0.332845 -0.942982 0
    outer loop
      vertex -3.58564 12.9123 3
      vertex -3.74571 12.8558 0
      vertex -3.58564 12.9123 0
    endloop
  endfacet
  facet normal -0.991904 0.126992 0
    outer loop
      vertex -1.02877 10.662 0
      vertex -1.00721 10.8304 3
      vertex -1.00721 10.8304 0
    endloop
  endfacet
  facet normal -0.991904 0.126992 0
    outer loop
      vertex -1.00721 10.8304 3
      vertex -1.02877 10.662 0
      vertex -1.02877 10.662 3
    endloop
  endfacet
  facet normal -0.487672 0.873027 0
    outer loop
      vertex -1.95138 9.29694 0
      vertex -2.09959 9.21415 3
      vertex -1.95138 9.29694 3
    endloop
  endfacet
  facet normal -0.487672 0.873027 0
    outer loop
      vertex -2.09959 9.21415 3
      vertex -1.95138 9.29694 0
      vertex -2.09959 9.21415 0
    endloop
  endfacet
  facet normal -0.80399 0.594643 0
    outer loop
      vertex -1.44393 9.74356 0
      vertex -1.34298 9.88005 3
      vertex -1.34298 9.88005 0
    endloop
  endfacet
  facet normal -0.80399 0.594643 0
    outer loop
      vertex -1.34298 9.88005 3
      vertex -1.44393 9.74356 0
      vertex -1.44393 9.74356 3
    endloop
  endfacet
  facet normal 0.333107 0.942889 -0
    outer loop
      vertex -3.58564 9.08767 0
      vertex -3.74571 9.14422 3
      vertex -3.58564 9.08767 3
    endloop
  endfacet
  facet normal 0.333107 0.942889 0
    outer loop
      vertex -3.74571 9.14422 3
      vertex -3.58564 9.08767 0
      vertex -3.74571 9.14422 0
    endloop
  endfacet
  facet normal 0.80399 0.594643 0
    outer loop
      vertex -4.55607 9.74356 3
      vertex -4.65702 9.88005 0
      vertex -4.65702 9.88005 3
    endloop
  endfacet
  facet normal 0.80399 0.594643 0
    outer loop
      vertex -4.65702 9.88005 0
      vertex -4.55607 9.74356 3
      vertex -4.55607 9.74356 0
    endloop
  endfacet
  facet normal -0.0848197 0.996396 0
    outer loop
      vertex -2.74596 9.0162 0
      vertex -2.91512 9.0018 3
      vertex -2.74596 9.0162 3
    endloop
  endfacet
  facet normal -0.0848197 0.996396 0
    outer loop
      vertex -2.91512 9.0018 3
      vertex -2.74596 9.0162 0
      vertex -2.91512 9.0018 0
    endloop
  endfacet
  facet normal 0.85143 -0.524469 0
    outer loop
      vertex -4.74603 11.9754 3
      vertex -4.65702 12.1199 0
      vertex -4.65702 12.1199 3
    endloop
  endfacet
  facet normal 0.85143 -0.524469 0
    outer loop
      vertex -4.65702 12.1199 0
      vertex -4.74603 11.9754 3
      vertex -4.74603 11.9754 0
    endloop
  endfacet
  facet normal 0.804011 -0.594615 0
    outer loop
      vertex -4.65702 12.1199 3
      vertex -4.55607 12.2564 0
      vertex -4.55607 12.2564 3
    endloop
  endfacet
  facet normal 0.804011 -0.594615 0
    outer loop
      vertex -4.55607 12.2564 0
      vertex -4.65702 12.1199 3
      vertex -4.65702 12.1199 0
    endloop
  endfacet
  facet normal -0.892938 0.45018 0
    outer loop
      vertex -1.25397 10.0246 0
      vertex -1.17754 10.1762 3
      vertex -1.17754 10.1762 0
    endloop
  endfacet
  facet normal -0.892938 0.45018 0
    outer loop
      vertex -1.17754 10.1762 3
      vertex -1.25397 10.0246 0
      vertex -1.25397 10.0246 3
    endloop
  endfacet
  facet normal -0.977574 0.210591 0
    outer loop
      vertex -1.06453 10.496 0
      vertex -1.02877 10.662 3
      vertex -1.02877 10.662 0
    endloop
  endfacet
  facet normal -0.977574 0.210591 0
    outer loop
      vertex -1.02877 10.662 3
      vertex -1.06453 10.496 0
      vertex -1.06453 10.496 3
    endloop
  endfacet
  facet normal -0.691926 0.721969 0
    outer loop
      vertex -1.55609 9.61612 0
      vertex -1.67865 9.49866 3
      vertex -1.55609 9.61612 3
    endloop
  endfacet
  facet normal -0.691926 0.721969 0
    outer loop
      vertex -1.67865 9.49866 3
      vertex -1.55609 9.61612 0
      vertex -1.67865 9.49866 0
    endloop
  endfacet
  facet normal -0.750676 0.66067 0
    outer loop
      vertex -1.55609 9.61612 0
      vertex -1.44393 9.74356 3
      vertex -1.44393 9.74356 0
    endloop
  endfacet
  facet normal -0.750676 0.66067 0
    outer loop
      vertex -1.44393 9.74356 3
      vertex -1.55609 9.61612 0
      vertex -1.55609 9.61612 3
    endloop
  endfacet
  facet normal -0.628266 0.777999 0
    outer loop
      vertex -1.67865 9.49866 0
      vertex -1.81073 9.392 3
      vertex -1.67865 9.49866 3
    endloop
  endfacet
  facet normal -0.628266 0.777999 0
    outer loop
      vertex -1.81073 9.392 3
      vertex -1.67865 9.49866 0
      vertex -1.81073 9.392 0
    endloop
  endfacet
  facet normal -0.559963 0.828517 0
    outer loop
      vertex -1.81073 9.392 0
      vertex -1.95138 9.29694 3
      vertex -1.81073 9.392 3
    endloop
  endfacet
  facet normal -0.559963 0.828517 0
    outer loop
      vertex -1.95138 9.29694 3
      vertex -1.81073 9.392 0
      vertex -1.95138 9.29694 0
    endloop
  endfacet
  facet normal -0.851511 0.524337 0
    outer loop
      vertex -1.34298 9.88005 0
      vertex -1.25397 10.0246 3
      vertex -1.25397 10.0246 0
    endloop
  endfacet
  facet normal -0.851511 0.524337 0
    outer loop
      vertex -1.25397 10.0246 3
      vertex -1.34298 9.88005 0
      vertex -1.34298 9.88005 3
    endloop
  endfacet
  facet normal 0.750676 0.66067 0
    outer loop
      vertex -4.44391 9.61612 3
      vertex -4.55607 9.74356 0
      vertex -4.55607 9.74356 3
    endloop
  endfacet
  facet normal 0.750676 0.66067 0
    outer loop
      vertex -4.55607 9.74356 0
      vertex -4.44391 9.61612 3
      vertex -4.44391 9.61612 0
    endloop
  endfacet
  facet normal 0.892938 0.45018 0
    outer loop
      vertex -4.74603 10.0246 3
      vertex -4.82246 10.1762 0
      vertex -4.82246 10.1762 3
    endloop
  endfacet
  facet normal 0.892938 0.45018 0
    outer loop
      vertex -4.82246 10.1762 0
      vertex -4.74603 10.0246 3
      vertex -4.74603 10.0246 0
    endloop
  endfacet
  facet normal 0.95614 0.29291 0
    outer loop
      vertex -4.88575 10.3337 3
      vertex -4.93547 10.496 0
      vertex -4.93547 10.496 3
    endloop
  endfacet
  facet normal 0.95614 0.29291 0
    outer loop
      vertex -4.93547 10.496 0
      vertex -4.88575 10.3337 3
      vertex -4.88575 10.3337 0
    endloop
  endfacet
  facet normal -0.25199 0.96773 0
    outer loop
      vertex -2.41435 9.08767 0
      vertex -2.57864 9.04489 3
      vertex -2.41435 9.08767 3
    endloop
  endfacet
  facet normal -0.25199 0.96773 0
    outer loop
      vertex -2.57864 9.04489 3
      vertex -2.41435 9.08767 0
      vertex -2.57864 9.04489 0
    endloop
  endfacet
  facet normal -0.333125 0.942883 0
    outer loop
      vertex -2.25429 9.14422 0
      vertex -2.41435 9.08767 3
      vertex -2.25429 9.14422 3
    endloop
  endfacet
  facet normal -0.333125 0.942883 0
    outer loop
      vertex -2.41435 9.08767 3
      vertex -2.25429 9.14422 0
      vertex -2.41435 9.08767 0
    endloop
  endfacet
  facet normal -0.169001 0.985616 0
    outer loop
      vertex -2.57864 9.04489 0
      vertex -2.74596 9.0162 3
      vertex -2.57864 9.04489 3
    endloop
  endfacet
  facet normal -0.169001 0.985616 0
    outer loop
      vertex -2.74596 9.0162 3
      vertex -2.57864 9.04489 0
      vertex -2.74596 9.0162 0
    endloop
  endfacet
  facet normal -0.927866 0.372914 0
    outer loop
      vertex -1.17754 10.1762 0
      vertex -1.11424 10.3337 3
      vertex -1.11424 10.3337 0
    endloop
  endfacet
  facet normal -0.927866 0.372914 0
    outer loop
      vertex -1.11424 10.3337 3
      vertex -1.17754 10.1762 0
      vertex -1.17754 10.1762 3
    endloop
  endfacet
  facet normal 0.0848247 0.996396 -0
    outer loop
      vertex -3.08488 9.0018 0
      vertex -3.25403 9.0162 3
      vertex -3.08488 9.0018 3
    endloop
  endfacet
  facet normal 0.0848247 0.996396 0
    outer loop
      vertex -3.25403 9.0162 3
      vertex -3.08488 9.0018 0
      vertex -3.25403 9.0162 0
    endloop
  endfacet
  facet normal 0.628266 0.777999 -0
    outer loop
      vertex -4.18927 9.392 0
      vertex -4.32135 9.49866 3
      vertex -4.18927 9.392 3
    endloop
  endfacet
  facet normal 0.628266 0.777999 0
    outer loop
      vertex -4.32135 9.49866 3
      vertex -4.18927 9.392 0
      vertex -4.32135 9.49866 0
    endloop
  endfacet
  facet normal 0.252005 0.967726 -0
    outer loop
      vertex -3.42136 9.04489 0
      vertex -3.58564 9.08767 3
      vertex -3.42136 9.04489 3
    endloop
  endfacet
  facet normal 0.252005 0.967726 0
    outer loop
      vertex -3.58564 9.08767 3
      vertex -3.42136 9.04489 0
      vertex -3.58564 9.08767 0
    endloop
  endfacet
  facet normal 0.168992 0.985617 -0
    outer loop
      vertex -3.25403 9.0162 0
      vertex -3.42136 9.04489 3
      vertex -3.25403 9.0162 3
    endloop
  endfacet
  facet normal 0.168992 0.985617 0
    outer loop
      vertex -3.42136 9.04489 3
      vertex -3.25403 9.0162 0
      vertex -3.42136 9.04489 0
    endloop
  endfacet
  facet normal 0.691926 0.721969 -0
    outer loop
      vertex -4.32135 9.49866 0
      vertex -4.44391 9.61612 3
      vertex -4.32135 9.49866 3
    endloop
  endfacet
  facet normal 0.691926 0.721969 0
    outer loop
      vertex -4.44391 9.61612 3
      vertex -4.32135 9.49866 0
      vertex -4.44391 9.61612 0
    endloop
  endfacet
  facet normal 0.851511 0.524337 0
    outer loop
      vertex -4.65702 9.88005 3
      vertex -4.74603 10.0246 0
      vertex -4.74603 10.0246 3
    endloop
  endfacet
  facet normal 0.851511 0.524337 0
    outer loop
      vertex -4.74603 10.0246 0
      vertex -4.65702 9.88005 3
      vertex -4.65702 9.88005 0
    endloop
  endfacet
  facet normal 0.991904 0.126992 0
    outer loop
      vertex -4.97123 10.662 3
      vertex -4.99279 10.8304 0
      vertex -4.99279 10.8304 3
    endloop
  endfacet
  facet normal 0.991904 0.126992 0
    outer loop
      vertex -4.99279 10.8304 0
      vertex -4.97123 10.662 3
      vertex -4.97123 10.662 0
    endloop
  endfacet
  facet normal 0.999098 0.0424734 0
    outer loop
      vertex -4.99279 10.8304 3
      vertex -5 11 0
      vertex -5 11 3
    endloop
  endfacet
  facet normal 0.999098 0.0424734 0
    outer loop
      vertex -5 11 0
      vertex -4.99279 10.8304 3
      vertex -4.99279 10.8304 0
    endloop
  endfacet
  facet normal 0.487697 0.873013 -0
    outer loop
      vertex -3.90041 9.21415 0
      vertex -4.04861 9.29694 3
      vertex -3.90041 9.21415 3
    endloop
  endfacet
  facet normal 0.487697 0.873013 0
    outer loop
      vertex -4.04861 9.29694 3
      vertex -3.90041 9.21415 0
      vertex -4.04861 9.29694 0
    endloop
  endfacet
  facet normal 0.559936 0.828536 -0
    outer loop
      vertex -4.04861 9.29694 0
      vertex -4.18927 9.392 3
      vertex -4.04861 9.29694 3
    endloop
  endfacet
  facet normal 0.559936 0.828536 0
    outer loop
      vertex -4.18927 9.392 3
      vertex -4.04861 9.29694 0
      vertex -4.18927 9.392 0
    endloop
  endfacet
endsolid OpenSCAD_Model
