<?xml version="1.0"?>
<svg xmlns="http://www.w3.org/2000/svg" xmlns:xlink="http://www.w3.org/1999/xlink" xmlns:svgjs="http://svgjs.com/svgjs" version="1.1" width="512" height="512" x="0" y="0" viewBox="0 0 512 512" style="enable-background:new 0 0 512 512" xml:space="preserve" class=""><g><g xmlns="http://www.w3.org/2000/svg"><path d="m200.893 444.063 28.08-65.175h54.054l28.08 65.175z" fill="#e8edf2" data-original="#e8edf2" style="" class=""/><path d="m292.721 401.388-9.694-22.5h-54.054l-9.694 22.5z" fill="#c5d3dd" data-original="#c5d3dd" style=""/><path d="m477.38 29.946h-442.76c-14.978 0-27.12 12.142-27.12 27.12v294.701c0 14.978 12.142 27.12 27.12 27.12h442.76c14.978 0 27.12-12.142 27.12-27.12v-294.701c0-14.978-12.142-27.12-27.12-27.12z" fill="#ee5d09" data-original="#01c0fa" style="" class=""/><path d="m477.38 29.946h-24.17c14.978 0 27.12 12.142 27.12 27.12v294.701c0 14.978-12.142 27.12-27.12 27.12h24.17c14.978 0 27.12-12.142 27.12-27.12v-294.701c0-14.978-12.142-27.12-27.12-27.12z" fill="#ee5d01" data-original="#0290cf" style="" class=""/><path d="m477.38 29.946h-442.76c-14.978 0-27.12 12.142-27.12 27.12v242.93c0 14.978 12.142 27.12 27.12 27.12h442.76c14.978 0 27.12-12.142 27.12-27.12v-242.929c0-14.979-12.142-27.121-27.12-27.121z" fill="#e8edf2" data-original="#e8edf2" style="" class=""/><path d="m503.281 49.002c-.925-2.972-2.346-5.725-4.168-8.162-4.946-6.613-12.839-10.894-21.732-10.894h-24.163c14.975.004 27.113 12.144 27.113 27.12v269.888c13.59-1.47 24.17-12.976 24.17-26.958v-242.929c-.001-2.809-.428-5.517-1.22-8.065z" fill="#c5d3dd" data-original="#c5d3dd" style=""/><path d="m329.617 444.063h-147.234c-13.733 0-24.866 11.133-24.866 24.866v4.866c0 4.561 3.698 8.259 8.259 8.259h180.448c4.561 0 8.259-3.698 8.259-8.259v-4.866c0-13.733-11.133-24.866-24.866-24.866z" fill="#ee5d09" data-original="#01c0fa" style="" class=""/><path d="m329.617 444.063h-23.166c13.733 0 24.865 11.133 24.865 24.865v4.866c0 4.561-3.698 8.259-8.259 8.259h23.166c4.561 0 8.259-3.698 8.259-8.259v-4.866c.001-13.732-11.132-24.865-24.865-24.865z" fill="#ee5d01" data-original="#0290cf" style="" class=""/><path d="m83 264.751h-35c-3.866 0-7-3.134-7-7v-177.573c0-3.866 3.134-7 7-7h35c3.866 0 7 3.134 7 7v177.573c0 3.866-3.134 7-7 7z" fill="#0ed2b3" data-original="#0ed2b3" style="" class=""/><path d="m466.55 63.566h-96.19c-2.761 0-5 2.239-5 5v81.55c0 2.761 2.239 5 5 5h96.19c2.761 0 5-2.239 5-5v-81.55c0-2.761-2.239-5-5-5z" fill="#fe9738" data-original="#fe9738" style="" class=""/><g><path d="m477.38 22.446h-442.76c-19.09 0-34.62 15.531-34.62 34.62v294.701c0 19.089 15.53 34.62 34.62 34.62h59.38c4.142 0 7.5-3.358 7.5-7.5s-3.358-7.5-7.5-7.5h-59.38c-10.818 0-19.62-8.802-19.62-19.62v-23.269c5.581 3.854 12.34 6.118 19.62 6.118h442.76c7.28 0 14.039-2.264 19.62-6.118v23.269c0 10.818-8.802 19.62-19.62 19.62h-194.373c-.019 0-.039 0-.058 0h-53.894c-.023 0-.046 0-.069 0h-104.986c-4.142 0-7.5 3.358-7.5 7.5s3.358 7.5 7.5 7.5h93.576l-21.618 50.176h-13.575c-17.846 0-32.365 14.519-32.365 32.366v4.866c0 8.689 7.069 15.759 15.759 15.759h180.448c8.689 0 15.759-7.069 15.759-15.759v-4.866c0-17.847-14.519-32.366-32.365-32.366h-13.575l-21.618-50.176h182.954c19.09 0 34.62-15.531 34.62-34.62v-294.701c0-19.089-15.53-34.62-34.62-34.62zm-130.397 446.483v4.866c0 .418-.34.759-.759.759h-180.448c-.418 0-.759-.34-.759-.759v-4.866c0-9.576 7.79-17.366 17.365-17.366h18.468c.013 0 .026.002.039.002.009 0 .018-.002.027-.002h110.168c.009 0 .018.002.027.002.013 0 .026-.002.039-.002h18.468c9.575 0 17.365 7.791 17.365 17.366zm-47.273-32.366h-87.42l21.618-50.176h44.184zm177.67-116.946h-442.76c-10.818 0-19.62-8.802-19.62-19.62v-242.931c0-10.818 8.802-19.62 19.62-19.62h442.76c10.818 0 19.62 8.802 19.62 19.62v242.93c0 10.819-8.802 19.621-19.62 19.621z" fill="#000000" data-original="#000000" style="" class=""/><path d="m237.607 96.626 10.893-6.194v26.357c0 4.142 3.358 7.5 7.5 7.5s7.5-3.358 7.5-7.5v-26.356l10.893 6.194c1.171.666 2.444.982 3.701.982 2.609 0 5.145-1.364 6.526-3.794 2.048-3.601.789-8.18-2.812-10.227-24.22-13.769-22.319-12.732-23.07-13.024-2.14-.84-4.501-.63-6.402.437-.014.008-.029.013-.043.021l-22.1 12.567c-3.601 2.047-4.86 6.626-2.812 10.227 2.046 3.599 6.625 4.859 10.226 2.81z" fill="#000000" data-original="#000000" style="" class=""/><path d="m177.055 240.543-22.831 13.149v-12.448c0-4.142-3.358-7.5-7.5-7.5s-7.5 3.358-7.5 7.5c.004 26.686-1.142 29.201 3.812 31.954l21.923 12.802c1.189.694 2.49 1.024 3.775 1.024 2.579 0 5.089-1.332 6.483-3.719 2.089-3.577.882-8.17-2.695-10.258l-10.848-6.335 22.867-13.17c3.589-2.067 4.823-6.653 2.756-10.242-2.067-3.591-6.653-4.823-10.242-2.757z" fill="#000000" data-original="#000000" style="" class=""/><path d="m365.276 233.745c-4.142 0-7.5 3.358-7.5 7.5v12.448l-22.831-13.149c-3.589-2.067-8.175-.833-10.242 2.756s-.833 8.175 2.756 10.242l22.867 13.17-10.848 6.335c-3.577 2.088-4.784 6.682-2.695 10.258 1.394 2.388 3.904 3.719 6.483 3.719 1.284 0 2.586-.33 3.775-1.024 20.383-12.246 24.286-12.715 25.498-17.484.494-1.936.078-1.821.237-27.271 0-4.142-3.358-7.5-7.5-7.5z" fill="#000000" data-original="#000000" style="" class=""/><path d="m314.335 165.613-54.585-31.518c-2.321-1.34-5.18-1.34-7.501 0l-54.585 31.518c-2.32 1.34-3.75 3.816-3.75 6.495 0 .188.023.373.037.559v62.471c0 2.68 1.43 5.156 3.75 6.495l54.009 31.179c.165.114.324.233.499.334 1.16.67 2.455 1.005 3.75 1.005.013 0 .026-.002.04-.002s.026.002.04.002c1.295 0 2.59-.335 3.75-1.005.175-.101.335-.221.499-.334l54.009-31.179c2.321-1.339 3.75-3.815 3.75-6.495v-62.471c.014-.186.037-.371.037-.559.001-2.679-1.428-5.155-3.749-6.495zm-58.335-16.362 39.566 22.845-39.566 22.842-39.566-22.841zm-47.048 35.869 39.508 22.812v45.684l-39.508-22.808zm54.588 68.496v-45.684l39.508-22.812v45.688z" fill="#000000" data-original="#000000" style="" class=""/><path d="m83 65.678h-35c-7.995 0-14.5 6.505-14.5 14.5v177.573c0 7.995 6.505 14.5 14.5 14.5h35c7.995 0 14.5-6.505 14.5-14.5v-177.573c0-7.995-6.505-14.5-14.5-14.5zm-.5 191.573h-34v-176.573h34z" fill="#000000" data-original="#000000" style="" class=""/><path d="m62.667 117.74h5.667c4.142 0 7.5-3.358 7.5-7.5s-3.358-7.5-7.5-7.5h-5.667c-4.142 0-7.5 3.358-7.5 7.5s3.357 7.5 7.5 7.5z" fill="#000000" data-original="#000000" style="" class=""/><path d="m62.667 156.89h5.667c4.142 0 7.5-3.358 7.5-7.5s-3.358-7.5-7.5-7.5h-5.667c-4.142 0-7.5 3.358-7.5 7.5s3.357 7.5 7.5 7.5z" fill="#000000" data-original="#000000" style="" class=""/><path d="m62.667 196.04h5.667c4.142 0 7.5-3.358 7.5-7.5s-3.358-7.5-7.5-7.5h-5.667c-4.142 0-7.5 3.358-7.5 7.5s3.357 7.5 7.5 7.5z" fill="#000000" data-original="#000000" style="" class=""/><path d="m62.667 235.19h5.667c4.142 0 7.5-3.358 7.5-7.5s-3.358-7.5-7.5-7.5h-5.667c-4.142 0-7.5 3.358-7.5 7.5s3.357 7.5 7.5 7.5z" fill="#000000" data-original="#000000" style="" class=""/><path d="m466.55 56.066h-96.19c-6.893 0-12.5 5.607-12.5 12.5v81.55c0 6.893 5.607 12.5 12.5 12.5h96.19c6.893 0 12.5-5.607 12.5-12.5v-81.55c0-6.892-5.608-12.5-12.5-12.5zm-2.5 91.55h-91.19v-76.55h91.19z" fill="#000000" data-original="#000000" style="" class=""/><path d="m394.455 103.841h23c4.142 0 7.5-3.358 7.5-7.5s-3.358-7.5-7.5-7.5h-23c-4.142 0-7.5 3.358-7.5 7.5s3.357 7.5 7.5 7.5z" fill="#000000" data-original="#000000" style="" class=""/><path d="m394.455 129.841h48c4.142 0 7.5-3.358 7.5-7.5s-3.358-7.5-7.5-7.5h-48c-4.142 0-7.5 3.358-7.5 7.5s3.357 7.5 7.5 7.5z" fill="#000000" data-original="#000000" style="" class=""/></g></g></g></svg>
