<?xml version="1.0" encoding="utf-8"?>
<!-- Generator: Adobe Illustrator 16.0.3, SVG Export Plug-In . SVG Version: 6.00 Build 0)  -->
<!DOCTYPE svg PUBLIC "-//W3C//DTD SVG 1.1//EN" "http://www.w3.org/Graphics/SVG/1.1/DTD/svg11.dtd">
<svg version="1.1" id="Capa_2" xmlns="http://www.w3.org/2000/svg" xmlns:xlink="http://www.w3.org/1999/xlink" x="0px" y="0px"
	 width="110.811px" height="109.334px" viewBox="0 3.512 110.811 109.334" enable-background="new 0 3.512 110.811 109.334"
	 xml:space="preserve">
<g>
	<path fill="#A14A6B" stroke="#FFFFFF" stroke-miterlimit="10" d="M52.323,18.344c-2.556,1.35-4.889,2.463-7.094,3.791
		c-1.179,0.711-3.526,1.299-2.646,2.99c0.986,1.895,2.663,0.064,3.79-0.596c5.374-3.152,11.195-5.076,17.206-6.484
		c1.916-0.447,3.898-0.705,6.532,0.215c-6.021,2.275-11.784,3.766-16.86,6.824c-1.14,0.689-2.249,1.428-3.354,2.17
		c-0.822,0.553-2,1.23-1.38,2.291c0.881,1.514,2.038,0.354,2.926-0.248c6.017-4.063,12.713-6.52,19.706-8.176
		c1.995-0.473,4.138-1.545,6.912,0.271c-6.421,2.146-12.535,3.949-17.82,7.4c-2.171,1.418-6.8,2.66-5.395,5.232
		c1.143,2.092,4.129-1.758,6.294-2.898c6.779-3.582,13.696-6.617,21.781-7.559c-0.523,2.527-2.533,2.443-3.819,2.988
		c-11.439,4.854-21.892,11.238-31.099,19.6c-2.965,2.693-5.837,5.518-7.5,9.25c-1.461,3.279-2.567,6.752,0.379,9.773
		c2.744,2.814,6.123,2.146,9.309,0.83c2.295-0.947,4.47-2.201,6.65-3.402c1.893-1.045,3.644-2.373,5.596-3.273
		c2.016-0.932,4.702-3.428,6.222-1.623c2.055,2.439-0.846,4.939-2.508,6.744C55.44,76.094,42.085,83.717,27.518,89.463
		c-2.711,1.07-3.942-0.508-5.365-2.242C9.636,71.963,10.505,48.715,24.255,33.027c6.421-7.328,14.306-12.367,23.778-14.824
		C49.273,17.879,50.528,17.334,52.323,18.344z"/>
	<path fill="#D9D0DE" stroke="#FFFFFF" stroke-miterlimit="10" d="M61.862,100.205c2.599-1.383,4.974-2.508,7.189-3.889
		c0.979-0.611,2.811-1.412,1.614-2.979c-0.901-1.18-2.063,0.059-3.035,0.637c-6.368,3.791-13.174,6.283-20.613,6.85
		c-0.815,0.063-1.639,0.008-2.542-0.271c7.336-2.842,15.009-4.943,20.489-11.27c-9.384,3.621-18.224,8.92-28.683,8.578
		c6.708-2.777,13.585-5.066,19.494-9.355c1.332-0.967,4.367-1.766,3.165-3.674c-1.241-1.969-3.083,0.441-4.443,1.346
		c-7.009,4.66-14.563,7.771-23.13,8.311c5.324-3.758,11.658-5.578,17.075-9.16c8.18-5.406,16.56-10.51,22.509-18.586
		c0.784-1.064,1.53-2.182,2.117-3.363c1.539-3.101,2.404-6.314-0.021-9.354c-2.522-3.16-5.798-2.508-9.13-1.545
		c-5.385,1.559-9.256,5.889-14.442,7.775c-1.465,0.531-3.044,2.391-4.493,0.858c-1.625-1.721,0.073-3.389,1.118-4.828
		c5.892-8.135,14.066-13.566,22.533-18.527c5.446-3.191,11.216-5.811,17.084-8.209c2.344-0.959,3.702-0.389,5.149,1.365
		c12.842,15.551,12.071,39.348-1.411,54.477c-6.266,7.031-13.5,12.158-22.56,14.723C65.354,100.547,63.886,101.268,61.862,100.205z"
		/>
</g>
</svg>
