<?xml version="1.0" standalone="no"?>
<!DOCTYPE svg PUBLIC "-//W3C//DTD SVG 20010904//EN"
 "http://www.w3.org/TR/2001/REC-SVG-20010904/DTD/svg10.dtd">
<svg version="1.0" xmlns="http://www.w3.org/2000/svg"
 width="610.000000pt" height="410.000000pt" viewBox="0 0 610.000000 410.000000"
 preserveAspectRatio="xMidYMid meet">

<g transform="translate(0.000000,410.000000) scale(0.100000,-0.100000)"
fill="#000000" stroke="none">
<path d="M4855 4089 c-288 -30 -569 -194 -748 -434 -90 -121 -198 -189 -272
-171 -40 10 -98 76 -124 141 -66 161 -200 305 -355 380 -113 54 -206 75 -334
75 -304 0 -561 -174 -682 -461 -62 -149 -135 -180 -256 -108 -44 26 -75 57
-134 134 -42 55 -113 132 -158 171 -430 371 -1075 346 -1472 -56 -319 -323
-396 -798 -196 -1205 64 -130 159 -253 264 -341 153 -127 150 -170 -23 -328
-194 -179 -306 -373 -351 -612 -24 -128 -15 -335 20 -462 102 -369 396 -658
764 -753 258 -66 513 -39 757 81 55 27 124 67 153 89 29 23 57 41 63 41 6 0 8
4 5 8 -2 4 7 16 22 26 37 25 149 162 194 239 50 83 57 91 98 109 31 14 148 16
940 22 1040 8 938 17 1007 -95 125 -203 268 -337 458 -432 423 -211 920 -129
1250 207 239 242 344 570 290 905 -41 249 -139 427 -345 623 -76 73 -121 123
-126 141 -14 60 10 100 139 229 67 68 139 148 160 179 309 461 224 1066 -198
1414 -172 142 -353 219 -580 245 -100 11 -116 11 -230 -1z m-1741 -413 c97
-40 141 -155 97 -251 -65 -143 -272 -151 -342 -14 -79 157 83 333 245 265z"/>
</g>
</svg>
